<svg width="306" height="306" viewBox="0 0 306 306" fill="none" xmlns="http://www.w3.org/2000/svg">
<g clip-path="url(#clip0_562_4649)">
<path d="M248.871 107.875C237.744 102.522 224.857 101.49 212.354 100.532C199.852 99.5738 186.959 98.4878 175.882 93.046C168.693 89.5143 162.588 84.2858 155.308 80.9164C143.981 75.6736 130.575 75.3526 118.168 77.7253C105.761 80.0979 94.1094 84.9813 82.5769 89.8284C76.1331 92.5369 69.3924 95.4641 65.2551 100.772C60.9878 106.247 60.2027 113.351 59.9358 120.093C59.5861 128.919 59.926 137.98 63.4329 146.197C66.5257 153.444 72.0326 159.933 73.1783 167.651C74.7497 178.239 67.7785 188.292 66.6891 198.932C65.0406 215.026 79.2276 231.086 96.6241 232.82L210.548 229.145C211.049 230.998 211.55 232.851 212.051 234.704C220.396 236.999 229.724 233.627 235.705 227.78C241.686 221.934 244.754 214.011 246.308 206.095C249.213 191.299 247.486 175.465 254.267 161.794C258.652 152.955 266.491 145.267 267.646 135.602C269.022 124.083 259.998 113.228 248.871 107.875Z" fill="#F9DCE3"/>
<path d="M37.707 145.337C37.707 145.337 44.064 166.48 45.9713 180.575C47.8787 194.671 86.1948 247.528 135.374 230.496C135.374 230.496 146.412 148.861 37.707 145.337Z" fill="#4CA58C"/>
<path d="M77.145 97.4766C77.145 97.4766 73.8296 119.205 69.4823 132.83C65.1351 146.456 77.4027 209.055 129.852 211.594C129.852 211.594 175.273 140.831 77.145 97.4766Z" fill="#66B29E"/>
<path d="M224.119 79.6164V233.89C224.119 235.334 222.852 236.505 221.29 236.505H107.626C106.064 236.505 104.797 235.334 104.797 233.89V79.6164C104.797 78.1715 106.064 77.001 107.626 77.001H221.29C222.852 77.0016 224.119 78.1721 224.119 79.6164Z" fill="#4363A0"/>
<path d="M217.861 80.8701H111.055V229.641H217.861V80.8701Z" fill="#EDF0F4"/>
<path d="M193.849 83.4096H134.188V71.4365C134.188 70.1193 135.255 69.0518 136.572 69.0518H191.464C192.781 69.0518 193.848 70.1193 193.848 71.4365V83.4096H193.849Z" fill="#609DF0"/>
<path d="M164.019 76.237C167.62 76.237 170.538 73.5405 170.538 70.2142C170.538 66.8879 167.62 64.1914 164.019 64.1914C160.419 64.1914 157.5 66.8879 157.5 70.2142C157.5 73.5405 160.419 76.237 164.019 76.237Z" fill="#CC114A"/>
<path d="M164.019 73.4174C165.934 73.4174 167.486 71.983 167.486 70.2136C167.486 68.4442 165.934 67.0098 164.019 67.0098C162.103 67.0098 160.551 68.4442 160.551 70.2136C160.551 71.983 162.103 73.4174 164.019 73.4174Z" fill="white"/>
<path d="M200.407 128.325C204.625 128.325 208.044 125.166 208.044 121.269C208.044 117.372 204.625 114.213 200.407 114.213C196.189 114.213 192.77 117.372 192.77 121.269C192.77 125.166 196.189 128.325 200.407 128.325Z" fill="white"/>
<path d="M200.407 154.617C204.625 154.617 208.044 151.458 208.044 147.561C208.044 143.664 204.625 140.505 200.407 140.505C196.189 140.505 192.77 143.664 192.77 147.561C192.77 151.458 196.189 154.617 200.407 154.617Z" fill="white"/>
<path d="M200.407 180.909C204.625 180.909 208.044 177.75 208.044 173.853C208.044 169.956 204.625 166.797 200.407 166.797C196.189 166.797 192.77 169.956 192.77 173.853C192.77 177.75 196.189 180.909 200.407 180.909Z" fill="white"/>
<path d="M200.407 205.826C204.625 205.826 208.044 202.667 208.044 198.771C208.044 194.874 204.625 191.715 200.407 191.715C196.189 191.715 192.77 194.874 192.77 198.771C192.77 202.667 196.189 205.826 200.407 205.826Z" fill="white"/>
<path d="M180.219 110.267H120.141V113.156H180.219V110.267Z" fill="#E3E4E5"/>
<path d="M180.219 115.256H120.141V118.146H180.219V115.256Z" fill="#E3E4E5"/>
<path d="M160.61 120.129H120.141V123.019H160.61V120.129Z" fill="#E3E4E5"/>
<path d="M180.219 138.004H120.141V140.894H180.219V138.004Z" fill="#E3E4E5"/>
<path d="M180.219 142.993H120.141V145.883H180.219V142.993Z" fill="#E3E4E5"/>
<path d="M160.61 147.866H120.141V150.756H160.61V147.866Z" fill="#E3E4E5"/>
<path d="M180.219 165.741H120.141V168.631H180.219V165.741Z" fill="#E3E4E5"/>
<path d="M180.219 170.73H120.141V173.62H180.219V170.73Z" fill="#E3E4E5"/>
<path d="M160.61 175.604H120.141V178.493H160.61V175.604Z" fill="#E3E4E5"/>
<path d="M180.219 193.479H120.141V196.368H180.219V193.479Z" fill="#E3E4E5"/>
<path d="M180.219 198.467H120.141V201.357H180.219V198.467Z" fill="#E3E4E5"/>
<path d="M160.61 203.341H120.141V206.231H160.61V203.341Z" fill="#E3E4E5"/>
<path d="M209.411 115.042C208.881 115.45 208.355 115.862 207.836 116.288C206.797 117.134 205.774 118.007 204.764 118.898C203.754 119.788 202.757 120.701 201.772 121.63C200.929 122.423 200.095 123.229 199.272 124.051C199.097 123.71 198.923 123.369 198.744 123.03C198.464 122.494 198.178 121.96 197.888 121.429C197.601 120.897 197.299 120.375 197.004 119.848C196.701 119.327 196.398 118.804 196.077 118.295C196.269 118.89 196.478 119.473 196.686 120.057C196.904 120.635 197.114 121.218 197.339 121.791C197.562 122.366 197.788 122.938 198.021 123.506C198.25 124.077 198.488 124.641 198.726 125.206L198.973 125.793L199.45 125.382C200.469 124.504 201.474 123.604 202.466 122.686C203.46 121.771 204.442 120.836 205.41 119.882C206.379 118.928 207.335 117.955 208.275 116.955C208.746 116.458 209.208 115.947 209.668 115.433C210.128 114.919 210.581 114.394 211.023 113.853C210.476 114.235 209.94 114.633 209.411 115.042ZM209.411 166.972C208.881 167.38 208.355 167.793 207.836 168.218C206.797 169.064 205.774 169.937 204.764 170.828C203.754 171.719 202.757 172.631 201.772 173.561C200.929 174.353 200.095 175.16 199.272 175.981C199.097 175.64 198.923 175.299 198.744 174.961C198.464 174.424 198.178 173.89 197.888 173.36C197.601 172.828 197.299 172.305 197.004 171.778C196.701 171.257 196.398 170.735 196.077 170.225C196.269 170.82 196.478 171.404 196.686 171.987C196.904 172.565 197.114 173.149 197.339 173.722C197.562 174.296 197.788 174.868 198.021 175.437C198.25 176.007 198.488 176.572 198.726 177.136L198.973 177.723L199.45 177.312C200.469 176.435 201.474 175.535 202.466 174.617C203.46 173.701 204.442 172.767 205.41 171.812C206.379 170.858 207.335 169.885 208.275 168.885C208.746 168.388 209.208 167.878 209.668 167.363C210.128 166.849 210.581 166.325 211.023 165.783C210.476 166.165 209.94 166.563 209.411 166.972ZM201.598 147.321L205.357 142.396H203.193L201.644 144.564C201.279 145.111 200.915 145.637 200.55 146.248H200.482C200.117 145.68 199.776 145.154 199.366 144.585L197.793 142.396H195.561L199.297 147.384L195.379 152.582H197.588L199.183 150.289C199.592 149.678 199.98 149.131 200.344 148.52H200.389C200.778 149.131 201.142 149.7 201.575 150.289L203.192 152.582H205.47L201.598 147.321ZM201.598 198.771L205.357 193.847H203.193L201.644 196.014C201.279 196.561 200.915 197.087 200.55 197.698H200.482C200.117 197.13 199.776 196.604 199.366 196.035L197.793 193.847H195.561L199.297 198.835L195.379 204.033H197.588L199.183 201.739C199.592 201.128 199.98 200.581 200.344 199.971H200.389C200.778 200.581 201.142 201.15 201.575 201.739L203.192 204.033H205.47L201.598 198.771Z" fill="#C80000"/>
<path d="M104.874 225.491H98.7109V233.223H104.874V225.491Z" fill="#FCAA7F"/>
<path d="M104.878 223.916H98.7148V227.928H104.878V223.916Z" fill="#F48F62"/>
<path d="M121.909 225.507H115.746V233.239H121.909V225.507Z" fill="#FCAA7F"/>
<path d="M121.909 223.916H115.746V227.928H121.909V223.916Z" fill="#F48F62"/>
<path d="M123.811 227.074L114.059 227.064L110.025 191.445L106.36 227.058L96.4009 227.047L96.1588 181.944L96.0708 179.058L95.9805 176.095L122.301 176.12L122.323 179.083L122.345 181.969L123.811 227.074Z" fill="black"/>
<path d="M128.421 159.008L123.596 149.691L123.614 150.025L123.532 149.867L123.501 176.74L113.758 176.731L110.497 176.728L108.353 176.726L105.154 176.723L95.0689 176.713L95.0994 149.839L95.0091 150.011L95.0304 149.663L90.1419 158.957L82.8398 156.541L92.0981 140.28C94.1176 136.88 97.9845 134.768 102.183 134.772H102.484L105.815 134.776L108.399 134.778L110.265 134.78L112.891 134.783L116.481 134.786C120.68 134.79 124.542 136.909 126.554 140.314L135.903 156.55L128.421 159.008Z" fill="#6BA8BA"/>
<path d="M106.793 135.715L106.594 140.701L105.155 176.723L104.923 182.533H93.014L95.0099 150.011L95.0312 149.663L90.1427 158.957L82.8406 156.541L82.6641 156.482L92.016 140.058C94.0442 136.642 97.929 134.521 102.149 134.523L102.42 134.524L105.639 134.532C105.695 134.616 105.754 134.698 105.815 134.776C106.101 135.14 106.439 135.451 106.793 135.715ZM136.078 156.492L135.904 156.549L128.422 159.007L123.597 149.69L123.615 150.024V150.025L125.337 182.532H113.878L113.758 176.73L112.891 134.781L112.886 134.534L116.513 134.537C120.731 134.54 124.611 136.671 126.633 140.09L136.078 156.492Z" fill="white"/>
<path d="M107.189 159.856L95.1386 164.146L90.2236 165.896C86.8766 167.31 84.619 166.45 83.4301 165.65C80.9746 164.268 82.1647 160.605 83.4209 158.026C83.6003 157.656 83.7815 157.309 83.9535 156.993L89.0554 158.681L88.4503 159.705L87.9102 160.618L88.0166 160.679L89.8337 160.166L89.997 160.12L95.1444 158.666L104.631 155.985L107.189 159.856Z" fill="#FCAA7F"/>
<path d="M111.958 154.535H105.514C104.503 154.535 103.684 155.293 103.684 156.227V160.137C103.684 161.071 104.503 161.829 105.514 161.829H111.958C112.969 161.829 113.788 161.071 113.788 160.137V156.227C113.788 155.293 112.969 154.535 111.958 154.535ZM112.372 159.88C112.372 160.552 111.782 161.097 111.055 161.097H106.417C105.689 161.097 105.1 160.552 105.1 159.88V157.066C105.1 156.394 105.689 155.848 106.417 155.848H111.055C111.782 155.848 112.372 156.394 112.372 157.066V159.88Z" fill="#3F4B71"/>
<path d="M113.512 155.333C113.443 155.445 113.362 155.566 113.267 155.695C113.149 155.854 113.037 156.011 112.93 156.162C112.728 156.442 112.543 156.708 112.367 156.958C112.168 157.241 111.983 157.504 111.805 157.747C111.645 157.967 111.491 158.172 111.335 158.361C110.634 159.218 109.938 159.776 108.802 160.055C108.802 160.055 108.802 160.055 108.8 160.055C108.589 160.107 108.362 160.149 108.116 160.182C107.694 160.239 107.312 160.287 106.966 160.328C106.252 160.413 105.696 160.469 105.287 160.505C104.663 160.56 104.377 160.569 104.377 160.569L103.684 158.925L103.446 158.361L102.863 156.978L105.473 153.022C105.473 153.022 106.572 152.258 107.148 153.8C107.178 153.878 107.208 153.952 107.242 154.023C107.334 154.224 107.441 154.395 107.563 154.535C107.683 154.674 107.819 154.783 107.974 154.865C108.528 155.159 109.311 155.079 110.416 154.653C110.51 154.617 110.607 154.578 110.706 154.536C110.947 154.435 111.202 154.319 111.473 154.188C111.473 154.188 111.551 154.162 111.677 154.128C112.394 153.936 114.687 153.439 113.512 155.333Z" fill="#FCAA7F"/>
<path d="M123.441 161.757V173.857C123.441 175.483 122.014 176.802 120.253 176.802H98.4924C96.7317 176.802 95.3047 175.483 95.3047 173.857V161.757C95.3047 160.131 96.7317 158.812 98.4924 158.812H120.253C122.014 158.812 123.441 160.131 123.441 161.757Z" fill="#3F4B71"/>
<path d="M123.442 161.757V164.884H95.3047V161.757C95.3047 160.131 96.7317 158.812 98.4924 158.812H120.253C122.015 158.812 123.442 160.131 123.442 161.757Z" fill="#52648E"/>
<path d="M112.66 169.374H109.942V166.864H107.37V169.374H104.652V171.752H107.37V174.262H109.942V171.752H112.66V169.374Z" fill="white"/>
<path d="M100.357 163.518H98.7539V166.48H100.357V163.518Z" fill="#3F4B71"/>
<path d="M100.068 163.891H99.043V166.107H100.068V163.891Z" fill="#6BA8BA"/>
<path d="M119.056 163.518H117.453V166.48H119.056V163.518Z" fill="#3F4B71"/>
<path d="M118.752 163.891H117.727V166.107H118.752V163.891Z" fill="#6BA8BA"/>
<path d="M113.757 134.764C113.757 134.764 109.094 139.404 104.516 134.754C104.516 134.754 105.354 134.778 105.257 132.865C105.236 132.462 105.225 132.092 105.22 131.759V131.755C105.199 130.513 105.261 129.791 105.261 129.791L112.209 131.483C112.209 131.483 112.11 132.837 112.562 133.808C112.79 134.3 113.16 134.694 113.757 134.764Z" fill="#FCAA7F"/>
<path d="M112.557 133.808C110.071 135.879 105.215 131.759 105.215 131.759V131.755C105.194 130.513 105.256 129.791 105.256 129.791L112.204 131.483C112.203 131.483 112.104 132.837 112.557 133.808Z" fill="#F9986E"/>
<path d="M117.046 120.54C117.015 120.821 116.977 121.102 116.931 121.385C116.108 126.582 116.76 132.936 107.586 131.825C104.305 131.428 101.712 128.505 100.398 125.104C99.5792 122.986 99.2565 120.684 99.5729 118.69C100.397 113.493 105.483 109.916 110.933 110.701C116.086 111.443 117.593 115.688 117.046 120.54Z" fill="#FCAA7F"/>
<path d="M83.9506 156.994L89.0525 158.682L88.4474 159.706L83.418 158.027C83.5974 157.657 83.7786 157.309 83.9506 156.994Z" fill="#F48F62"/>
<path d="M152.297 167.584C150.257 168.771 148.455 169.271 145.018 166.469C145.018 166.469 133.183 163.952 129.261 159.998C128.972 159.708 128.726 159.41 128.531 159.104L134.706 157.052L135.15 156.906L135.696 157.669L135.7 157.672L135.92 157.785L146.556 163.252C146.556 163.252 149.836 162.017 149.677 163.163C149.526 164.262 148.399 164.445 148.399 164.445C148.399 164.445 153.915 166.644 152.297 167.584Z" fill="#FCAA7F"/>
<path d="M135.921 157.785L129.261 159.998C128.972 159.708 128.726 159.41 128.531 159.104L134.706 157.052L135.15 156.906L135.696 157.669L135.7 157.672L135.921 157.785Z" fill="#F48F62"/>
<path d="M115.139 236.522H130.486C130.81 236.522 131.099 236.341 131.205 236.07C131.454 235.427 131.641 234.262 130.105 233.669C127.916 232.824 126.841 233.845 125.01 231.591C123.178 229.337 120.273 230.957 119.039 232.472C117.921 233.844 116.083 229.981 114.74 230.503C114.489 230.601 114.341 230.835 114.341 231.078V235.816C114.342 236.206 114.699 236.522 115.139 236.522ZM105.554 236.522H90.2069C89.8825 236.522 89.5932 236.341 89.488 236.07C89.2389 235.427 89.0514 234.262 90.5871 233.669C92.7769 232.824 93.8513 233.845 95.6827 231.591C97.5141 229.337 100.42 230.957 101.654 232.472C102.772 233.844 104.61 229.981 105.952 230.503C106.204 230.601 106.351 230.835 106.351 231.078V235.816C106.351 236.206 105.995 236.522 105.554 236.522Z" fill="#3A4146"/>
<path d="M98.9168 125.014C98.9168 125.014 95.8085 122.29 95.6308 117.37C95.5307 114.61 96.1674 111.831 99.4535 112.635C99.4535 112.635 99.7382 109.425 105.353 109.123C107.146 109.026 108.254 108.796 108.933 108.528C110.057 108.084 111.316 108.006 112.472 108.371C113.097 108.569 113.628 108.635 113.773 108.368C114.184 107.614 117.35 107.517 118.223 108.158C119.096 108.799 122.4 113.599 116.992 117.924L114.046 118.597C113.282 118.772 112.488 118.808 111.708 118.703L104.429 117.723C104.429 117.723 104.429 120.59 100.526 120.665C100.526 120.664 101.245 124.21 98.9168 125.014Z" fill="#3D3D44"/>
<path d="M103.002 123.774C103.002 123.774 101.383 121.561 99.4366 121.957C97.4902 122.352 96.8621 124.737 101.724 127.459L102.766 128.123L103.002 123.774Z" fill="#FCAA7F"/>
<path d="M109.559 136.823L106.596 140.702L104.657 143.129L102.422 134.524L105.254 132.864C105.267 133.677 105.263 133.969 105.641 134.532C105.957 135.004 106.364 135.395 106.795 135.715C108.071 136.663 109.559 136.823 109.559 136.823Z" fill="#F2F4F4"/>
<path d="M112.356 133.307L116.387 134.538L114.191 143.138L109.168 136.822C109.168 136.822 112.291 136.824 112.356 133.307Z" fill="#F2F4F4"/>
<path d="M113.54 155.435C113.471 155.547 113.389 155.668 113.295 155.796C113.177 155.956 113.064 156.113 112.957 156.263C112.756 156.544 112.57 156.81 112.394 157.06C112.336 156.438 111.746 155.849 111.057 155.849L108.508 154.938C109.574 154.536 110.3 154.536 110.3 154.536L111.987 154.637C112.642 154.637 113.217 154.955 113.54 155.435Z" fill="#3F4B71"/>
<path d="M100.98 124.883C100.917 124.477 101.26 124.114 101.704 124.116C103.795 124.123 109.238 124.073 110.284 123.386C111.67 122.477 112.856 124.695 116.608 123.909C116.608 123.909 118.147 130.947 111.355 132.958C111.002 133.063 110.625 133.073 110.267 132.985C108.805 132.629 102.109 132.128 100.98 124.883Z" fill="white"/>
<path d="M101.741 124.715C101.672 124.458 101.613 124.218 101.548 123.983C101.484 123.748 101.412 123.523 101.329 123.303C101.249 123.081 101.147 122.87 101.032 122.659C101.002 122.607 100.973 122.554 100.944 122.499C100.91 122.449 100.877 122.397 100.843 122.343C100.827 122.316 100.811 122.287 100.794 122.261C100.776 122.235 100.756 122.21 100.738 122.183C100.701 122.129 100.664 122.075 100.629 122.014C100.696 122.036 100.761 122.064 100.826 122.094C100.86 122.108 100.891 122.124 100.923 122.14C100.954 122.157 100.982 122.177 101.012 122.196C101.07 122.235 101.128 122.276 101.185 122.319C101.237 122.365 101.287 122.414 101.337 122.463C101.53 122.665 101.683 122.904 101.774 123.159C101.869 123.413 101.917 123.679 101.915 123.944C101.91 124.208 101.867 124.474 101.741 124.715ZM102.28 128.384C102.053 128.377 101.852 128.286 101.673 128.184C101.495 128.078 101.336 127.951 101.198 127.809C101.059 127.668 100.941 127.511 100.841 127.344C100.793 127.259 100.749 127.172 100.712 127.081C100.677 126.988 100.646 126.895 100.629 126.792C100.73 126.84 100.816 126.896 100.898 126.954C100.981 127.011 101.059 127.071 101.133 127.133C101.282 127.255 101.417 127.385 101.548 127.518C101.677 127.652 101.801 127.787 101.92 127.93C102.04 128.073 102.151 128.22 102.28 128.384Z" fill="white"/>
<path d="M187.783 183.51C187.787 185.532 187.714 187.48 187.571 189.356C184.78 225.93 155.493 234.998 155.193 235.09C155.192 235.09 155.192 235.091 155.19 235.091C126.489 221.663 125.284 192.517 126.21 183.907C126.409 182.054 127.874 180.527 129.844 180.13C145.654 176.932 153.328 170.306 155.893 167.61C156.416 167.061 157.355 167.091 157.83 167.676C164.239 175.582 178.621 179.061 184.732 180.222C186.441 180.547 187.779 181.899 187.783 183.51Z" fill="#5658A8"/>
<path d="M172.002 199.219H161.325V189.354H151.212V199.219H140.535V208.561H151.212V218.426H161.325V208.561H172.002V199.219Z" fill="white"/>
<path d="M187.569 189.357C184.779 225.931 155.492 235 155.191 235.091C176.883 223.416 187.568 189.355 187.568 189.355L187.569 189.357Z" fill="#4363A0"/>
<path d="M129.087 188.083L129.355 191.612C129.455 192.784 129.558 193.953 129.692 195.119C129.832 196.284 129.991 197.445 130.193 198.602C130.41 199.756 130.667 200.902 130.994 202.049C130.425 200.985 130.029 199.844 129.72 198.691C129.418 197.535 129.22 196.359 129.078 195.18C128.944 193.999 128.877 192.814 128.875 191.63C128.872 190.445 128.922 189.259 129.087 188.083Z" fill="white"/>
<path d="M231.082 220.817L210.758 234.657C205.604 238.166 198.348 237.152 194.55 232.39C193.837 231.496 193.296 230.533 192.923 229.537C191.308 225.225 192.819 220.268 197.004 217.417L217.329 203.577C222.482 200.069 229.737 201.083 233.535 205.844C235.303 208.059 236.011 210.697 235.742 213.236C235.722 213.425 235.697 213.613 235.666 213.8C235.221 216.509 233.659 219.062 231.082 220.817Z" fill="#0D3162"/>
<path d="M231.081 220.817L210.756 234.657C205.602 238.166 198.347 237.152 194.549 232.39C193.835 231.496 193.295 230.534 192.922 229.537C199.154 235.066 209.89 230.962 219.096 225.453C227.221 220.59 234.154 214.631 235.74 213.235C235.72 213.425 235.695 213.613 235.664 213.8C235.219 216.509 233.657 219.063 231.081 220.817Z" fill="#370F9C"/>
<path d="M220.919 227.738L210.758 234.657C205.604 238.166 198.348 237.152 194.55 232.39C193.837 231.497 193.296 230.534 192.923 229.537C191.308 225.225 192.819 220.268 197.004 217.418L207.166 210.498L220.919 227.738Z" fill="#6BA8BA"/>
<path d="M230.502 205.942C229.481 205.296 228.361 204.846 227.211 204.579C226.06 204.311 224.872 204.263 223.708 204.405L223.272 204.468C223.127 204.489 222.985 204.526 222.84 204.553L222.624 204.596L222.411 204.651C222.269 204.688 222.125 204.723 221.983 204.762C221.703 204.852 221.418 204.93 221.143 205.038C221.004 205.089 220.865 205.137 220.726 205.191L220.316 205.362C219.222 205.823 218.179 206.41 217.137 207.033C217.957 206.172 218.928 205.425 220.018 204.835L220.43 204.618C220.569 204.549 220.714 204.49 220.856 204.425C221.138 204.289 221.44 204.193 221.735 204.082C222.338 203.889 222.96 203.737 223.598 203.656C224.872 203.499 226.194 203.612 227.397 204.012C227.999 204.212 228.572 204.474 229.098 204.796C229.618 205.124 230.112 205.492 230.502 205.942Z" fill="white"/>
<path d="M220.918 227.737L210.756 234.657C205.602 238.166 198.347 237.151 194.549 232.39C193.835 231.496 193.295 230.533 192.922 229.536C199.154 235.066 209.89 230.962 219.096 225.453L220.918 227.737Z" fill="#4F99AA"/>
<path d="M210.591 205.79L204.228 228.364C202.614 234.088 196.285 237.519 190.09 236.028C188.927 235.748 187.851 235.315 186.881 234.757C182.688 232.347 180.485 227.616 181.795 222.967L188.158 200.393C189.771 194.671 196.101 191.24 202.295 192.73C205.177 193.424 207.525 195.062 209.046 197.191C209.16 197.349 209.268 197.51 209.372 197.673C210.872 200.037 211.398 202.929 210.591 205.79Z" fill="#0D3162"/>
<path d="M210.593 205.791L204.229 228.364C202.616 234.088 196.287 237.519 190.091 236.029C188.928 235.749 187.852 235.316 186.883 234.758C195.492 235.43 201.039 225.997 204.439 216.363C207.439 207.859 208.766 199.197 209.048 197.19C209.161 197.349 209.27 197.51 209.373 197.673C210.874 200.037 211.4 202.93 210.593 205.791Z" fill="#370F9C"/>
<path d="M207.409 217.078L204.228 228.364C202.614 234.088 196.285 237.519 190.09 236.028C188.927 235.748 187.851 235.315 186.881 234.757C182.688 232.347 180.485 227.616 181.795 222.967L184.976 211.681L207.409 217.078Z" fill="#6BA8BA"/>
<path d="M200.01 194.568C198.776 194.66 197.6 194.962 196.524 195.423C195.447 195.884 194.491 196.538 193.683 197.325L193.388 197.628C193.289 197.728 193.203 197.84 193.11 197.945L192.97 198.103L192.842 198.27C192.758 198.382 192.67 198.492 192.586 198.605C192.43 198.837 192.261 199.064 192.121 199.308C192.048 199.428 191.972 199.547 191.902 199.669L191.7 200.041C191.163 201.035 190.753 202.098 190.367 203.188C190.417 202.042 190.663 200.896 191.108 199.805L191.281 199.396C191.343 199.262 191.414 199.131 191.481 198.998C191.607 198.729 191.776 198.479 191.93 198.221C192.266 197.72 192.647 197.24 193.087 196.806C193.971 195.944 195.075 195.262 196.282 194.874C196.885 194.679 197.51 194.55 198.138 194.494C198.765 194.446 199.4 194.445 200.01 194.568Z" fill="white"/>
<path d="M207.411 217.078L204.229 228.365C202.616 234.088 196.287 237.519 190.091 236.029C188.928 235.749 187.852 235.316 186.883 234.758C195.492 235.43 201.039 225.997 204.439 216.363L207.411 217.078Z" fill="#4F99AA"/>
<path d="M206.534 80.8697C205.803 82.7879 205.398 84.8931 205.398 87.1001V95.6376C205.473 95.6296 205.549 95.6215 205.626 95.6158C205.775 95.6043 205.928 95.5985 206.081 95.5985C206.33 95.5985 206.576 95.6135 206.813 95.6463V87.1007C206.813 84.8736 207.27 82.7609 208.084 80.8703C208.698 79.4392 209.519 78.1341 210.503 77.001H208.628C207.776 78.1692 207.069 79.4697 206.534 80.8697Z" fill="#020202"/>
<path d="M211.336 99.833C211.368 100.052 211.386 100.274 211.386 100.499V101.551C211.722 102.21 211.91 102.943 211.91 103.713V107.147C211.91 108.588 211.256 109.893 210.201 110.84C209.761 111.234 209.252 111.565 208.691 111.819C208.64 111.843 208.588 111.864 208.536 111.886V112.843C208.67 112.797 208.798 112.747 208.927 112.695H208.928C211.264 111.727 212.891 109.604 212.891 107.147V103.713C212.891 102.24 212.308 100.889 211.336 99.833ZM203.796 111.948C203.469 111.823 203.157 111.671 202.864 111.496C201.296 110.561 200.261 108.961 200.261 107.147V103.713C200.261 102.947 200.445 102.219 200.779 101.562V100.499C200.779 100.388 200.782 100.278 200.79 100.168C200.798 100.058 200.811 99.9475 200.825 99.8399C199.859 100.897 199.277 102.245 199.277 103.713V107.147C199.277 109.203 200.417 111.026 202.16 112.132C202.521 112.363 202.907 112.562 203.316 112.726C203.397 112.758 203.478 112.789 203.561 112.818H203.562C203.676 112.859 203.787 112.897 203.903 112.933V111.992C203.869 111.978 203.832 111.964 203.796 111.948Z" fill="#282828"/>
<path d="M206.812 93.765C206.654 93.75 206.495 93.7396 206.333 93.7339C206.293 93.7316 206.252 93.7316 206.213 93.7304C205.936 93.7258 205.664 93.7362 205.397 93.7581C205.313 93.765 205.229 93.7742 205.145 93.7845C201.537 94.2171 198.754 97.1143 198.754 100.579V103.89C198.754 103.893 198.756 103.896 198.757 103.896H200.772C200.773 103.896 200.777 103.893 200.777 103.89V100.498C200.777 100.387 200.781 100.277 200.788 100.167C200.797 100.057 200.81 99.9465 200.824 99.8389C201.142 97.6532 203.027 95.9219 205.397 95.6378C205.472 95.6297 205.548 95.6217 205.625 95.6159C205.774 95.6044 205.927 95.5987 206.08 95.5987C206.329 95.5987 206.575 95.6136 206.812 95.6464C206.84 95.6487 206.868 95.6521 206.894 95.6556C209.2 95.9846 211.019 97.6895 211.334 99.8309V99.832C211.366 100.051 211.383 100.273 211.383 100.498V103.89C211.383 103.893 211.386 103.896 211.388 103.896H213.403C213.405 103.896 213.406 103.893 213.406 103.89V100.498C213.406 96.9935 210.51 94.1043 206.812 93.765ZM204.366 113.451L203.447 113.24L203.922 111.476L204.841 111.686C205.293 111.79 205.569 112.213 205.457 112.631L205.389 112.881C205.277 113.3 204.819 113.555 204.366 113.451ZM208.153 113.451L209.072 113.24L208.597 111.476L207.679 111.686C207.226 111.79 206.95 112.213 207.062 112.631L207.13 112.881C207.242 113.3 207.7 113.555 208.153 113.451Z" fill="#020202"/>
<path d="M265.993 153.096H259.913V147.479H254.155V153.096H248.074V158.416H254.155V164.033H259.913V158.416H265.993V153.096Z" fill="#F2B6C7"/>
<path d="M257.032 106.14H246.853V96.7363H237.214V106.14H227.035V115.046H237.214V124.449H246.853V115.046H257.032V106.14Z" fill="#F2B6C7"/>
</g>
<defs>
<clipPath id="clip0_562_4649">
<rect width="306" height="306" fill="white"/>
</clipPath>
</defs>
</svg>
