<svg width="25" height="24" viewBox="0 0 25 24" fill="none" xmlns="http://www.w3.org/2000/svg">
<path d="M19.3612 10.5001C19.3687 8.57138 18.611 6.71843 17.2542 5.3476C15.8975 3.97678 14.0524 3.19999 12.1237 3.18759H12.0675C10.1313 3.19256 8.27619 3.96517 6.90888 5.33599C5.54157 6.70681 4.77373 8.56394 4.77373 10.5001C4.77373 13.7626 4.09873 15.6095 3.52686 16.5845C3.40991 16.7851 3.3483 17.0132 3.3483 17.2454C3.3483 17.4776 3.40991 17.7057 3.52686 17.9063C3.63962 18.1075 3.80445 18.2746 4.00405 18.39C4.20365 18.5055 4.43065 18.5651 4.66123 18.5626H8.50498V18.7501C8.50498 19.6949 8.88032 20.6011 9.54842 21.2692C10.2165 21.9373 11.1227 22.3126 12.0675 22.3126C13.0123 22.3126 13.9185 21.9373 14.5866 21.2692C15.2547 20.6011 15.63 19.6949 15.63 18.7501V18.5626H19.4737C19.7043 18.5651 19.9313 18.5055 20.1309 18.39C20.3305 18.2746 20.4954 18.1075 20.6081 17.9063C20.7251 17.7057 20.7867 17.4776 20.7867 17.2454C20.7867 17.0132 20.7251 16.7851 20.6081 16.5845C20.0362 15.6095 19.3612 13.7626 19.3612 10.5001ZM14.505 18.7501C14.505 19.3966 14.2482 20.0165 13.7911 20.4737C13.3339 20.9308 12.7139 21.1876 12.0675 21.1876C11.421 21.1876 10.801 20.9308 10.3439 20.4737C9.88679 20.0165 9.62998 19.3966 9.62998 18.7501V18.5626H14.505V18.7501ZM19.6331 17.3438C19.6185 17.3733 19.5957 17.3978 19.5674 17.4145C19.5391 17.4311 19.5065 17.4392 19.4737 17.4376H4.66123C4.62843 17.4392 4.59587 17.4311 4.56756 17.4145C4.53925 17.3978 4.51642 17.3733 4.50186 17.3438C4.4854 17.3153 4.47674 17.283 4.47674 17.2501C4.47674 17.2172 4.4854 17.1848 4.50186 17.1563C5.13936 16.0595 5.89873 14.0157 5.89873 10.5001C5.8975 9.68877 6.05608 8.88515 6.36543 8.13511C6.67477 7.38507 7.12881 6.70331 7.70163 6.12875C8.27446 5.55419 8.95484 5.09808 9.70393 4.78646C10.453 4.47484 11.2562 4.31382 12.0675 4.31259H12.1144C12.9222 4.31389 13.7217 4.47529 14.4667 4.78747C15.2118 5.09965 15.8875 5.55641 16.455 6.13134C17.5998 7.2969 18.2397 8.86634 18.2362 10.5001C18.2362 14.0157 18.9956 16.0595 19.6331 17.1563C19.6496 17.1848 19.6582 17.2172 19.6582 17.2501C19.6582 17.283 19.6496 17.3153 19.6331 17.3438ZM21.0675 6.70322C20.991 6.73862 20.908 6.75777 20.8237 6.75947C20.7187 6.76131 20.6153 6.73319 20.5256 6.6784C20.436 6.62361 20.3638 6.54442 20.3175 6.45009C19.5657 4.92213 18.4036 3.63346 16.9612 2.72822C16.899 2.68825 16.8453 2.63641 16.8031 2.57565C16.7609 2.5149 16.7312 2.44642 16.7155 2.37415C16.6998 2.30187 16.6986 2.22722 16.7118 2.15445C16.725 2.08169 16.7524 2.01224 16.7925 1.95009C16.8308 1.88742 16.8812 1.83301 16.9408 1.79004C17.0004 1.74708 17.0679 1.7164 17.1395 1.69982C17.2111 1.68324 17.2852 1.68108 17.3576 1.69347C17.43 1.70585 17.4993 1.73254 17.5612 1.77197C19.1778 2.79021 20.4794 4.23787 21.3206 5.95322C21.3541 6.01891 21.3742 6.09064 21.3796 6.1642C21.385 6.23776 21.3756 6.31165 21.352 6.38153C21.3284 6.45141 21.2911 6.51587 21.2422 6.57112C21.1934 6.62636 21.134 6.67128 21.0675 6.70322ZM3.31123 6.75947C3.22697 6.75777 3.14397 6.73862 3.06748 6.70322C3.00101 6.67128 2.94159 6.62636 2.89272 6.57112C2.84386 6.51587 2.80653 6.45141 2.78295 6.38153C2.75936 6.31165 2.74999 6.23776 2.75539 6.1642C2.76078 6.09064 2.78083 6.01891 2.81436 5.95322C3.65558 4.23787 4.95718 2.79021 6.57373 1.77197C6.63572 1.73254 6.70493 1.70585 6.77734 1.69347C6.84975 1.68108 6.9239 1.68324 6.99546 1.69982C7.06703 1.7164 7.13457 1.74708 7.19415 1.79004C7.25373 1.83301 7.30416 1.88742 7.34248 1.95009C7.38256 2.01224 7.40999 2.08169 7.4232 2.15445C7.43641 2.22722 7.43514 2.30187 7.41947 2.37415C7.4038 2.44642 7.37402 2.5149 7.33186 2.57565C7.28969 2.63641 7.23596 2.68825 7.17373 2.72822C5.73137 3.63346 4.56929 4.92213 3.81748 6.45009C3.7712 6.54442 3.699 6.62361 3.60935 6.6784C3.51969 6.73319 3.41629 6.76131 3.31123 6.75947Z" fill="#151921"/>
</svg>
