<svg width="24" height="23" viewBox="0 0 24 23" fill="none" xmlns="http://www.w3.org/2000/svg">
<path d="M4 1H20C20.55 1 21.021 1.19567 21.413 1.587C21.8043 1.979 22 2.45 22 3V14C22 14.55 21.8043 15.021 21.413 15.413C21.021 15.8043 20.55 16 20 16H16V21L12 19L8 21V16H4C3.45 16 2.97933 15.8043 2.588 15.413C2.196 15.021 2 14.55 2 14V3C2 2.45 2.196 1.979 2.588 1.587C2.97933 1.19567 3.45 1 4 1ZM4 12H20V9H4V12Z" fill="#83848B"/>
<path fill-rule="evenodd" clip-rule="evenodd" d="M13.8767 14.6796C13.8767 14.8345 13.7505 14.9607 13.5956 14.9607C13.4407 14.9607 13.3145 14.8345 13.3145 14.6796C13.3145 14.5247 13.4407 14.3984 13.5956 14.3984C13.7505 14.3984 13.8767 14.5247 13.8767 14.6796Z" fill="#83848B"/>
<path fill-rule="evenodd" clip-rule="evenodd" d="M9.05818 10.4765H14.2166C14.5223 10.4765 14.8028 10.3099 14.9495 10.0415C15.0976 9.77416 15.0866 9.44656 14.9234 9.18907L13.1308 6.31973C13.0859 6.24961 13.0124 6.20136 12.9291 6.19042C12.1797 6.08945 11.7337 6.46866 11.3416 6.8016C10.9032 7.1752 10.5846 7.44475 9.87663 7.16651C9.75182 7.1163 9.60821 7.16342 9.53809 7.27954L8.34071 9.19468C8.17859 9.45413 8.16961 9.78089 8.31995 10.0482C8.46889 10.3155 8.75246 10.4799 9.05818 10.4765Z" fill="#83848B"/>
</svg>
