<svg width="250" height="250" viewBox="0 0 250 250" fill="none" xmlns="http://www.w3.org/2000/svg">
<g clip-path="url(#clip0_562_4190)">
<path d="M217.09 225.26H124.22C119.533 225.26 115.734 221.461 115.734 216.775V44.2569C115.734 39.5705 119.533 35.7715 124.22 35.7715H217.09C221.776 35.7715 225.575 39.5705 225.575 44.2569V216.775C225.575 221.461 221.776 225.26 217.09 225.26Z" fill="#2F3582"/>
<path d="M213.878 220.295H127.43C123.54 220.295 120.387 217.141 120.387 213.251V47.7799C120.387 43.8898 123.54 40.7363 127.43 40.7363H213.878C217.768 40.7363 220.921 43.8898 220.921 47.7799V213.251C220.921 217.141 217.768 220.295 213.878 220.295Z" fill="#A6CBFF"/>
<path d="M200.126 220.295L220.921 174.619V81.1172L157.559 220.295H200.126Z" fill="#B3D2FF"/>
<path d="M219.015 42.9632C217.73 41.5933 215.904 40.7363 213.878 40.7363H193.424L120.387 201.166V213.251C120.387 217.141 123.54 220.295 127.43 220.295H138.282L219.015 42.9632Z" fill="#B3D2FF"/>
<path d="M120.387 57.2747V150.776L170.484 40.7363H127.916L120.387 57.2747Z" fill="#B3D2FF"/>
<path d="M198.096 62.3887H120.387V202.576H198.096C202.964 202.576 206.912 198.629 206.912 193.76V71.2049C206.912 66.3358 202.964 62.3887 198.096 62.3887Z" fill="#94C0FF"/>
<path d="M165.626 202.576H198.096C202.964 202.576 206.912 198.629 206.912 193.76V111.891L165.626 202.576ZM146.35 202.576L206.799 69.797C206.124 65.5973 202.485 62.3887 198.096 62.3887H183.567L120.387 201.167V202.576H146.35Z" fill="#A6CBFF"/>
<path d="M213.878 220.573H127.431C123.394 220.573 120.109 217.289 120.109 213.252V47.7804C120.109 43.7434 123.394 40.459 127.431 40.459H213.878C217.915 40.459 221.2 43.7434 221.2 47.7804V213.252C221.2 217.289 217.915 220.573 213.878 220.573ZM127.431 41.0148C123.7 41.0148 120.665 44.0499 120.665 47.7805V213.252C120.665 216.982 123.7 220.017 127.431 220.017H213.878C217.609 220.017 220.644 216.982 220.644 213.252V47.7804C220.644 44.0498 217.609 41.0147 213.878 41.0147H127.431V41.0148Z" fill="white"/>
<path d="M190.143 44.2551H151.164C148.774 44.2551 146.836 42.3175 146.836 39.9274V39.0234H194.47V39.9274C194.47 42.3175 192.533 44.2551 190.143 44.2551Z" fill="#2F3582"/>
<path d="M190.146 44.532H151.167C148.956 44.532 147.053 42.9577 146.642 40.7886C146.613 40.6378 146.712 40.4924 146.863 40.4639C147.014 40.4353 147.159 40.5344 147.188 40.6852C147.549 42.5922 149.222 43.9763 151.167 43.9763H190.146C192.096 43.9763 193.771 42.5868 194.127 40.6724C194.155 40.5216 194.299 40.4219 194.451 40.4501C194.602 40.4781 194.701 40.6232 194.673 40.7741C194.268 42.9515 192.364 44.532 190.146 44.532Z" fill="white"/>
<path d="M202.313 197.334H33.8358C28.9667 197.334 25.0195 193.386 25.0195 188.517V65.9627C25.0195 61.0936 28.9667 57.1465 33.8358 57.1465H202.313C207.182 57.1465 211.129 61.0936 211.129 65.9627V188.517C211.129 193.386 207.182 197.334 202.313 197.334Z" fill="white"/>
<path d="M109.38 57.743H102.099C101.769 57.743 101.502 57.4758 101.502 57.1459C101.502 56.8161 101.769 56.5488 102.099 56.5488H109.38C109.71 56.5488 109.977 56.8161 109.977 57.1459C109.977 57.4758 109.71 57.743 109.38 57.743ZM86.7654 57.743H77.7777C77.4479 57.743 77.1806 57.4758 77.1806 57.1459C77.1806 56.8161 77.4479 56.5488 77.7777 56.5488H86.7654C87.0953 56.5488 87.3625 56.8161 87.3625 57.1459C87.3625 57.4758 87.0953 57.743 86.7654 57.743ZM62.6332 57.743H53.9993C53.6695 57.743 53.4022 57.4758 53.4022 57.1459C53.4022 56.8161 53.6695 56.5488 53.9993 56.5488H62.6332C62.963 56.5488 63.2303 56.8161 63.2303 57.1459C63.2303 57.4758 62.963 57.743 62.6332 57.743ZM59.7316 197.93H33.8352C28.6447 197.93 24.4219 193.707 24.4219 188.517V65.962C24.4219 60.7716 28.6447 56.5488 33.8352 56.5488H39.0672C39.3969 56.5488 39.6643 56.8161 39.6643 57.1459C39.6643 57.4758 39.3969 57.743 39.0672 57.743H33.8352C29.3032 57.743 25.6161 61.43 25.6161 65.962V188.517C25.6161 193.049 29.3032 196.736 33.8352 196.736H59.7316C60.0615 196.736 60.3288 197.003 60.3288 197.333C60.3287 197.663 60.0614 197.93 59.7316 197.93Z" fill="#E3F0FF"/>
<path d="M74.7203 148.099C73.2179 152.024 66.6805 184.455 64.1133 197.332H189.797C187.015 186.995 180.739 164.158 177.075 154.648C172.266 142.165 156.816 137.663 148.938 136.985C141.06 136.306 136.491 133.658 136.491 133.658L136.695 130.092C141.358 126.482 141.216 119.963 141.216 119.963C144.611 118.53 147.643 111.266 147.847 108.708C148.052 106.15 146.068 103.14 146.068 103.14C149.097 92.5593 143.311 81.5941 141.724 80.1617C140.136 78.7294 137.097 78.2142 137.097 78.2142C137.097 78.2142 134.409 72.6025 125.054 72.024C115.698 71.4456 107.807 75.365 103.488 78.8437C99.1679 82.3224 100.562 89.7435 100.562 89.7435C100.069 91.8561 100.338 104.126 100.338 104.126C99.2129 104.968 99.6219 109.629 100.441 113.217C101.259 116.806 104.799 120.769 104.799 120.769C105.482 124.931 109.378 130.092 109.378 130.092L109.835 133.658C109.835 133.658 109.835 133.658 106.35 134.24C93.9447 136.75 76.6011 143.188 74.7203 148.099Z" fill="#EDEDED"/>
<path d="M59.9068 116.727H37.6572C35.9071 116.727 34.4883 115.309 34.4883 113.559V95.3564C34.4883 93.6063 35.9071 92.1875 37.6572 92.1875H59.9068C61.657 92.1875 63.0758 93.6063 63.0758 95.3564V113.559C63.0758 115.309 61.657 116.727 59.9068 116.727ZM94.757 116.727H72.5074C70.7572 116.727 69.3384 115.309 69.3384 113.559V95.3564C69.3384 93.6063 70.7572 92.1875 72.5074 92.1875H94.757C96.5072 92.1875 97.9259 93.6063 97.9259 95.3564V113.559C97.9259 115.309 96.5071 116.727 94.757 116.727Z" fill="#C0DDFF"/>
<path d="M129.606 116.727H107.356C105.606 116.727 104.188 115.309 104.188 113.559V95.3564C104.188 93.6063 105.606 92.1875 107.356 92.1875H129.606C131.356 92.1875 132.775 93.6063 132.775 95.3564V113.559C132.775 115.309 131.356 116.727 129.606 116.727Z" fill="#A6CFFF"/>
<path d="M59.9068 152.491H37.6572C35.9071 152.491 34.4883 151.072 34.4883 149.322V131.12C34.4883 129.37 35.9071 127.951 37.6572 127.951H59.9068C61.657 127.951 63.0758 129.37 63.0758 131.12V149.322C63.0758 151.072 61.657 152.491 59.9068 152.491ZM59.9068 188.254H37.6572C35.9071 188.254 34.4883 186.835 34.4883 185.085V166.883C34.4883 165.133 35.9071 163.714 37.6572 163.714H59.9068C61.657 163.714 63.0758 165.133 63.0758 166.883V185.085C63.0758 186.835 61.657 188.254 59.9068 188.254Z" fill="#C0DDFF"/>
<path d="M129.606 188.253H107.356C105.606 188.253 104.188 186.834 104.188 185.084V166.882C104.188 165.132 105.606 163.713 107.356 163.713H129.606C131.356 163.713 132.775 165.132 132.775 166.882V185.084C132.775 186.834 131.356 188.253 129.606 188.253ZM164.456 188.253H142.207C140.457 188.253 139.038 186.834 139.038 185.084V166.882C139.038 165.132 140.456 163.713 142.207 163.713H164.456C166.206 163.713 167.625 165.132 167.625 166.882V185.084C167.625 186.834 166.206 188.253 164.456 188.253Z" fill="#A6CFFF"/>
<path d="M199.307 116.726H177.058C175.308 116.726 173.889 115.308 173.889 113.557V95.3554C173.889 93.6052 175.308 92.1864 177.058 92.1864H199.307C201.057 92.1864 202.476 93.6052 202.476 95.3554V113.557C202.476 115.308 201.057 116.726 199.307 116.726ZM134.546 85.3756H37.0417C35.6315 85.3756 34.4883 84.2324 34.4883 82.8221V74.5202C34.4883 73.11 35.6315 71.9668 37.0417 71.9668H134.546C135.956 71.9668 137.099 73.11 137.099 74.5202V82.8221C137.099 84.2324 135.956 85.3756 134.546 85.3756Z" fill="#C0DDFF"/>
<path d="M134.546 85.3756C135.957 85.3756 137.1 84.2323 137.1 82.8221V78.2141C137.098 78.211 134.41 72.6023 125.057 72.024C115.702 71.4456 107.81 75.365 103.491 78.8437C101.4 80.5273 100.649 83.1332 100.43 85.3757H134.546V85.3756Z" fill="#A6CFFF"/>
<path d="M94.7584 152.491H72.5088C70.7586 152.491 69.3398 151.072 69.3398 149.322V131.12C69.3398 129.37 70.7586 127.951 72.5088 127.951H94.7584C96.5086 127.951 97.9273 129.37 97.9273 131.12V149.322C97.9273 151.072 96.5085 152.491 94.7584 152.491Z" fill="#C0DDFF"/>
<path d="M94.7562 152.489C96.5067 152.489 97.9253 151.071 97.9253 149.321V136.334C87.2428 139.432 76.2014 144.237 74.7225 148.099C74.4611 148.783 74.0463 150.332 73.5273 152.489H94.7562Z" fill="#A6CFFF"/>
<path d="M129.606 152.491H107.356C105.606 152.491 104.188 151.072 104.188 149.322V131.12C104.188 129.37 105.606 127.951 107.356 127.951H129.606C131.356 127.951 132.775 129.37 132.775 131.12V149.322C132.775 151.072 131.356 152.491 129.606 152.491Z" fill="#C0DDFF"/>
<path d="M107.357 152.491H129.606C131.356 152.491 132.775 151.072 132.775 149.322V131.12C132.775 129.37 131.356 127.951 129.606 127.951H107.927C108.736 129.242 109.379 130.093 109.379 130.093L109.837 133.66C109.837 133.66 109.837 133.66 106.352 134.241C105.646 134.384 104.922 134.541 104.188 134.709V149.322C104.188 151.072 105.606 152.491 107.357 152.491Z" fill="#A6CFFF"/>
<path d="M164.458 152.491H142.208C140.458 152.491 139.039 151.072 139.039 149.322V131.12C139.039 129.37 140.458 127.951 142.208 127.951H164.458C166.208 127.951 167.627 129.37 167.627 131.12V149.322C167.627 151.072 166.208 152.491 164.458 152.491Z" fill="#C0DDFF"/>
<path d="M142.208 152.49H164.457C166.208 152.49 167.626 151.071 167.626 149.321V143.412C161.329 139.231 153.735 137.398 148.941 136.985C144.528 136.605 141.154 135.607 139.039 134.803V149.321C139.039 151.071 140.458 152.49 142.208 152.49Z" fill="#A6CFFF"/>
<path d="M164.458 116.727H142.208C140.458 116.727 139.039 115.309 139.039 113.559V95.3564C139.039 93.6063 140.458 92.1875 142.208 92.1875H164.458C166.208 92.1875 167.627 93.6063 167.627 95.3564V113.559C167.627 115.309 166.208 116.727 164.458 116.727Z" fill="#C0DDFF"/>
<path d="M139.039 95.3564V113.559C139.039 115.309 140.458 116.727 142.208 116.727H144.57C146.402 113.987 147.718 110.364 147.851 108.709C148.055 106.151 146.071 103.141 146.071 103.141C147.145 99.3904 147.108 95.5933 146.546 92.1875H142.208C140.458 92.1876 139.039 93.6064 139.039 95.3564Z" fill="#A6CFFF"/>
<path d="M199.305 188.253H177.056C175.305 188.253 173.887 186.834 173.887 185.084V166.882C173.887 165.132 175.305 163.713 177.056 163.713H199.305C201.055 163.713 202.474 165.132 202.474 166.882V185.084C202.474 186.834 201.055 188.253 199.305 188.253Z" fill="#C0DDFF"/>
<path d="M180.166 163.713H177.055C175.305 163.713 173.887 165.132 173.887 166.882V185.084C173.887 186.834 175.305 188.253 177.055 188.253H187.321C185.203 180.592 182.537 171.222 180.166 163.713Z" fill="#A6CFFF"/>
<path d="M94.7584 188.255H72.5088C70.7586 188.255 69.3398 186.836 69.3398 185.086V166.884C69.3398 165.134 70.7586 163.715 72.5088 163.715H94.7584C96.5086 163.715 97.9273 165.134 97.9273 166.884V185.086C97.9273 186.836 96.5085 188.255 94.7584 188.255Z" fill="#C0DDFF"/>
<path d="M72.5086 188.255H94.7581C96.5086 188.255 97.9272 186.836 97.9272 185.086V166.884C97.9272 165.134 96.5086 163.715 94.7581 163.715H72.5086C71.9317 163.715 71.3921 163.872 70.926 164.141C70.4121 166.543 69.8776 169.079 69.3398 171.658V185.086C69.3399 186.836 70.7585 188.255 72.5086 188.255Z" fill="#A6CFFF"/>
<path d="M199.305 152.491H177.056C175.305 152.491 173.887 151.072 173.887 149.322V131.12C173.887 129.37 175.305 127.951 177.056 127.951H199.305C201.055 127.951 202.474 129.37 202.474 131.12V149.322C202.474 151.072 201.055 152.491 199.305 152.491Z" fill="#C0DDFF"/>
<path d="M176 152.308C175.386 151.157 174.673 150.087 173.887 149.088V149.323C173.887 150.703 174.77 151.873 176 152.308Z" fill="#A6CFFF"/>
<path d="M46.1851 64.3308C43.6774 64.3308 41.6445 62.2979 41.6445 59.7902V54.5034C41.6445 51.9958 43.6774 49.9629 46.1851 49.9629C48.6928 49.9629 50.7256 51.9958 50.7256 54.5034V59.7902C50.7256 62.2979 48.6928 64.3308 46.1851 64.3308ZM70.1839 64.3308C67.6763 64.3308 65.6434 62.2979 65.6434 59.7902V54.5034C65.6434 51.9958 67.6763 49.9629 70.1839 49.9629C72.6916 49.9629 74.7245 51.9958 74.7245 54.5034V59.7902C74.7245 62.2979 72.6916 64.3308 70.1839 64.3308ZM94.1828 64.3308C91.6751 64.3308 89.6423 62.2979 89.6423 59.7902V54.5034C89.6423 51.9958 91.6751 49.9629 94.1828 49.9629C96.6905 49.9629 98.7234 51.9958 98.7234 54.5034V59.7902C98.7233 62.2979 96.6905 64.3308 94.1828 64.3308ZM118.182 64.3308C115.674 64.3308 113.641 62.2979 113.641 59.7902V54.5034C113.641 51.9958 115.674 49.9629 118.182 49.9629C120.689 49.9629 122.722 51.9958 122.722 54.5034V59.7902C122.722 62.2979 120.689 64.3308 118.182 64.3308ZM142.181 64.3308C139.673 64.3308 137.64 62.2979 137.64 59.7902V54.5034C137.64 51.9958 139.673 49.9629 142.181 49.9629C144.688 49.9629 146.721 51.9958 146.721 54.5034V59.7902C146.721 62.2979 144.688 64.3308 142.181 64.3308ZM166.179 64.3308C163.672 64.3308 161.639 62.2979 161.639 59.7902V54.5034C161.639 51.9958 163.672 49.9629 166.179 49.9629C168.687 49.9629 170.72 51.9958 170.72 54.5034V59.7902C170.72 62.2979 168.687 64.3308 166.179 64.3308ZM190.178 64.3308C187.671 64.3308 185.638 62.2979 185.638 59.7902V54.5034C185.638 51.9958 187.671 49.9629 190.178 49.9629C192.686 49.9629 194.719 51.9958 194.719 54.5034V59.7902C194.719 62.2979 192.686 64.3308 190.178 64.3308Z" fill="#C0DDFF"/>
<path d="M145.837 159.328C144.445 152.329 148.99 145.527 155.989 144.135C162.987 142.744 169.789 147.289 171.181 154.287C171.236 154.567 171.282 154.846 171.318 155.125L185.161 208.986C186.059 213.501 183.127 217.889 178.611 218.787C174.096 219.685 169.708 216.753 168.81 212.238L146.868 162.42C146.405 161.458 146.054 160.423 145.837 159.328Z" fill="#F6AF9A"/>
<path d="M168.263 146.511C168.263 146.511 171.428 149.088 174.807 162.86C178.186 176.632 186.096 199.563 186.786 206.624C187.476 213.684 184.2 220.804 178.107 221.115C172.015 221.426 165.234 213.642 159.325 200.518C153.416 187.393 143.057 162.291 143.321 155.263C143.586 148.234 153.28 135.704 168.263 146.511Z" fill="white"/>
<path d="M172.637 201.937C167.418 201.665 170.563 195.399 169.927 184.484C169.373 174.978 165.934 159.078 165.934 159.078L149.515 175.863C149.449 176.058 149.387 176.254 149.328 176.449C152.564 185.006 156.466 194.164 159.326 200.516C162.089 206.652 165.042 211.621 168.027 215.141C168.148 215.147 168.27 215.153 168.393 215.156C172.343 209.407 175.875 202.106 172.637 201.937Z" fill="#D4E8FC"/>
<path d="M103.404 158.167C104.243 151.081 99.1783 144.656 92.092 143.817C85.0059 142.978 78.5813 148.043 77.7424 155.129C77.7089 155.412 77.6858 155.694 77.6709 155.974L72.9024 212.377C72.3611 216.948 75.6285 221.093 80.2002 221.634C84.7719 222.176 88.9168 218.908 89.458 214.337L102.618 161.33C103.004 160.335 103.272 159.276 103.404 158.167Z" fill="#F6AF9A"/>
<path d="M96.3557 199.485C93.4067 210.773 89.3077 218.696 84.6342 221.67C83.5418 222.366 82.4179 222.791 81.2699 222.925C79.5615 223.125 77.9828 222.753 76.5864 221.958C73.0312 219.935 70.6531 215.165 70.2966 210.083C69.8004 203.006 73.7758 179.077 74.8119 164.935C75.8481 150.792 79.4119 149.162 79.4119 149.162C92.3828 136.009 103.158 145.308 104.591 152.195C106.024 159.081 99.9943 185.559 96.3557 199.485Z" fill="white"/>
<path d="M89.7323 197.091C89.702 198.131 89.5179 199.138 89.1967 200.091C88.8297 201.183 88.2828 202.205 87.584 203.123C87.2386 203.577 86.8568 204.005 86.4403 204.404C86.4391 204.406 86.4372 204.407 86.436 204.408C85.891 204.93 85.2886 205.402 84.6349 205.814V221.67C83.5425 222.365 82.4186 222.79 81.2706 222.924C79.5622 223.124 77.9835 222.753 76.5871 221.957C76.5822 221.408 76.5779 220.858 76.5748 220.307C76.5303 213.329 76.6088 206.272 76.7707 199.872C76.7886 199.162 76.8078 198.461 76.8275 197.768C76.8288 197.719 76.8306 197.67 76.8319 197.622C77.1074 190.937 78.3994 181.451 79.9293 172.024C80.5218 168.374 81.1495 164.732 81.768 161.266C81.7686 161.26 81.7699 161.256 81.7705 161.252C81.8293 160.924 81.8873 160.598 81.9454 160.275C82.9068 154.92 83.8342 150.032 84.5565 146.239C84.5571 146.235 84.5583 146.231 84.5583 146.227C84.5694 146.171 84.5799 146.116 84.5904 146.06C84.6102 145.959 84.6288 145.859 84.6479 145.76L84.6584 145.981C84.6584 145.985 84.6602 146.03 84.6645 146.113V146.119C84.756 148.08 85.7872 170.203 85.7915 170.31C85.4721 172.012 85.4381 173.758 85.5889 175.526C85.9306 179.521 87.2145 183.62 88.268 187.557C89.1651 190.91 89.8942 194.142 89.7323 197.091Z" fill="#D4E8FC"/>
<path d="M88.7378 207.537C88.723 210.982 88.4579 214.546 88.0156 218.127C87.9958 218.29 87.9754 218.453 87.9544 218.615C87.3174 223.598 86.3442 228.604 85.2333 233.361C85.2327 233.365 85.2315 233.368 85.2309 233.371C85.035 234.21 84.8348 235.041 84.6316 235.862C84.6112 235.945 84.5908 236.027 84.5698 236.11H71.8534C71.5952 229.772 71.6323 222.122 71.7793 216.204C72.2414 208.88 71.2751 205.334 73.7491 202.34C74.4417 201.501 75.4049 200.706 76.7451 199.883L76.7673 199.872C78.4924 199.007 80.3448 198.84 82.0649 199.212C83.7183 199.57 85.25 200.425 86.4289 201.637C86.4301 201.639 86.4313 201.64 86.4326 201.641C86.8676 202.089 87.2537 202.585 87.5806 203.122C88.3535 204.395 88.7903 205.898 88.7378 207.537Z" fill="#F6AF9A"/>
<path d="M91.7345 211.24C91.5788 211.971 91.4144 212.727 91.2426 213.502C89.6424 220.726 87.4255 229.636 85.9389 236.11H69.9714C70.0776 228.989 68.9939 218.674 70.3106 210.273C70.9068 206.47 71.9943 203.061 73.9053 200.516C74.7203 199.43 75.6854 198.502 76.8266 197.768C78.278 196.833 80.0141 196.212 82.0884 195.981C83.6831 196.1 85.1159 196.617 86.3634 197.418C86.3646 197.418 86.3658 197.419 86.3665 197.42C87.4551 198.119 88.4036 199.034 89.1957 200.091C90.3777 201.667 91.2124 203.558 91.6493 205.513C92.0799 207.439 92.1244 209.427 91.7345 211.24Z" fill="white"/>
<path d="M89.1967 200.091C88.8297 201.182 88.2828 202.204 87.584 203.122C87.2386 203.576 86.8568 204.004 86.4403 204.403C86.4391 204.405 86.4372 204.406 86.436 204.408C85.891 204.93 85.2886 205.401 84.6349 205.814V236.11H76.9183C76.7373 231.628 76.6316 226.826 76.5871 221.957C76.5822 221.408 76.5779 220.857 76.5748 220.306C76.5303 213.328 76.6088 206.272 76.7707 199.872C76.7886 199.162 76.8078 198.46 76.8275 197.767C78.2789 196.833 80.0151 196.212 82.0893 195.98C83.684 196.1 85.1169 196.617 86.3643 197.418C86.3655 197.418 86.3668 197.419 86.3674 197.419C87.4561 198.119 88.4045 199.034 89.1967 200.091Z" fill="#D4E8FC"/>
<path d="M153.879 204.807C156.326 197.254 157.966 180.61 157.966 180.61C157.966 180.61 151.056 176.821 122.758 176.821C94.6598 176.781 87.3173 180.631 87.451 180.61C87.451 180.61 89.0911 197.254 91.538 204.807C93.9848 212.36 90.8019 217.901 90.0572 223.007C87.5886 235.82 157.84 235.818 155.36 223.006C154.615 217.901 151.433 212.36 153.879 204.807Z" fill="#F6AF9A"/>
<path d="M105.948 138.84C99.3633 141.844 88.1627 143.995 86.2477 144.846C84.3328 145.697 75.9474 152.883 88.5008 183.203C97.6943 202.319 114.815 193.034 127.108 194.771C145.554 197.444 151.356 194.27 156.791 183.203C169.344 152.883 162.429 144.798 160.514 143.947C158.599 143.096 145.82 142.071 139.344 138.84C127.022 133.678 118.517 134.33 105.948 138.84Z" fill="#F6AF9A"/>
<path d="M133.034 136.205C133.125 149.228 112.745 149.099 112.773 136.196C112.955 134.73 113.168 119.223 114.943 118.402C117.794 111.511 128.137 111.461 131.023 118.402C132.802 119.424 132.9 133.112 133.034 136.205Z" fill="#F6AF9A"/>
<path d="M132.866 132.173C125.795 138.395 120.4 137.808 113.066 131.899C113.213 128.086 113.347 119.816 114.942 118.402C117.793 111.51 128.137 111.462 131.021 118.402C132.72 120.221 132.728 127.885 132.866 132.173Z" fill="#EA9A88"/>
<path d="M122.895 78.227C122.895 78.227 145.327 76.7356 142.22 104.45C139.113 132.165 124.821 133.532 122.895 133.657C120.968 133.532 106.676 132.165 103.569 104.45C100.462 76.7356 122.895 78.227 122.895 78.227Z" fill="#F6AF9A"/>
<path d="M129.03 109.319C129.942 109.319 130.681 108.438 130.681 107.351C130.681 106.264 129.942 105.383 129.03 105.383C128.118 105.383 127.379 106.264 127.379 107.351C127.379 108.438 128.118 109.319 129.03 109.319Z" fill="#121D3F"/>
<path d="M116.077 109.319C116.989 109.319 117.728 108.438 117.728 107.351C117.728 106.264 116.989 105.383 116.077 105.383C115.165 105.383 114.426 106.264 114.426 107.351C114.426 108.438 115.165 109.319 116.077 109.319Z" fill="#121D3F"/>
<path d="M119.267 102.339C119.267 102.339 120.113 102.36 120.138 102.968C120.166 103.643 120.236 103.972 119.833 104.1C119.429 104.229 115.581 103.826 113.484 103.746C111.363 103.666 110.429 103.753 110.306 103.531C110.184 103.308 112.051 102.296 114.197 102.266C116.696 102.232 116.64 102.217 119.267 102.339ZM125.326 102.274C125.326 102.274 124.48 102.282 124.445 102.89C124.406 103.564 124.331 103.892 124.732 104.027C125.134 104.162 128.988 103.821 131.085 103.775C133.208 103.728 134.14 103.831 134.266 103.61C134.392 103.39 132.541 102.347 130.397 102.283C127.898 102.209 127.955 102.195 125.326 102.274Z" fill="#8C4949"/>
<path d="M110.633 112.809C110.633 112.809 111.291 111.163 114.838 111.212C117.721 111.252 119.891 111.721 119.864 113.741C120.055 116.36 109.112 116.861 110.633 112.809ZM125.204 112.809C125.204 112.809 125.861 111.163 129.409 111.212C132.292 111.252 134.461 111.721 134.435 113.741C134.626 116.36 123.683 116.861 125.204 112.809Z" fill="#EA9A88"/>
<path d="M123.818 116.084C123.793 115.795 123.533 115.581 123.249 115.607C122.554 115.668 121.252 115.67 120.712 115.417C120.699 115.411 120.689 115.406 120.681 115.402C120.687 115.273 120.785 114.968 120.872 114.697C120.915 114.565 120.962 114.42 121.01 114.263C121.103 113.958 121.193 113.66 121.278 113.373C121.283 113.353 121.289 113.335 121.294 113.316C122.622 108.803 122.875 106.528 122.885 106.427C122.916 106.138 122.707 105.88 122.419 105.849C122.132 105.818 121.871 106.027 121.841 106.315C121.838 106.34 121.559 108.816 120.102 113.637C120.099 113.649 120.095 113.662 120.091 113.674C120.064 113.767 120.035 113.861 120.005 113.955C119.959 114.107 119.914 114.246 119.873 114.374C119.624 115.146 119.365 115.945 120.266 116.369C120.83 116.633 121.703 116.693 122.379 116.693C122.867 116.693 123.252 116.661 123.342 116.653C123.631 116.628 123.844 116.373 123.818 116.084Z" fill="#E57E73"/>
<path d="M139.572 107.394C139.572 107.394 141.396 104.233 143.86 105.023C145.974 105.701 145.186 113.674 141.48 117.329C137.568 121.187 137.755 111.945 139.572 107.394Z" fill="#F6AF9A"/>
<path d="M143.279 107.841C143.219 107.641 143.008 107.528 142.809 107.588C140.554 108.267 140.198 113.641 140.165 114.252C140.153 114.46 140.313 114.638 140.521 114.649C140.528 114.65 140.535 114.65 140.542 114.65C140.741 114.65 140.908 114.494 140.919 114.293C140.947 113.778 141.009 113.18 141.105 112.565C141.433 112.062 142.08 111.276 142.54 111.155C142.742 111.102 142.862 110.895 142.809 110.693C142.756 110.492 142.549 110.371 142.348 110.424C142.029 110.508 141.711 110.733 141.429 110.996C141.778 109.666 142.306 108.529 143.027 108.312C143.226 108.252 143.339 108.041 143.279 107.841Z" fill="#E57E73"/>
<path d="M106.681 107.394C106.681 107.394 104.857 104.233 102.392 105.023C100.279 105.701 101.066 113.674 104.772 117.329C108.684 121.187 108.497 111.945 106.681 107.394Z" fill="#F6AF9A"/>
<path d="M105.865 114.752C105.832 114.141 105.475 108.767 103.221 108.088C103.022 108.028 102.811 108.141 102.751 108.341C102.69 108.541 102.803 108.752 103.003 108.812C103.723 109.029 104.251 110.166 104.601 111.496C104.318 111.233 104.001 111.008 103.682 110.924C103.481 110.871 103.274 110.992 103.221 111.193C103.168 111.395 103.288 111.602 103.49 111.655C103.949 111.776 104.596 112.562 104.924 113.065C105.021 113.68 105.083 114.278 105.111 114.793C105.122 114.994 105.288 115.15 105.488 115.15C105.495 115.15 105.502 115.15 105.509 115.149C105.717 115.138 105.876 114.96 105.865 114.752Z" fill="#E57E73"/>
<path d="M106.039 109.17C106.039 109.17 107.022 113.524 107.546 117.121C108.071 120.719 107.515 121.877 108.081 123.338C108.647 124.799 112.38 134.236 122.718 134.236C133.057 134.236 136.889 125.712 137.71 123.338C138.222 121.857 137.748 120.679 138.273 117.081C138.797 113.483 139.458 109.719 139.458 109.719L137.966 109.614C137.966 109.614 136.321 115.219 133.908 117.348C131.496 119.477 126.883 117.703 122.129 117.703C117.375 117.703 113.373 118.992 110.492 116.408C107.975 114.259 107.736 110.586 107.43 109.58L106.039 109.17Z" fill="#8C4949"/>
<path d="M122.31 119.275C118.519 119.275 115.445 120.841 115.445 122.772C115.445 123.993 116.675 125.068 118.538 125.693C118.802 125.782 119.085 125.786 119.354 125.714C120.675 125.358 121.127 124.397 121.281 123.757C121.368 123.395 121.702 123.147 122.075 123.147H122.546C122.918 123.147 123.252 123.395 123.34 123.757C123.494 124.397 123.946 125.358 125.266 125.714C125.535 125.786 125.818 125.782 126.083 125.693C127.945 125.068 129.175 123.993 129.175 122.772C129.175 120.841 126.101 119.275 122.31 119.275Z" fill="#F6AF9A"/>
<path d="M120.641 122.143C119.36 122.017 118.458 121.769 118.38 121.747C118.163 121.686 118.036 121.461 118.097 121.244C118.159 121.026 118.384 120.9 118.601 120.961C118.64 120.972 122.498 122.028 125.603 120.796C125.812 120.713 126.05 120.816 126.133 121.025C126.216 121.235 126.114 121.473 125.904 121.556C124.101 122.271 122.118 122.288 120.641 122.143Z" fill="#E57E73"/>
<path d="M102.307 105.057C102.307 105.057 101.455 96.3241 103.253 89.2282C101.501 84.9516 108.669 76.6885 120.709 75.9821C130.304 75.6226 134.527 77.8642 135.605 78.5674C136.117 78.7856 136.143 80.2952 136.32 80.7131C136.841 80.3753 137.638 79.548 138.247 80.2037C144.841 85.217 143.329 101.101 142.92 104.897C142.92 104.897 140.684 104.68 138.919 111.571L137.709 111.109C137.709 111.109 139.949 100.085 137.709 94.1953C134.653 93.5878 134.461 93.8908 134.258 90.2571L133.033 91.2064C131.629 92.6501 129.36 89.3926 125.215 90.4346C121.49 91.286 119.251 93.2019 113.594 92.989C109.366 92.8471 108.788 93.3438 108.788 93.3438C105.513 96.8138 106.285 106.14 107.429 109.631L106.038 109.221C105.696 108.179 105.765 104.829 102.307 105.057Z" fill="#8C4949"/>
<path d="M103.254 89.2285C105.072 90.6626 106.834 92.1058 108.789 93.3442C106.461 92.9257 104.409 91.26 103.254 89.2285Z" fill="#7A4040"/>
<path d="M163.464 146.074C163.248 165.376 157.781 184.543 157.205 203.859C157.134 206.261 157.144 208.69 157.26 211.072C157.137 214.901 157.33 218.727 157.724 222.514C158.198 227.077 158.966 231.601 159.832 236.109H85.0638C85.3943 230.811 85.7281 225.508 85.9845 220.167C86.5073 209.26 86.7126 198.293 85.8479 187.398C85.511 183.012 84.9564 178.695 84.247 174.394C82.9939 166.243 78.3523 153.635 84.5787 146.2C85.273 145.499 86.1034 145.106 87.0095 144.577C87.274 144.382 87.5465 144.196 87.8282 144.02C90.8779 142.12 94.6097 141.278 98.0767 140.561C102.536 139.435 107.088 138.129 111.493 136.816C112.559 150.275 133.323 149.883 134.706 136.983C139.372 138.344 144.157 139.658 148.915 140.71C151.689 141.462 154.829 141.573 157.625 142.301C159.948 142.885 162.148 143.986 163.464 146.074Z" fill="#5274C7"/>
<path d="M161.99 144.362C160.722 143.296 159.157 142.699 157.548 142.299C155.344 141.75 153.075 141.568 150.901 141.116C146.96 140.35 143.072 139.321 139.2 138.263C140.727 151.988 141.168 165.667 141.357 179.646C141.36 179.904 141.364 180.161 141.366 180.419C141.368 180.524 141.37 180.63 141.37 180.735C141.594 199.186 141.285 217.676 141.991 236.109H159.833C158.966 231.601 158.199 227.077 157.724 222.514C157.33 218.727 157.138 214.901 157.26 211.072C157.145 208.69 157.134 206.262 157.205 203.859C157.781 184.544 163.249 165.375 163.464 146.074C163.049 145.398 162.551 144.835 161.99 144.362ZM106.356 138.317C105.465 144.932 104.919 151.903 104.604 158.749C103.412 184.444 105.12 210.562 103.378 236.109H85.0633C85.3906 230.804 85.7272 225.496 85.9845 220.167C86.5135 209.257 86.7161 198.297 85.848 187.398C85.5078 183.037 84.9557 178.707 84.247 174.394C83.0459 166.247 77.5135 150.922 86.1247 144.906C86.5517 144.623 86.9854 144.361 87.426 144.114C88.4051 143.565 89.4178 143.098 90.4572 142.686C95.5782 140.67 101.152 140.074 106.356 138.317ZM110.932 138.04C109.248 140.424 108.013 147.086 108.453 156.484C108.656 160.836 108.758 164.096 108.772 166.688C108.773 166.831 108.774 166.972 108.774 167.111C108.774 167.411 108.532 167.654 108.231 167.655C107.931 167.655 107.688 167.412 107.688 167.112C107.688 166.958 107.687 166.802 107.686 166.644C107.671 164.076 107.569 160.845 107.367 156.535C107.166 152.224 106.793 141.929 110.121 137.306C110.147 137.271 110.172 137.236 110.198 137.201C111.009 136.962 111.493 136.816 111.493 136.816C111.494 136.845 111.496 136.874 111.497 136.902C111.504 137.029 111.513 137.154 111.526 137.278C111.328 137.507 111.129 137.76 110.932 138.04Z" fill="#405FAD"/>
<path d="M112.857 194.372C112.371 194.385 112.118 193.726 112.504 193.416C118.79 187.894 117.284 169.484 108.181 167.658C103.993 168.351 100.648 173.142 99.7242 178.402C98.3221 184.523 100.715 190.601 103.19 193.464C103.391 193.685 103.375 194.029 103.153 194.23C102.931 194.432 102.588 194.416 102.386 194.194C96.538 188.163 96.9926 173.365 104.19 168.287C108.034 165.909 108.59 165.967 112.44 168.737C119.18 174.231 118.874 190.2 112.857 194.372ZM143.06 199.556C142.847 205.732 142.031 210.097 142.023 210.14C141.97 210.426 141.688 210.612 141.41 210.557C141.126 210.503 140.939 210.23 140.993 209.945C141.001 209.902 141.805 205.6 142.013 199.5C142.206 193.883 141.917 185.548 139.456 177.738C137.925 172.879 137.609 170.088 138.277 155.786C138.541 145.858 137.373 140.509 134.694 137.411C134.702 137.269 134.706 137.127 134.706 136.982C134.886 137.036 135.289 137.154 136.04 137.372C137.391 139.043 138.11 142.44 138.739 145.04C139.438 148.028 139.519 151.676 139.324 155.835C138.664 169.969 138.969 172.706 140.456 177.423C142.964 185.382 143.256 193.852 143.06 199.556Z" fill="#405FAD"/>
<path d="M122.973 149.605C117.498 149.605 112.389 146.465 109.885 141.532C109.782 141.329 109.863 141.081 110.066 140.978C110.268 140.875 110.517 140.956 110.62 141.159C113.033 145.913 118.006 148.904 123.296 148.776C128.432 148.653 133.054 145.695 135.358 141.057C135.46 140.853 135.707 140.77 135.911 140.871C136.115 140.973 136.198 141.22 136.097 141.424C133.656 146.337 128.758 149.47 123.315 149.601C123.201 149.603 123.087 149.605 122.973 149.605Z" fill="#405FAD"/>
<path d="M104.271 138.682C101.893 150.319 102.201 162.647 102.109 174.542C101.915 195.019 101.367 215.632 100.785 236.109H80.6596C81.3719 222.853 82.0468 209.279 82.0869 195.979C82.0887 195.171 82.0881 194.365 82.0856 193.561C83.0802 180.048 78.7858 155.661 80.5526 151.591C81.6254 148.846 83.709 146.258 86.0511 144.541C91.0445 141.235 95.8285 139.9 104.271 138.682ZM165.963 159.226C166.031 153.29 165.816 148.486 164.187 144.098C164.12 144.053 164.046 144.006 163.964 143.955C162.896 143.293 160.495 142.094 153.493 140.459C144.858 138.487 141.067 138.681 141.067 138.681C141.072 138.712 141.076 138.742 141.08 138.773C142.833 150.358 143.36 164.873 143.563 179.108C143.866 198.08 143.453 217.192 144.539 236.109H164.613C164.048 224.828 163.444 213.32 163.288 201.986C162.588 187.539 165.174 177.866 165.963 159.226Z" fill="white"/>
<path d="M164.644 236.109H144.552C144.481 233.767 144.414 231.42 144.348 229.078C150.627 227.776 157.709 226.308 164.101 224.982C164.264 228.485 164.442 232.495 164.644 236.109Z" fill="#D4E8FC"/>
<path d="M141.476 176.889C139.989 172.172 139.684 169.436 140.344 155.301C140.539 151.142 140.283 147.519 139.583 144.53C139.017 142.11 138.158 140.092 137.031 138.533C135.47 136.374 133.716 135.648 133.008 135.432L133.029 136.544C133.74 136.842 135.086 137.595 136.249 139.241C137.874 141.541 139.721 146.186 139.298 155.252C138.629 169.555 138.945 172.346 140.476 177.204C142.938 185.015 143.226 193.349 143.034 198.966C142.825 205.066 142.021 209.369 142.013 209.412C141.959 209.696 142.146 209.97 142.43 210.024C142.463 210.03 142.496 210.033 142.529 210.033C142.775 210.033 142.995 209.858 143.043 209.607C143.051 209.563 143.868 205.198 144.08 199.022C144.277 193.318 143.984 184.848 141.476 176.889Z" fill="#323C7A"/>
<path d="M142.529 210.032C142.496 210.032 142.463 210.029 142.43 210.023C142.146 209.969 141.959 209.695 142.013 209.411C142.027 209.338 143.392 202.003 143.018 192.817C143.006 192.528 143.231 192.284 143.52 192.272C143.807 192.259 144.053 192.485 144.065 192.774C144.444 202.086 143.057 209.532 143.043 209.606C142.995 209.857 142.775 210.032 142.529 210.032Z" fill="#323C7A"/>
<path d="M144.786 210.012C144.438 212.796 142.14 215.151 142.14 215.151C142.14 215.151 141.164 215.161 141.018 215.143C139.319 214.93 138.25 212.288 138.632 209.241C139.014 206.194 140.701 203.896 142.4 204.109C142.447 204.115 143.232 204.103 143.232 204.103C143.232 204.103 145.158 207.049 144.786 210.012Z" fill="#293263"/>
<path d="M145.674 210.028C146.055 206.981 144.987 204.338 143.288 204.125C141.588 203.912 139.901 206.21 139.519 209.257C139.138 212.303 140.206 214.946 141.905 215.159C143.605 215.372 145.292 213.074 145.674 210.028Z" fill="#323C7A"/>
<path d="M165.653 230.569C162.081 215.929 158.501 201.232 154.938 186.624C154.079 183.104 153.291 179.874 152.468 176.502C152.245 175.565 151.458 174.911 150.569 174.787C149.956 174.702 149.428 174.915 148.8 175.046C136.262 178.036 122.477 181.602 109.895 184.542C108.676 184.841 107.927 186.07 108.226 187.29C108.679 189.117 109.599 192.958 110.228 195.511C113.292 208.054 117.012 223.311 120.129 236.11H152.525C152.763 236.051 152.936 236.009 152.941 236.009C153.701 235.809 154.413 235.634 155.265 235.43C158.021 234.766 161.973 233.894 164.465 233.13C165.396 232.692 165.905 231.606 165.653 230.569Z" fill="#303C72"/>
<path d="M164.514 233.115C161.946 233.79 156.492 235.127 153.387 235.894C153.076 235.97 152.778 236.043 152.506 236.11H120.132C119.39 233.071 118.279 228.51 117.648 225.928C129.612 219.089 142.733 211.579 154.679 204.753L155.336 204.376C156.3 204.112 157.988 203.644 159.02 203.361C160.466 209.289 162.082 215.922 163.555 221.956C164.087 224.142 164.471 225.714 164.973 227.773C165.158 228.532 165.343 229.29 165.527 230.047C165.956 231.2 165.63 232.55 164.514 233.115Z" fill="#183261"/>
<path d="M160.652 226.178L124.077 235.096L124.069 235.098L119.88 217.92L112.277 186.74L137.921 180.486L148.836 177.825L148.86 177.818L160.652 226.178Z" fill="#DEECFA"/>
<path d="M148.86 177.818L137.777 193.155L119.881 217.92L112.277 186.74L148.86 177.818Z" fill="#FCFFFF"/>
<path d="M117.253 185.527C116.795 188.787 115.671 191.707 113.927 193.506L113.625 192.266C114.892 190.606 115.719 188.321 116.111 185.806L117.253 185.527Z" fill="#DEECFA"/>
<path d="M139.147 180.816L122.858 184.788C122.449 184.887 122.037 184.637 121.937 184.228L121.418 182.1C121.257 181.436 121.663 180.767 122.326 180.604L122.389 180.588L137.693 176.856C138.356 176.694 139.025 177.1 139.187 177.764L139.707 179.896C139.806 180.304 139.556 180.716 139.147 180.816Z" fill="#B3D2FF"/>
<path d="M131.634 182.649C130.584 182.905 128.251 183.473 127.224 183.723L122.391 180.589C123.411 180.34 125.761 179.768 126.802 179.514L131.634 182.649ZM136.353 181.498C135.991 181.586 134.395 181.975 134.002 182.071L129.169 178.935C129.572 178.837 131.149 178.453 131.521 178.361L136.353 181.498Z" fill="#C2DBFF"/>
<path d="M172.208 203.34C177.025 202.855 181.323 206.368 181.808 211.185C182.292 216.002 178.78 220.3 173.962 220.785C173.962 220.785 164.232 222.03 153.224 222.895C142.216 223.761 129.422 223.845 129.422 223.845C126.772 224.111 124.408 222.179 124.142 219.53C123.875 216.88 125.807 214.516 128.457 214.25C128.457 214.25 137.939 211.759 146.205 208.979C154.472 206.198 164.94 203.933 172.208 203.34Z" fill="#F6AF9A"/>
<path d="M129.736 212.143C129.736 212.143 123.937 208.782 122.706 208.049C121.476 207.316 118.693 207.681 117.851 208.049C117.009 208.416 115.516 210.62 115.516 210.62C115.516 210.62 126.718 213.037 129.736 212.143Z" fill="#EA9A88"/>
<path d="M135.233 212.368C135.233 212.368 130.239 212.2 127.844 211.764C125.448 211.328 121.305 209.366 119.686 209.214C118.068 209.062 111.659 211.529 110.687 212.141C109.716 212.752 110.364 214.822 111.335 214.855C111.335 214.855 110.193 218.061 112.383 218.773C112.383 218.773 111.788 221.875 113.86 222.396C113.86 222.396 113.601 223.937 115.672 225.272C116.324 225.691 117.036 226.017 117.707 226.267L117.677 225.085C117.677 225.085 120.658 224.729 121.693 224.891C122.729 225.053 126.808 226.084 129.268 225.633C131.728 225.182 133.587 224.745 136.101 224.357C138.615 223.968 135.233 212.368 135.233 212.368Z" fill="#F6AF9A"/>
<path d="M111.336 214.856C113.835 214.054 118.035 211.28 120.329 212.834C117.271 212.717 114.112 214.388 111.336 214.856ZM112.384 218.774C115.272 218.079 118.648 215.924 121.498 217.024C118.569 217.3 115.131 218.426 112.384 218.774ZM113.861 222.396C116.714 221.731 120.089 219.469 122.854 220.877C119.809 220.856 116.673 222.079 113.861 222.396Z" fill="#E57E73"/>
<path d="M183.259 218.752C183.259 218.752 181.126 222.012 169.387 224.023C158.694 225.854 136.466 226.699 136.466 226.699C136.466 226.699 135.323 221.761 135.005 218.399C134.686 215.036 135.005 211.268 135.005 211.268C135.005 211.268 136.262 210.559 140.571 209.295C144.88 208.03 159.37 203.117 168.073 200.516C171.732 199.422 175.793 200.004 179.015 201.703C183.456 204.046 185.269 213.622 183.259 218.752Z" fill="white"/>
<path d="M112.815 135.416C112.038 135.688 110.45 136.455 108.957 138.521C107.789 140.137 106.899 142.228 106.311 144.738C105.586 147.835 105.321 151.591 105.522 155.902C105.736 160.478 105.838 163.839 105.843 166.48C105.843 166.779 106.086 167.022 106.386 167.022C106.687 167.021 106.929 166.778 106.929 166.478C106.924 163.82 106.822 160.444 106.607 155.852C106.168 146.454 108.083 141.639 109.767 139.255C110.892 137.663 112.063 136.924 112.781 136.595L112.815 135.416Z" fill="#323C7A"/>
<path d="M112.914 204.208C112.241 204.227 111.891 203.315 112.425 202.885C121.122 195.246 119.039 169.774 106.444 167.248C100.65 168.207 96.0223 174.836 94.7437 182.113C92.8038 190.582 96.1147 198.991 99.5389 202.951C99.8172 203.258 99.7944 203.734 99.4875 204.012C99.1805 204.291 98.7062 204.269 98.4269 203.962C90.3356 195.617 90.9645 175.144 100.923 168.118C106.241 164.828 107.01 164.908 112.337 168.741C121.662 176.342 121.239 198.436 112.914 204.208Z" fill="#323C7A"/>
<path d="M103.564 206.278C102.939 207.301 101.602 207.622 100.58 206.997C99.5569 206.371 97.811 204.163 98.4367 203.141C99.0624 202.118 101.823 202.667 102.846 203.293C103.868 203.919 104.19 205.255 103.564 206.278ZM108.393 206.278C109.019 207.301 110.355 207.622 111.378 206.997C112.401 206.371 114.147 204.163 113.521 203.141C112.895 202.118 110.135 202.667 109.112 203.293C108.089 203.919 107.768 205.255 108.393 206.278Z" fill="#323C7A"/>
</g>
<defs>
<clipPath id="clip0_562_4190">
<rect width="250" height="250" fill="white"/>
</clipPath>
</defs>
</svg>
