<svg width="106" height="106" viewBox="0 0 106 106" fill="none" xmlns="http://www.w3.org/2000/svg">
<g clip-path="url(#clip0_562_4140)">
<g clip-path="url(#clip1_562_4140)">
<path d="M97.4524 97.4515H87.1943V104.29H97.4524V97.4515Z" fill="#969FAA"/>
<path d="M58.1296 97.4515H47.8716V104.29H58.1296V97.4515Z" fill="#969FAA"/>
<path d="M18.8074 97.4515H8.54932V104.29H18.8074V97.4515Z" fill="#969FAA"/>
<path d="M104.291 90.6127V92.3223C104.291 95.154 101.994 97.4514 99.1621 97.4514H97.4524H87.1943H58.1298H47.8717H18.8072H8.54916H6.83948C4.00783 97.4514 1.71045 95.154 1.71045 92.3223V90.6127H104.291Z" fill="#FC6E51"/>
<path d="M104.291 61.5485V90.613H1.71045V78.6453C1.71045 75.8136 4.00783 73.5162 6.83948 73.5162H37.6137H78.9002C86.9742 73.5162 94.2019 68.509 97.0356 60.948C97.2857 60.2812 97.9247 59.8388 98.6363 59.8388H100.872H102.581C103.526 59.8388 104.291 60.6039 104.291 61.5485Z" fill="#FF826E"/>
<path d="M100.85 42.7423H94.0323C94.0323 37.0769 89.4396 32.4843 83.7742 32.4843H63.2581C61.3689 32.4843 59.8387 34.0144 59.8387 35.9036V42.7423H53V35.9036C53 30.2382 57.5926 25.6456 63.2581 25.6456H64.9677H82.9194C92.547 25.6456 100.405 33.2259 100.85 42.7423Z" fill="#969FAA"/>
<path d="M34.1942 8.54852H27.3555V15.3872H34.1942V8.54852Z" fill="#969FAA"/>
<path d="M20.5164 8.54852V15.3872H13.6777V8.54852H17.0971H20.5164Z" fill="#969FAA"/>
<path d="M37.6131 15.3873L41.0324 22.2261H6.83887L10.2582 15.3873H13.6776H20.5163H27.355H34.1937H37.6131Z" fill="#AAB2BD"/>
<path d="M46.1621 23.9358V27.3552C46.1621 28.2998 45.397 29.0649 44.4524 29.0649H41.033H6.83948H3.42013C2.47553 29.0649 1.71045 28.2998 1.71045 27.3552V23.9358C1.71045 22.9912 2.47553 22.2262 3.42013 22.2262H6.83948H41.033H44.4524C45.397 22.2262 46.1621 22.9912 46.1621 23.9358Z" fill="#CCD1D9"/>
<path d="M6.83887 63.2577V56.419V49.5803V42.7416V35.9028V29.0641H41.0324V43.6562C38.9894 44.838 37.6131 47.0499 37.6131 49.5803V73.5157H6.83887V63.2577Z" fill="#69D6F4"/>
<path d="M41.0312 43.6573C42.0377 43.076 43.2046 42.7426 44.4505 42.7426H52.9989H59.8376H94.0312H100.849C100.863 43.0247 100.87 43.3111 100.87 43.5975V59.8394H98.6345C97.9228 59.8394 97.2838 60.2818 97.0338 60.9485C94.2 68.5096 86.9723 73.5168 78.8984 73.5168H37.6118V49.5813C37.6118 47.051 38.9881 44.8391 41.0312 43.6573Z" fill="#E6E9ED"/>
<path d="M76.9366 66.6774C81.6577 66.6774 85.485 62.8501 85.485 58.129C85.485 53.4078 81.6577 49.5806 76.9366 49.5806C72.2154 49.5806 68.3882 53.4078 68.3882 58.129C68.3882 62.8501 72.2154 66.6774 76.9366 66.6774Z" fill="#FF826E"/>
<path d="M52.9991 66.6774C57.7202 66.6774 61.5475 62.8501 61.5475 58.129C61.5475 53.4078 57.7202 49.5806 52.9991 49.5806C48.2779 49.5806 44.4507 53.4078 44.4507 58.129C44.4507 62.8501 48.2779 66.6774 52.9991 66.6774Z" fill="#FF826E"/>
<path d="M102.581 58.129V43.5968C102.581 32.7555 93.7606 23.9355 82.9194 23.9355H66.6774V8.54839C66.6774 3.83481 62.8426 0 58.129 0H23.9355C19.8073 0 16.3533 2.94171 15.5591 6.83871H11.9677V13.6774H9.20148L5.78213 20.5161H3.41935C1.53401 20.5161 0 22.0501 0 23.9355V27.3548C0 29.2402 1.53401 30.7742 3.41935 30.7742H5.12903V72.0229C2.18283 72.784 0 75.4645 0 78.6452V92.3226C0 96.0935 3.0678 99.1613 6.83871 99.1613V102.581H3.41935V106H23.9355V102.581H20.5161V99.1613H46.1613V102.581H42.7419V106H63.2581V102.581H59.8387V99.1613H85.4839V102.581H82.0645V106H102.581V102.581H99.1613V99.1613C102.932 99.1613 106 96.0935 106 92.3226V61.5484C106 59.663 104.466 58.129 102.581 58.129ZM98.6364 58.129C97.2191 58.129 95.9324 59.0208 95.4348 60.348C92.8645 67.2017 86.2197 71.8064 78.8999 71.8064H39.3226V49.5806C39.3226 46.7526 41.6234 44.4516 44.4516 44.4516L99.1613 44.4514V58.129H98.6364ZM61.5484 41.0323V35.9032C61.5484 34.9606 62.3154 34.1936 63.2581 34.1936H83.7742C87.9024 34.1936 91.3562 37.135 92.1506 41.032L61.5484 41.0323ZM98.9568 41.032H95.6178C94.7854 35.2403 89.7925 30.7742 83.7742 30.7742H63.2581C60.43 30.7742 58.129 33.0752 58.129 35.9032V41.0323H54.7097V35.9032C54.7097 31.1896 58.5445 27.3548 63.2581 27.3548H82.9194C91.0025 27.3548 97.7232 33.2908 98.9568 41.032ZM23.9355 3.41935H58.129C60.9573 3.41935 63.2581 5.72037 63.2581 8.54839V23.9355C56.6591 23.9355 51.2903 29.3041 51.2903 35.9032V41.0323H44.4516C43.8663 41.0323 43.2946 41.0917 42.7419 41.2043V30.7742H44.4516C46.337 30.7742 47.871 29.2402 47.871 27.3548V23.9355C47.871 22.0501 46.337 20.5161 44.4516 20.5161H42.0888L38.6695 13.6774H35.9032V6.83871H25.6452V13.6774H22.2258V6.83871H19.1005C19.8064 4.84886 21.7067 3.41935 23.9355 3.41935ZM32.4839 13.6774H29.0645V10.2581H32.4839V13.6774ZM15.3871 10.2581H18.8065V13.6774H15.3871V10.2581ZM11.3146 17.0968H36.5561L38.2658 20.5161H9.60497L11.3146 17.0968ZM3.41935 23.9355H44.4516V27.3548H3.41935V23.9355ZM39.3226 30.7742V42.7466C37.2477 44.3078 35.9032 46.79 35.9032 49.5806V71.8064H8.54839V64.9677H18.8065V61.5484H8.54839V58.129H15.3871V54.7097H8.54839V51.2903H18.8065V47.871H8.54839V44.4516H15.3871V41.0323H8.54839V37.6129H18.8065V34.1936H8.54839V30.7742H39.3226ZM6.83871 75.2258H78.8999C87.6372 75.2258 95.5686 69.7292 98.6364 61.5484H102.581V88.9032H3.41935V78.6452C3.41935 76.7598 4.95336 75.2258 6.83871 75.2258ZM17.0968 102.581H10.2581V99.1613H17.0968V102.581ZM56.4194 102.581H49.5806V99.1613H56.4194V102.581ZM95.7419 102.581H88.9032V99.1613H95.7419V102.581ZM99.1613 95.7419H6.83871C4.95336 95.7419 3.41935 94.2079 3.41935 92.3226H102.581C102.581 94.2079 101.047 95.7419 99.1613 95.7419Z" fill="black"/>
<path d="M76.9372 47.8709C71.2809 47.8709 66.6791 52.4725 66.6791 58.1289C66.6791 63.7854 71.2809 68.387 76.9372 68.387C82.5935 68.387 87.1953 63.7854 87.1953 58.1289C87.1953 52.4725 82.5935 47.8709 76.9372 47.8709ZM76.9372 64.9677C73.1663 64.9677 70.0985 61.8999 70.0985 58.1289C70.0985 54.9483 72.2813 52.2677 75.2275 51.5067V61.5483H78.6469V51.5067C81.5931 52.2677 83.7759 54.9483 83.7759 58.1289C83.7759 61.8999 80.7081 64.9677 76.9372 64.9677ZM53.0017 47.8709C47.3455 47.8709 42.7437 52.4725 42.7437 58.1289C42.7437 63.7854 47.3455 68.387 53.0017 68.387C58.658 68.387 63.2598 63.7854 63.2598 58.1289C63.2598 52.4725 58.658 47.8709 53.0017 47.8709ZM53.0017 64.9677C49.2308 64.9677 46.163 61.8999 46.163 58.1289C46.163 54.9483 48.3458 52.2677 51.292 51.5067V61.5483H54.7114V51.5067C57.6576 52.2677 59.8404 54.9483 59.8404 58.1289C59.8404 61.8999 56.7726 64.9677 53.0017 64.9677Z" fill="black"/>
<path d="M95.7435 47.8709H88.9048V51.2902H95.7435V47.8709Z" fill="black"/>
</g>
</g>
<defs>
<clipPath id="clip0_562_4140">
<rect width="106" height="106" fill="white"/>
</clipPath>
<clipPath id="clip1_562_4140">
<rect width="106" height="106" fill="white"/>
</clipPath>
</defs>
</svg>
