<svg width="10" height="10" viewBox="0 0 10 10" fill="none" xmlns="http://www.w3.org/2000/svg">
<path d="M3.125 5.625H5.625V6.25H3.125V5.625ZM3.125 4.0625H6.875V4.6875H3.125V4.0625ZM3.125 7.1875H4.6875V7.8125H3.125V7.1875Z" fill="black"/>
<path d="M7.8125 1.5625H6.875V1.25C6.875 1.08424 6.80915 0.925268 6.69194 0.808058C6.57473 0.690848 6.41576 0.625 6.25 0.625H3.75C3.58424 0.625 3.42527 0.690848 3.30806 0.808058C3.19085 0.925268 3.125 1.08424 3.125 1.25V1.5625H2.1875C2.02174 1.5625 1.86277 1.62835 1.74556 1.74556C1.62835 1.86277 1.5625 2.02174 1.5625 2.1875V8.75C1.5625 8.91576 1.62835 9.07473 1.74556 9.19194C1.86277 9.30915 2.02174 9.375 2.1875 9.375H7.8125C7.97826 9.375 8.13723 9.30915 8.25444 9.19194C8.37165 9.07473 8.4375 8.91576 8.4375 8.75V2.1875C8.4375 2.02174 8.37165 1.86277 8.25444 1.74556C8.13723 1.62835 7.97826 1.5625 7.8125 1.5625ZM3.75 1.25H6.25V2.5H3.75V1.25ZM7.8125 8.75H2.1875V2.1875H3.125V3.125H6.875V2.1875H7.8125V8.75Z" fill="black"/>
</svg>
