<svg width="30" height="29" viewBox="0 0 30 29" fill="none" xmlns="http://www.w3.org/2000/svg">
<g filter="url(#filter0_d_1_1640)">
<g clip-path="url(#clip0_1_1640)">
<path d="M25.6752 4.24134e-08H4.32367C3.59253 0.000366253 2.99982 0.593445 3 1.32477V22.6763C3.00037 23.4075 3.59344 24.0002 4.32477 24H25.6752C26.4067 24.0002 26.9998 23.4073 27 22.6758C27 22.6756 27 22.6754 27 22.6752V1.32367C26.9996 0.592529 26.4066 -0.000183063 25.6752 4.24134e-08Z" fill="#4267B2"/>
<path d="M19.5703 24.0004V14.7192H22.6992L23.168 11.0864H19.5703V8.77264C19.5703 7.72327 19.8616 7.00824 21.3664 7.00824H23.2734V3.76782C22.9417 3.72369 21.8033 3.625 20.4787 3.625C17.7131 3.625 15.8203 5.3125 15.8203 8.41284V11.0864H12.7031V14.7192H15.8203V24.0004H19.5703Z" fill="white"/>
</g>
</g>
<defs>
<filter id="filter0_d_1_1640" x="0.818182" y="0" width="28.3636" height="28.3636" filterUnits="userSpaceOnUse" color-interpolation-filters="sRGB">
<feFlood flood-opacity="0" result="BackgroundImageFix"/>
<feColorMatrix in="SourceAlpha" type="matrix" values="0 0 0 0 0 0 0 0 0 0 0 0 0 0 0 0 0 0 127 0" result="hardAlpha"/>
<feOffset dy="2.18182"/>
<feGaussianBlur stdDeviation="1.09091"/>
<feColorMatrix type="matrix" values="0 0 0 0 0 0 0 0 0 0 0 0 0 0 0 0 0 0 0.25 0"/>
<feBlend mode="normal" in2="BackgroundImageFix" result="effect1_dropShadow_1_1640"/>
<feBlend mode="normal" in="SourceGraphic" in2="effect1_dropShadow_1_1640" result="shape"/>
</filter>
<clipPath id="clip0_1_1640">
<rect x="3" width="24" height="24" rx="12" fill="white"/>
</clipPath>
</defs>
</svg>
