<svg width="32" height="32" viewBox="0 0 32 32" fill="none" xmlns="http://www.w3.org/2000/svg">
<rect width="32" height="32" rx="6" fill="white"/>
<path d="M9.85885 12.8791C8.71419 12.54 7.51388 12.4421 6.33349 12.5891V8.75016H6.33352L6.33345 8.74435C6.32976 8.42672 6.3896 8.11156 6.50945 7.81739C6.6293 7.52321 6.80674 7.25597 7.03136 7.03136C7.25597 6.80674 7.52321 6.6293 7.81739 6.50945C8.11156 6.3896 8.42672 6.32976 8.74435 6.33345L8.74435 6.33349H8.75016H23.7502V6.33352L23.756 6.33345C24.0736 6.32976 24.3888 6.3896 24.683 6.50945L24.8716 6.0464L24.683 6.50945C24.9771 6.6293 25.2444 6.80674 25.469 7.03136C25.6936 7.25597 25.8711 7.52321 25.9909 7.81739C26.1108 8.11156 26.1706 8.42672 26.1669 8.74435L26.1669 8.74435V8.75016V20.3339C23.1922 20.8467 20.9767 20.4372 19.1816 19.6135C17.2881 18.7445 15.8301 17.4022 14.4078 16.0761L14.4072 16.0756L14.3846 16.0546C12.995 14.763 11.5878 13.4551 9.87494 12.8842L9.86694 12.8815L9.85885 12.8791ZM18.353 21.2386C20.4086 22.1995 22.9226 22.698 26.1669 22.2004L26.1669 23.7502L26.1669 23.7545C26.1697 24.0721 26.1091 24.387 25.9889 24.681C25.8686 24.9749 25.691 25.2419 25.4665 25.4665C25.2419 25.691 24.9749 25.8686 24.681 25.9889C24.387 26.1091 24.0721 26.1697 23.7545 26.1669V26.1669H23.7502L8.75016 26.1669L8.74582 26.1669C8.42826 26.1697 8.11333 26.1091 7.8194 25.9889C7.52548 25.8686 7.25844 25.691 7.03388 25.4665C6.80932 25.2419 6.63174 24.9749 6.51148 24.681C6.39122 24.387 6.33071 24.0721 6.33347 23.7545H6.33349V23.7502V14.4249C7.32307 14.2729 8.33558 14.3385 9.29996 14.6189C10.5976 15.0598 11.7708 16.1389 13.1311 17.3901L13.1604 17.417L13.1617 17.4182L13.1788 17.434C14.5773 18.7291 16.2006 20.2324 18.353 21.2386ZM23.748 4.50015H8.75234C8.19302 4.49542 7.63833 4.60202 7.12059 4.81375C6.60213 5.02577 6.13111 5.33896 5.73504 5.73504C5.33896 6.13111 5.02577 6.60213 4.81375 7.12059C4.60202 7.63833 4.49542 8.19302 4.50015 8.75234V23.748C4.49542 24.3073 4.60202 24.862 4.81375 25.3798C5.02577 25.8982 5.33896 26.3693 5.73504 26.7653C6.13111 27.1614 6.60213 27.4746 7.12059 27.6866C7.63831 27.8983 8.19296 28.0049 8.75226 28.0002H23.7481C24.3074 28.0049 24.8621 27.8983 25.3798 27.6866C25.8982 27.4746 26.3693 27.1614 26.7653 26.7653C27.1614 26.3693 27.4746 25.8982 27.6866 25.3798C27.8983 24.8621 28.0049 24.3074 28.0002 23.7481V8.75226C28.0049 8.19296 27.8983 7.63831 27.6866 7.12059C27.4746 6.60213 27.1614 6.13111 26.7653 5.73504C26.3693 5.33896 25.8982 5.02577 25.3798 4.81375C24.862 4.60202 24.3073 4.49542 23.748 4.50015Z" fill="#D6D6D6" stroke="#D6D6D6"/>
<path d="M22.0835 12.7502C22.545 12.7502 22.9961 12.6133 23.3798 12.3569C23.7635 12.1005 24.0626 11.7361 24.2392 11.3098C24.4158 10.8834 24.462 10.4142 24.372 9.96162C24.2819 9.509 24.0597 9.09324 23.7334 8.76692C23.4071 8.44059 22.9913 8.21836 22.5387 8.12833C22.086 8.0383 21.6169 8.08451 21.1905 8.26111C20.7642 8.43772 20.3998 8.73679 20.1434 9.1205C19.887 9.50422 19.7501 9.95535 19.7501 10.4168C19.7501 10.7233 19.8105 11.0267 19.9277 11.3098C20.045 11.5929 20.2169 11.8501 20.4335 12.0668C20.8711 12.5043 21.4646 12.7502 22.0835 12.7502ZM22.0835 9.41683C22.2812 9.41683 22.4746 9.47548 22.639 9.58536C22.8035 9.69525 22.9317 9.85142 23.0073 10.0342C23.083 10.2169 23.1028 10.4179 23.0642 10.6119C23.0257 10.8059 22.9304 10.9841 22.7906 11.1239C22.6507 11.2638 22.4725 11.359 22.2786 11.3976C22.0846 11.4362 21.8835 11.4164 21.7008 11.3407C21.5181 11.265 21.3619 11.1369 21.252 10.9724C21.1421 10.808 21.0835 10.6146 21.0835 10.4168C21.0835 10.1516 21.1888 9.89726 21.3764 9.70973C21.5639 9.52219 21.8182 9.41683 22.0835 9.41683Z" fill="#D6D6D6" stroke="#D6D6D6" stroke-width="0.5"/>
</svg>
