<svg width="15" height="14" viewBox="0 0 15 14" fill="none" xmlns="http://www.w3.org/2000/svg">
<path d="M10.575 0.398438C9.7936 0.398438 9.0772 0.649394 8.44574 1.14435C7.84035 1.61887 7.43729 2.22326 7.2 2.66275C6.96271 2.22323 6.55965 1.61887 5.95426 1.14435C5.3228 0.649394 4.6064 0.398438 3.825 0.398438C1.64441 0.398438 0 2.20613 0 4.60331C0 7.19309 2.05152 8.96498 5.15725 11.6474C5.68465 12.1029 6.28245 12.6193 6.90379 13.1699C6.98569 13.2426 7.09087 13.2826 7.2 13.2826C7.30912 13.2826 7.41431 13.2426 7.49621 13.17C8.11761 12.6192 8.71537 12.1029 9.24308 11.6471C12.3485 8.96498 14.4 7.19309 14.4 4.60331C14.4 2.20613 12.7556 0.398438 10.575 0.398438Z" fill="#009BD1"/>
</svg>
