<svg width="17" height="17" viewBox="0 0 17 17" fill="none" xmlns="http://www.w3.org/2000/svg">
<path fill-rule="evenodd" clip-rule="evenodd" d="M7.03257 15.2936V10.7478H10.3239V15.2936C10.3239 15.7946 10.6933 16.2028 11.1467 16.2028H13.6152C14.0686 16.2028 14.4381 15.7946 14.4381 15.2936V8.92947H15.836C16.2154 8.92947 16.3947 8.41125 16.1092 8.13669L9.23117 1.29434C8.91603 0.985221 8.44043 0.985221 8.12529 1.29434L1.24724 8.13669C0.967472 8.41125 1.14109 8.92947 1.52042 8.92947H2.91841V15.2936C2.91841 15.7946 3.28786 16.2028 3.74124 16.2028H6.20973C6.66311 16.2028 7.03257 15.7946 7.03257 15.2936Z" fill="#009BD1"/>
<path d="M7.03257 15.2936V10.7478H10.3239V15.2936C10.3239 15.7946 10.6933 16.2028 11.1467 16.2028H13.6152C14.0686 16.2028 14.4381 15.7946 14.4381 15.2936V8.92947H15.836C16.2154 8.92947 16.3947 8.41125 16.1092 8.13669L9.23117 1.29434C8.91603 0.985221 8.44043 0.985221 8.12529 1.29434L1.24724 8.13669C0.967472 8.41125 1.14109 8.92947 1.52042 8.92947H2.91841V15.2936C2.91841 15.7946 3.28786 16.2028 3.74124 16.2028H6.20973C6.66311 16.2028 7.03257 15.7946 7.03257 15.2936" stroke="#151921" stroke-width="0.841122"/>
</svg>
