<svg width="11" height="11" viewBox="0 0 11 11" fill="none" xmlns="http://www.w3.org/2000/svg">
<path d="M2.15066 3.03764C2.6416 3.03764 3.03959 2.63965 3.03959 2.1487C3.03959 1.65776 2.6416 1.25977 2.15066 1.25977C1.65971 1.25977 1.26172 1.65776 1.26172 2.1487C1.26172 2.63965 1.65971 3.03764 2.15066 3.03764Z" stroke="#6C6C6C" stroke-width="0.5" stroke-linecap="round" stroke-linejoin="round"/>
<path d="M2.15066 9.73881C2.6416 9.73881 3.03959 9.34082 3.03959 8.84987C3.03959 8.35893 2.6416 7.96094 2.15066 7.96094C1.65971 7.96094 1.26172 8.35893 1.26172 8.84987C1.26172 9.34082 1.65971 9.73881 2.15066 9.73881Z" stroke="#6C6C6C" stroke-width="0.5" stroke-linecap="round" stroke-linejoin="round"/>
<path d="M2.15066 6.3892C2.6416 6.3892 3.03959 5.99121 3.03959 5.50027C3.03959 5.00932 2.6416 4.61133 2.15066 4.61133C1.65971 4.61133 1.26172 5.00932 1.26172 5.50027C1.26172 5.99121 1.65971 6.3892 2.15066 6.3892Z" stroke="#6C6C6C" stroke-width="0.5" stroke-linecap="round" stroke-linejoin="round"/>
<path d="M9.32972 1.25977H4.4063C4.17975 1.25977 3.99609 1.44342 3.99609 1.66997V2.62743C3.99609 2.85398 4.17975 3.03764 4.4063 3.03764H9.32972C9.55627 3.03764 9.73993 2.85398 9.73993 2.62743V1.66997C9.73993 1.44342 9.55627 1.25977 9.32972 1.25977Z" stroke="#6C6C6C" stroke-width="0.5" stroke-linecap="round" stroke-linejoin="round"/>
<path d="M9.32972 7.96094H4.4063C4.17975 7.96094 3.99609 8.14459 3.99609 8.37115V9.3286C3.99609 9.55516 4.17975 9.73881 4.4063 9.73881H9.32972C9.55627 9.73881 9.73993 9.55516 9.73993 9.3286V8.37115C9.73993 8.14459 9.55627 7.96094 9.32972 7.96094Z" stroke="#6C6C6C" stroke-width="0.5" stroke-linecap="round" stroke-linejoin="round"/>
<path d="M9.32972 4.61133H4.4063C4.17975 4.61133 3.99609 4.79498 3.99609 5.02154V5.97899C3.99609 6.20555 4.17975 6.3892 4.4063 6.3892H9.32972C9.55627 6.3892 9.73993 6.20555 9.73993 5.97899V5.02154C9.73993 4.79498 9.55627 4.61133 9.32972 4.61133Z" stroke="#6C6C6C" stroke-width="0.5" stroke-linecap="round" stroke-linejoin="round"/>
</svg>
