<svg width="34" height="29" viewBox="0 0 34 29" fill="none" xmlns="http://www.w3.org/2000/svg">
<path opacity="0.33" d="M25.4585 20.3516C20.5981 18.4901 18.167 13.041 20.0285 8.18061C21.89 3.32022 27.3391 0.889121 32.1995 2.7506C37.0599 4.61207 39.491 10.0612 37.6295 14.9216C35.768 19.782 30.3189 22.2131 25.4585 20.3516ZM31.6524 4.17907C27.5809 2.61974 23.0163 4.65623 21.4569 8.7277C19.8976 12.7992 21.9341 17.3638 26.0056 18.9232C30.077 20.4825 34.6417 18.446 36.201 14.3745C37.7604 10.3031 35.7239 5.73839 31.6524 4.17907Z" fill="url(#paint0_linear_3_2130)"/>
<path opacity="0.33" d="M22.5894 25.0176C17.729 23.1562 15.2979 17.707 17.1593 12.8466C19.0208 7.98624 24.47 5.55514 29.3303 7.41661C34.1907 9.27809 36.6218 14.7272 34.7604 19.5876C32.8989 24.448 27.4497 26.8791 22.5894 25.0176ZM28.7833 8.84508C24.7118 7.28576 20.1471 9.32225 18.5878 13.3937C17.0285 17.4652 19.065 22.0298 23.1364 23.5892C27.2079 25.1485 31.7726 23.112 33.3319 19.0405C34.8912 14.9691 32.8547 10.4044 28.7833 8.84508Z" fill="url(#paint1_linear_3_2130)"/>
<path opacity="0.33" d="M17.5015 14.7794C12.6411 12.9179 10.21 7.46873 12.0714 2.60834C13.9329 -2.25204 19.3821 -4.68314 24.2425 -2.82167C29.1028 -0.960195 31.5339 4.48895 29.6725 9.34934C27.811 14.2097 22.3618 16.6408 17.5015 14.7794ZM23.6954 -1.3932C19.6239 -2.95253 15.0592 -0.916033 13.4999 3.15543C11.9406 7.2269 13.9771 11.7916 18.0485 13.3509C22.12 14.9102 26.6847 12.8737 28.244 8.80225C29.8033 4.73079 27.7668 0.166127 23.6954 -1.3932Z" fill="url(#paint2_linear_3_2130)"/>
<path opacity="0.33" d="M11.5894 20.8047C6.72896 18.9433 4.29786 13.4941 6.15934 8.63374C8.02081 3.77335 13.47 1.34225 18.3303 3.20372C23.1907 5.0652 25.6218 10.5143 23.7604 15.3747C21.8989 20.2351 16.4497 22.6662 11.5894 20.8047ZM17.7833 4.63219C13.7118 3.07287 9.14713 5.10936 7.58781 9.18082C6.02848 13.2523 8.06497 17.8169 12.1364 19.3763C16.2079 20.9356 20.7726 18.8991 22.3319 14.8276C23.8912 10.7562 21.8547 6.19152 17.7833 4.63219Z" fill="url(#paint3_linear_3_2130)"/>
<path opacity="0.33" d="M8.80029 13.9708C3.9399 12.1093 1.5088 6.66014 3.37027 1.79975C5.23175 -3.06064 10.6809 -5.49174 15.5413 -3.63026C20.4017 -1.76879 22.8328 3.68036 20.9713 8.54075C19.1098 13.4011 13.6607 15.8322 8.80029 13.9708ZM14.9942 -2.20179C10.9227 -3.76112 6.35807 -1.72463 4.79874 2.34684C3.23942 6.41831 5.27591 10.983 9.34738 12.5423C13.4188 14.1016 17.9835 12.0651 19.5428 7.99366C21.1022 3.92219 19.0657 -0.642467 14.9942 -2.20179Z" fill="url(#paint4_linear_3_2130)"/>
<defs>
<linearGradient id="paint0_linear_3_2130" x1="33.5068" y1="4.51272" x2="23.2082" y2="18.2284" gradientUnits="userSpaceOnUse">
<stop stop-color="#ED1C22"/>
<stop offset="0.477552" stop-color="#0EBE7F"/>
<stop offset="1" stop-color="#009BD1"/>
</linearGradient>
<linearGradient id="paint1_linear_3_2130" x1="30.6377" y1="9.17874" x2="20.3391" y2="22.8944" gradientUnits="userSpaceOnUse">
<stop stop-color="#ED1C22"/>
<stop offset="0.477552" stop-color="#0EBE7F"/>
<stop offset="1" stop-color="#009BD1"/>
</linearGradient>
<linearGradient id="paint2_linear_3_2130" x1="25.5498" y1="-1.05954" x2="15.2512" y2="12.6561" gradientUnits="userSpaceOnUse">
<stop stop-color="#ED1C22"/>
<stop offset="0.477552" stop-color="#0EBE7F"/>
<stop offset="1" stop-color="#009BD1"/>
</linearGradient>
<linearGradient id="paint3_linear_3_2130" x1="19.6377" y1="4.96585" x2="9.33908" y2="18.6815" gradientUnits="userSpaceOnUse">
<stop stop-color="#ED1C22"/>
<stop offset="0.477552" stop-color="#0EBE7F"/>
<stop offset="1" stop-color="#009BD1"/>
</linearGradient>
<linearGradient id="paint4_linear_3_2130" x1="16.8486" y1="-1.86814" x2="6.55002" y2="11.8475" gradientUnits="userSpaceOnUse">
<stop stop-color="#ED1C22"/>
<stop offset="0.477552" stop-color="#0EBE7F"/>
<stop offset="1" stop-color="#009BD1"/>
</linearGradient>
</defs>
</svg>
