<svg width="16" height="15" viewBox="0 0 16 15" fill="none" xmlns="http://www.w3.org/2000/svg">
<path d="M1.31113 0.484375H15.501C15.7635 0.484375 15.9762 0.746847 15.9762 0.959568V2.95311C15.9762 3.21558 15.7635 3.4283 15.501 3.4283H1.31113C1.04866 3.4283 0.835938 3.16583 0.835938 2.95311V0.959568C0.835938 0.697096 1.04866 0.484375 1.31113 0.484375Z" fill="#83848B"/>
<path d="M1.67578 4.26953V13.9903C1.67578 14.2012 1.75953 14.4035 1.90864 14.5526C2.05774 14.7016 2.25998 14.7854 2.47085 14.7854H14.341C14.5519 14.7854 14.7541 14.7017 14.9032 14.5526C15.0523 14.4035 15.1361 14.2012 15.1361 13.9903V4.26953H10.5091V10.9997C10.5081 11.1695 10.4054 11.3222 10.2482 11.3868C10.1983 11.4102 10.1436 11.4219 10.0884 11.4204C9.97668 11.4209 9.86908 11.3772 9.78984 11.2983L8.40587 9.91021L7.0219 11.2983C6.90097 11.4177 6.72013 11.4527 6.56352 11.3868C6.40634 11.3222 6.30363 11.1695 6.30268 10.9997V4.26953L1.67578 4.26953Z" fill="#83848B"/>
<path d="M8.70547 9.01977L9.66908 9.98752V4.26953H7.14453V9.98752L8.10814 9.01977C8.18703 8.94013 8.29466 8.89524 8.4068 8.89524C8.51894 8.89524 8.62657 8.94013 8.70546 9.01977H8.70547Z" fill="#83848B"/>
</svg>
