<svg width="281" height="266" viewBox="0 0 281 266" fill="none" xmlns="http://www.w3.org/2000/svg">
<path d="M44.1263 91.6707C43.738 91.0325 44.1121 90.1444 44.7524 89.7622C45.3927 89.3801 46.1965 89.3941 46.933 89.5259C48.1244 89.7391 49.1629 90.1872 50.2272 90.7031C49.0373 89.2694 47.9271 87.7714 46.9017 86.2159C45.4602 87.0797 43.7569 87.5027 42.0788 87.4077C41.4426 87.3716 40.7304 87.212 40.4008 86.6671C40.0156 86.0303 40.3899 85.1424 41.0279 84.7592C41.6661 84.376 42.4661 84.3884 43.1989 84.5186C44.4294 84.7372 45.4953 85.2089 46.596 85.7466C45.3599 83.8247 44.2584 81.8149 43.3396 79.7245C41.7967 80.3258 40.0757 80.4649 38.4577 80.1101C37.8353 79.9738 37.1574 79.7033 36.9182 79.1128C36.6388 78.4231 37.1493 77.6057 37.8401 77.3286C38.5308 77.0513 39.3188 77.1903 40.0217 77.4351C41.1606 77.8316 42.1109 78.4367 43.0763 79.1126C42.1424 76.8939 41.3771 74.507 41.3239 72.0932C41.3227 72.0429 41.3239 71.9927 41.3231 71.9424C39.695 72.3324 37.9501 72.2277 36.3821 71.6391C35.7855 71.4154 35.1533 71.0508 35.0008 70.4323C34.8228 69.7096 35.4448 68.9734 36.1679 68.7978C36.891 68.6221 37.6512 68.8722 38.3118 69.2148C39.476 69.8184 40.3843 70.634 41.3211 71.5242C41.3357 68.7344 41.8647 65.9353 41.7834 63.1492C40.1313 63.5633 38.3539 63.4658 36.7589 62.8674C36.1625 62.6436 35.5299 62.279 35.3776 61.6603C35.1996 60.9377 35.8216 60.2016 36.5447 60.0258C37.2678 59.8501 38.028 60.1002 38.6886 60.4428C39.8841 61.0627 40.8099 61.9061 41.7735 62.8243C41.7407 62.1284 41.6676 61.4335 41.5349 60.7399C41.2661 59.3353 40.6991 58.0018 39.9229 56.7867C38.4109 57.653 36.6273 58.0382 34.8929 57.8668C34.259 57.8042 33.5538 57.6147 33.2473 57.0564C32.8892 56.404 33.3004 55.5325 33.9539 55.1765C34.6076 54.8206 35.4065 54.8665 36.1329 55.0272C37.4656 55.3222 38.5893 55.9104 39.7743 56.5595C38.4812 54.6246 36.657 53.0068 34.665 51.9094C33.2077 52.5225 31.5769 52.7211 30.016 52.4658C29.3872 52.3628 28.6956 52.129 28.4253 51.5524C28.1093 50.8783 28.5753 50.0349 29.2502 49.7211C29.9251 49.4076 30.7195 49.504 31.4346 49.7108C32.575 50.0407 33.5439 50.5821 34.5278 51.1933C34.5709 51.1939 34.6162 51.204 34.6632 51.2285C36.3795 52.1245 37.9035 53.3704 39.1676 54.8339C39.4474 55.1579 39.7152 55.492 39.9704 55.8356C39.5879 54.3459 39.6151 52.7512 40.0601 51.2786C40.2442 50.6688 40.5669 50.0137 41.1742 49.8213C41.8837 49.5963 42.6589 50.1686 42.8814 50.8789C43.1041 51.5893 42.9043 52.3639 42.6055 53.0458C42.0485 54.3173 41.2358 55.3183 40.3518 56.3745C40.8561 57.1203 41.2906 57.9122 41.6058 58.7541C42.0831 60.0294 42.2955 61.3429 42.362 62.6723C42.6853 61.1192 43.451 59.6587 44.553 58.5168C44.9953 58.0582 45.5812 57.6227 46.2093 57.7286C46.9431 57.8524 47.3716 58.7154 47.2458 59.449C47.1197 60.1824 46.5882 60.7807 46.0113 61.251C44.9059 62.1521 43.6904 62.676 42.3822 63.2283C42.4284 65.424 42.1208 67.6553 41.9836 69.824C41.9403 70.5067 41.9166 71.1853 41.9298 71.8618C42.195 70.1598 42.9926 68.5436 44.1873 67.3022C44.629 66.8432 45.2143 66.4069 45.8426 66.5117C46.5766 66.6345 47.0064 67.4971 46.8811 68.2307C46.7561 68.9643 46.2254 69.5634 45.6492 70.0343C44.5198 70.9575 43.2749 71.4861 41.9333 72.0543C41.9552 72.7753 42.0225 73.4939 42.1612 74.212C42.4148 75.5258 42.8175 76.8088 43.2955 78.0568C43.4229 78.3887 43.5556 78.7185 43.6935 79.0461C43.786 77.4866 44.3159 75.9534 45.2149 74.6751C45.5814 74.1541 46.0931 73.6335 46.7299 73.6414C47.4742 73.6506 48.0304 74.4374 48.0189 75.1815C48.0074 75.9256 47.5743 76.5987 47.0766 77.152C46.1572 78.1747 45.083 78.8666 43.9248 79.5846C44.8226 81.6268 45.9149 83.588 47.1246 85.4621C46.8183 83.8608 46.9827 82.1707 47.6015 80.6618C47.8434 80.0724 48.227 79.4513 48.8498 79.3176C49.5774 79.1617 50.2945 79.8054 50.448 80.5337C50.6019 81.2619 50.3289 82.0141 49.9663 82.6643C49.2785 83.8979 48.3539 84.8274 47.3533 85.813C47.5156 86.0602 47.6794 86.3064 47.8455 86.5505C48.7573 87.8902 49.7333 89.1936 50.7784 90.4385C50.504 88.8743 50.6761 87.2326 51.279 85.7629C51.5209 85.1735 51.9043 84.5524 52.5273 84.4187C53.2549 84.2627 53.972 84.9065 54.1257 85.6348C54.2794 86.363 54.0064 87.1152 53.6439 87.7651C52.9749 88.9649 52.0821 89.8769 51.1134 90.8326C52.3217 92.2374 53.621 93.5629 55.0202 94.7738C55.3117 95.0262 54.9003 95.4609 54.6094 95.2092C53.1964 93.9863 51.887 92.6449 50.668 91.2257C49.2189 92.092 47.5039 92.5143 45.8129 92.4156C45.1749 92.3781 44.4588 92.2168 44.1263 91.6707Z" fill="url(#paint0_linear_64_598)"/>
<path d="M238.568 105.02C239.223 104.612 239.545 103.782 239.459 103.016C239.374 102.25 238.93 101.556 238.354 101.043C237.778 100.531 237.076 100.182 236.363 99.889C235.181 99.4049 233.901 99.0596 232.637 99.1327C233.912 97.7572 235.29 96.4818 236.76 95.3178C236.894 95.2119 237.029 95.1085 237.164 95.0043L239.426 98.3145C239.929 99.0506 240.45 99.8054 241.192 100.301C241.934 100.796 242.958 100.977 243.716 100.505C244.371 100.097 244.693 99.2665 244.607 98.5003C244.522 97.7343 244.079 97.0405 243.503 96.5279C242.927 96.0154 242.224 95.6662 241.511 95.3737C240.292 94.8743 238.968 94.522 237.666 94.6252C239.337 93.3825 241.11 92.282 242.965 91.3354L245.385 94.6013C245.916 95.3176 246.466 96.0516 247.226 96.5183C247.987 96.9849 249.017 97.1262 249.757 96.6254C250.396 96.1925 250.685 95.3504 250.57 94.5883C250.455 93.8263 249.986 93.1498 249.391 92.6599C248.796 92.1698 248.08 91.8478 247.356 91.5826C246.196 91.1584 244.948 90.8665 243.727 90.9582C245.084 90.3039 246.48 89.7337 247.907 89.251C248.33 89.1093 248.755 88.9757 249.183 88.8501L251.783 92.1269C252.337 92.8255 252.91 93.541 253.686 93.9823C254.461 94.4235 255.496 94.5311 256.218 94.0064C256.843 93.5527 257.104 92.7017 256.964 91.9438C256.824 91.1858 256.333 90.5252 255.722 90.055C255.111 89.5849 254.386 89.2864 253.653 89.0454C252.606 88.7009 251.492 88.4653 250.399 88.5118C251.864 88.1346 253.352 87.8523 254.854 87.6668L258.604 89.2691C259.424 89.6197 260.27 89.9759 261.163 89.9953C262.055 90.0147 263.017 89.6171 263.403 88.8126C263.736 88.1171 263.561 87.2448 263.077 86.6449C262.593 86.0452 261.845 85.6983 261.084 85.5753C260.322 85.4523 259.541 85.5349 258.782 85.6713C257.382 85.9227 255.969 86.3847 254.89 87.2984C254.885 87.2986 254.88 87.298 254.875 87.2988C253.277 87.4938 251.694 87.7974 250.136 88.2075C251.08 87.5559 251.846 86.6357 252.481 85.6684C252.903 85.0232 253.285 84.3378 253.47 83.5894C253.655 82.8407 253.629 82.0177 253.266 81.3379C252.903 80.6578 252.169 80.1549 251.398 80.1891C250.506 80.2289 249.763 80.9578 249.432 81.7859C249.1 82.6141 249.097 83.5315 249.098 84.4231L249.105 88.497C247.215 89.0553 245.372 89.7651 243.596 90.6195C244.416 89.7333 244.965 88.5957 245.36 87.4432C245.609 86.7135 245.809 85.955 245.802 85.1843C245.796 84.4136 245.565 83.6229 245.045 83.0546C244.524 82.486 243.688 82.1809 242.949 82.4054C242.095 82.665 241.556 83.555 241.441 84.4394C241.325 85.3238 241.55 86.2127 241.773 87.0761C242.113 88.3901 242.452 89.704 242.792 91.0182C242.736 91.0464 242.681 91.0734 242.625 91.1018C240.819 92.0369 239.092 93.1162 237.46 94.3292C238.244 93.227 238.609 91.8544 238.779 90.5029C238.876 89.738 238.918 88.9551 238.755 88.2018C238.592 87.4484 238.206 86.7212 237.581 86.2696C236.956 85.818 236.075 85.6888 235.397 86.0578C234.612 86.4847 234.265 87.4651 234.331 88.3542C234.398 89.2434 234.798 90.0684 235.192 90.8684L237.046 94.6396C237.024 94.6567 237.001 94.6745 236.979 94.6918L236.941 94.6788L236.96 94.7062C235.391 95.9117 233.921 97.2406 232.564 98.6801C232.822 97.4927 232.725 96.2251 232.487 95.0222C232.334 94.2515 232.122 93.4812 231.723 92.8049C231.323 92.1286 230.716 91.549 229.967 91.3125C229.218 91.0762 228.325 91.2332 227.789 91.8074C227.168 92.4714 227.148 93.5305 227.498 94.3691C227.848 95.2078 228.5 95.8773 229.138 96.5248L231.854 99.284L231.921 99.381C230.467 101.006 229.167 102.762 228.037 104.626C227.918 104.823 228.202 105.047 228.323 104.848C229.434 103.016 230.708 101.29 232.131 99.6894L234.277 102.83C234.78 103.566 235.301 104.321 236.043 104.816C236.786 105.311 237.81 105.492 238.568 105.02Z" fill="url(#paint1_linear_64_598)"/>
<path d="M239.193 69.1468C239.843 68.7131 240.637 68.6323 241.356 68.675C242.582 68.7533 243.737 69.1398 244.951 69.2768C246.164 69.4014 247.54 69.2329 248.565 68.3662C251.053 66.2818 249.771 62.0546 251.916 59.5967C250.879 59.9419 249.956 60.65 249.077 61.3591C248.205 62.0738 247.317 62.8094 246.305 63.254C245.299 63.6912 244.111 63.7804 243.311 63.2056C242.514 62.6114 242.313 61.2328 243.082 60.403C244.008 59.3886 245.479 59.7059 246.737 59.4556C248.542 59.0897 250.037 57.3965 250.724 55.6011C251.412 53.8182 251.45 51.9211 251.488 50.081C249.319 52.1213 246.507 53.4025 243.757 53.5931C243.922 52.1271 245.635 51.3576 246.845 50.431C248.669 49.0431 249.673 46.7452 249.95 44.5582C250.164 42.857 249.999 41.1875 249.747 39.541C248.084 39.5971 246.413 39.7495 244.774 40.2808C242.682 40.9674 240.613 42.3904 239.6 44.441C238.92 45.8087 238.479 47.6387 237.084 48.0773C236.748 45.3384 237.465 42.3349 239.066 39.8134C237.264 40.2044 235.412 40.6016 233.791 41.6147C232.159 42.6293 230.77 44.4186 230.757 46.2554C230.749 47.5374 231.34 48.9271 230.52 50.0243C229.844 50.939 228.449 51.0014 227.726 50.3284C227.003 49.6554 226.864 48.4735 227.107 47.3997C227.35 46.3258 227.912 45.31 228.445 44.3168C228.983 43.3164 229.497 42.2742 229.644 41.1926C227.634 43.7686 223.239 43.2995 221.656 46.1435C221.004 47.3165 221.097 48.7013 221.458 49.8632C221.812 51.0326 222.415 52.0892 222.715 53.2839C222.9 53.9886 222.967 54.7711 222.658 55.4958C222.36 56.2191 221.593 56.8452 220.892 56.7366C219.925 56.5895 219.681 55.3819 219.477 54.4116C218.746 51.0756 216.199 48.4506 212.944 47.7067C213.977 50.0386 213.283 52.9565 212.515 55.6342C211.753 58.3054 210.94 61.1865 211.756 63.6203C213.207 67.923 219.355 71.6333 223.722 70.621C224.131 70.5331 224.528 70.3942 224.903 70.2075C224.872 70.3153 224.846 70.4247 224.827 70.5353C224.773 70.7775 224.744 71.0167 224.721 71.2615C224.35 75.6771 228.731 80.7749 233.271 81.3929C235.823 81.7417 238.494 80.3944 240.973 79.146C243.462 77.8835 246.196 76.6431 248.68 77.2232C247.332 74.164 244.277 72.1535 240.852 72.0732C239.868 72.049 238.638 72.0476 238.312 71.13C238.073 70.4516 238.537 69.5749 239.193 69.1468ZM246.407 54.8743C247.089 54.66 247.764 54.8734 247.917 55.359C248.07 55.8444 247.646 56.4107 246.963 56.625C246.274 56.8336 245.605 56.6132 245.452 56.1276C245.306 55.6476 245.73 55.0815 246.407 54.8743ZM226.693 53.6755C227.132 53.6683 227.498 54.1732 227.5 54.791C227.498 55.4161 227.149 55.9161 226.703 55.9177C226.264 55.9249 225.899 55.42 225.896 54.8022C225.899 54.1771 226.247 53.6771 226.693 53.6755ZM240.315 75.8465C240.578 76.6695 239.851 77.6346 238.683 78.002C237.521 78.3621 236.368 77.9882 236.105 77.1651C235.848 76.3353 236.575 75.37 237.738 75.0096C238.905 74.6425 240.058 75.0164 240.315 75.8465Z" fill="url(#paint2_linear_64_598)"/>
<path d="M230.198 64.8931V167.699C230.198 169.258 228.962 170.522 227.434 170.522H60.7045C59.1763 170.522 57.9365 169.258 57.9365 167.699V64.8931C57.9365 63.3342 59.1761 62.0703 60.7045 62.0703H227.434C228.962 62.0703 230.198 63.3342 230.198 64.8931Z" fill="#B5BDFF"/>
<path d="M232.348 58.8164H55.2412C53.7851 58.8164 52.604 59.9353 52.604 61.3145V171.478C52.604 172.857 53.7853 173.976 55.2412 173.976H232.348C233.804 173.976 234.986 172.857 234.986 171.478V61.3143C234.986 59.935 233.804 58.8164 232.348 58.8164ZM230.199 168.03C230.199 169.507 228.962 170.704 227.434 170.704H60.7048C59.1766 170.704 57.9368 169.507 57.9368 168.03V70.6586C57.9368 69.1821 59.1764 67.985 60.7048 67.985H227.434C228.963 67.985 230.199 69.1821 230.199 70.6586V168.03Z" fill="url(#paint3_linear_64_598)"/>
<path d="M231.666 64.9135V168.423C231.666 169.99 230.405 171.263 228.852 171.263H59.1439C57.591 171.263 56.3269 169.99 56.3269 168.423V64.9135C56.3269 63.3457 57.591 62.0703 59.1439 62.0703H228.852C230.405 62.0703 231.666 63.3457 231.666 64.9135Z" fill="white"/>
<path d="M231.666 64.9135V73.3742H56.3269V64.9135C56.3269 63.3457 57.591 62.0703 59.1439 62.0703H228.852C230.405 62.0703 231.666 63.3457 231.666 64.9135Z" fill="url(#paint4_linear_64_598)"/>
<path d="M199.647 64.5117H67.7589C64.8649 64.5117 62.5188 65.9105 62.5188 67.6361C62.5188 69.3616 64.8649 70.7605 67.7589 70.7605H199.647C202.541 70.7605 204.887 69.3616 204.887 67.6361C204.887 65.9105 202.541 64.5117 199.647 64.5117ZM219.369 70.7605H210.787C209.042 70.7605 207.628 69.3616 207.628 67.6361C207.628 65.9105 209.042 64.5117 210.787 64.5117H219.369C221.113 64.5117 222.527 65.9105 222.527 67.6361C222.527 69.3619 221.113 70.7605 219.369 70.7605Z" fill="white"/>
<path d="M217.136 69.1441L215.745 68.1789C215.729 68.1682 215.712 68.1588 215.694 68.1509C215.829 67.897 215.9 67.6138 215.9 67.3262C215.9 66.3429 215.091 65.543 214.097 65.543C213.103 65.543 212.294 66.3429 212.294 67.3262C212.294 68.3095 213.103 69.1097 214.097 69.1097C214.532 69.1098 214.952 68.9532 215.281 68.6684C215.301 68.6931 215.323 68.7162 215.35 68.7353L216.742 69.7005C216.82 69.7545 216.912 69.772 216.999 69.7569C217.085 69.7419 217.166 69.6941 217.22 69.6173C217.246 69.5808 217.265 69.5395 217.274 69.4959C217.284 69.4523 217.285 69.4071 217.277 69.3631C217.27 69.319 217.253 69.277 217.229 69.2394C217.205 69.2018 217.173 69.1694 217.136 69.1441ZM214.097 68.6C213.387 68.6 212.809 68.0287 212.809 67.3262C212.809 66.6237 213.387 66.0526 214.097 66.0526C214.807 66.0526 215.385 66.6239 215.385 67.3262C215.385 68.0287 214.807 68.6 214.097 68.6Z" fill="url(#paint5_linear_64_598)"/>
<path d="M226.341 65.5727C226.341 65.1821 226.662 64.8652 227.056 64.8652C227.451 64.8652 227.772 65.1821 227.772 65.5727C227.772 65.9633 227.451 66.2801 227.056 66.2801C226.662 66.2801 226.341 65.9633 226.341 65.5727ZM226.341 67.3411C226.341 66.9505 226.662 66.6336 227.056 66.6336C227.451 66.6336 227.772 66.9503 227.772 67.3411C227.772 67.7319 227.451 68.0485 227.056 68.0485C226.662 68.0487 226.341 67.7319 226.341 67.3411ZM226.341 69.1099C226.341 68.7191 226.662 68.4025 227.056 68.4025C227.451 68.4025 227.772 68.7191 227.772 69.1099C227.772 69.5005 227.451 69.8173 227.056 69.8173C226.662 69.8171 226.341 69.5005 226.341 69.1099Z" fill="white"/>
<path d="M204.087 129.52H164.809C161.939 129.52 159.612 131.846 159.612 134.717V142.544C159.612 145.414 161.939 147.741 164.809 147.741H204.087C206.957 147.741 209.284 145.414 209.284 142.544V134.717C209.284 131.846 206.957 129.52 204.087 129.52Z" fill="url(#paint6_linear_64_598)"/>
<path d="M168.967 143.29L166.01 135.66H167.103L169.086 141.203C169.236 141.615 169.369 142.031 169.487 142.452C169.607 142.031 169.744 141.614 169.898 141.203L171.96 135.66H172.99L170.002 143.29H168.967ZM173.917 143.29V135.66H179.434V136.56H174.927V138.897H179.148V139.793H174.927V142.39H179.611V143.29L173.917 143.29ZM181.021 143.29V135.66H184.405C185.085 135.66 185.601 135.729 185.955 135.866C186.309 136.003 186.592 136.245 186.804 136.592C187.015 136.939 187.121 137.322 187.121 137.742C187.121 138.284 186.946 138.74 186.595 139.111C186.245 139.482 185.704 139.718 184.972 139.819C185.239 139.947 185.442 140.074 185.581 140.199C185.875 140.47 186.155 140.808 186.419 141.214L187.746 143.29H186.476L185.466 141.703C185.171 141.245 184.928 140.895 184.737 140.652C184.547 140.409 184.376 140.239 184.225 140.142C184.083 140.049 183.928 139.98 183.764 139.939C183.649 139.915 183.462 139.902 183.202 139.902H182.031V143.291L181.021 143.29ZM182.031 139.028H184.201C184.663 139.028 185.024 138.98 185.284 138.885C185.544 138.789 185.742 138.636 185.877 138.427C186.011 138.223 186.081 137.985 186.08 137.742C186.08 137.381 185.949 137.085 185.688 136.852C185.425 136.62 185.011 136.503 184.446 136.503H182.031V139.028ZM188.875 143.29V135.66H189.885V143.29H188.875ZM191.717 143.29V135.66H196.865V136.56H192.727V138.923H196.308V139.824H192.727V143.29H191.717ZM200.326 143.29V140.058L197.385 135.66H198.614L200.118 137.96C200.39 138.382 200.649 138.813 200.893 139.252C201.122 138.852 201.4 138.403 201.726 137.903L203.204 135.66H204.381L201.336 140.058V143.29H200.326Z" fill="white"/>
<path d="M158.226 111.193L150.158 111.22C148.9 111.224 147.883 112.248 147.888 113.506L147.915 121.574C147.919 122.833 148.942 123.849 150.201 123.845L158.269 123.818C159.527 123.814 160.544 122.79 160.539 121.532L160.512 113.464C160.508 112.206 159.485 111.189 158.226 111.193Z" fill="url(#paint7_linear_64_598)"/>
<path d="M179.035 111.123L170.967 111.15C169.709 111.154 168.692 112.178 168.696 113.436L168.723 121.504C168.727 122.762 169.751 123.779 171.009 123.775L179.077 123.748C180.336 123.744 181.352 122.72 181.348 121.462L181.321 113.394C181.317 112.136 180.293 111.119 179.035 111.123Z" fill="url(#paint8_linear_64_598)"/>
<path d="M199.843 111.055L191.775 111.082C190.517 111.086 189.5 112.109 189.505 113.368L189.532 121.436C189.536 122.694 190.559 123.711 191.818 123.706L199.885 123.68C201.144 123.675 202.161 122.652 202.156 121.393L202.129 113.326C202.125 112.067 201.102 111.051 199.843 111.055Z" fill="url(#paint9_linear_64_598)"/>
<path d="M220.652 110.984L212.584 111.011C211.325 111.015 210.309 112.039 210.313 113.297L210.34 121.365C210.344 122.624 211.368 123.641 212.626 123.636L220.694 123.609C221.952 123.605 222.969 122.581 222.965 121.323L222.938 113.255C222.934 111.997 221.91 110.98 220.652 110.984Z" fill="url(#paint10_linear_64_598)"/>
<path d="M156.911 118.393V112.887H154.742L150.208 118.277V120.324H154.742V121.996H156.911V120.324H158.034V118.393H156.911ZM154.742 118.393H152.346L154.742 115.574V118.393ZM172.41 113.04H178.318V115.025H174.316L174.102 116.37C174.366 116.244 174.641 116.146 174.924 116.076C175.187 116.012 175.457 115.979 175.728 115.978C176.624 115.978 177.351 116.249 177.909 116.791C178.467 117.333 178.746 118.015 178.746 118.838C178.746 119.416 178.602 119.972 178.315 120.506C178.028 121.04 177.621 121.447 177.093 121.728C176.566 122.009 175.891 122.15 175.068 122.15C174.477 122.15 173.971 122.094 173.549 121.982C173.128 121.87 172.769 121.703 172.474 121.481C172.179 121.259 171.939 121.007 171.756 120.726C171.573 120.445 171.42 120.095 171.298 119.675L173.815 119.4C173.877 119.803 174.019 120.11 174.243 120.32C174.467 120.53 174.734 120.634 175.043 120.634C175.389 120.634 175.676 120.503 175.902 120.24C176.128 119.978 176.241 119.586 176.241 119.064C176.241 118.531 176.127 118.14 175.899 117.891C175.67 117.643 175.367 117.518 174.988 117.518C174.748 117.518 174.516 117.577 174.292 117.695C174.125 117.781 173.941 117.936 173.742 118.16L171.622 117.854L172.41 113.04ZM198.694 116.877C198.142 116.305 197.467 116.022 196.67 116.022C196.257 116.022 195.895 116.093 195.582 116.237C195.268 116.384 194.962 116.606 194.666 116.908C194.742 115.946 194.863 115.318 195.025 115.025C195.25 114.617 195.561 114.415 195.966 114.415C196.189 114.415 196.379 114.486 196.531 114.628C196.685 114.772 196.794 115.015 196.857 115.362L199.332 115.055C199.19 114.575 198.983 114.175 198.709 113.858C198.436 113.54 198.094 113.299 197.679 113.135C197.267 112.97 196.703 112.887 195.991 112.887C194.784 112.887 193.841 113.264 193.163 114.015C192.482 114.767 192.14 115.951 192.14 117.568C192.14 118.671 192.302 119.557 192.626 120.227C192.95 120.898 193.383 121.386 193.924 121.692C194.466 121.996 195.187 122.15 196.083 122.15C196.826 122.15 197.446 122.024 197.942 121.773C198.438 121.523 198.825 121.154 199.104 120.665C199.382 120.177 199.521 119.635 199.521 119.046C199.521 118.17 199.245 117.447 198.694 116.877ZM196.834 120.225C196.614 120.473 196.341 120.597 196.014 120.597C195.66 120.597 195.361 120.461 195.116 120.185C194.873 119.911 194.749 119.532 194.749 119.046C194.749 118.57 194.868 118.203 195.101 117.945C195.336 117.69 195.625 117.561 195.971 117.561C196.31 117.561 196.594 117.695 196.822 117.958C197.049 118.224 197.163 118.608 197.163 119.114C197.163 119.605 197.054 119.977 196.834 120.225ZM214.027 113.04H219.936V115.025H215.934L215.72 116.37C215.983 116.244 216.258 116.146 216.542 116.076C216.805 116.012 217.074 115.979 217.345 115.978C218.241 115.978 218.968 116.249 219.526 116.791C220.085 117.333 220.363 118.015 220.363 118.838C220.363 119.416 220.22 119.972 219.933 120.506C219.646 121.04 219.238 121.447 218.711 121.728C218.183 122.009 217.508 122.15 216.685 122.15C216.095 122.15 215.588 122.094 215.167 121.982C214.745 121.87 214.387 121.703 214.091 121.481C213.796 121.259 213.557 121.007 213.374 120.726C213.19 120.445 213.038 120.095 212.915 119.675L215.433 119.4C215.494 119.803 215.636 120.11 215.86 120.32C216.084 120.53 216.351 120.634 216.661 120.634C217.007 120.634 217.293 120.503 217.519 120.24C217.745 119.978 217.858 119.586 217.858 119.064C217.858 118.531 217.744 118.14 217.516 117.891C217.288 117.643 216.984 117.518 216.606 117.518C216.365 117.518 216.133 117.577 215.909 117.695C215.742 117.781 215.559 117.936 215.359 118.16L213.239 117.854L214.027 113.04Z" fill="white"/>
<path d="M184.448 105.123C191.814 105.123 197.785 99.152 197.785 91.7862C197.785 84.4204 191.814 78.4492 184.448 78.4492C177.082 78.4492 171.111 84.4204 171.111 91.7862C171.111 99.152 177.082 105.123 184.448 105.123Z" fill="url(#paint11_linear_64_598)"/>
<path d="M184.25 93.187C187.109 93.187 189.427 90.869 189.427 88.0095C189.427 85.1501 187.109 82.832 184.25 82.832C181.39 82.832 179.072 85.1501 179.072 88.0095C179.072 90.869 181.39 93.187 184.25 93.187Z" fill="white"/>
<path d="M188.998 93.2317C188.581 92.9062 187.999 92.9175 187.589 93.2516C186.666 94.0066 185.509 94.4182 184.316 94.4166C183.162 94.4189 182.04 94.0323 181.131 93.319C180.714 92.9914 180.122 92.998 179.719 93.3435C178.674 94.2391 178.038 95.5307 178.038 97.2097V97.3612C178.038 97.7781 178.204 98.1779 178.499 98.4727C178.794 98.7675 179.193 98.9332 179.61 98.9332H189.286C189.703 98.9332 190.102 98.7676 190.397 98.4728C190.692 98.178 190.858 97.7781 190.858 97.3612V97.2097C190.858 95.4593 190.147 94.1292 188.998 93.2317Z" fill="white"/>
<path d="M118.766 167.481H102.231C102.066 167.481 101.908 167.415 101.791 167.298C101.674 167.181 101.608 167.023 101.608 166.858C101.608 166.692 101.674 166.534 101.791 166.417C101.908 166.3 102.066 166.234 102.231 166.234H118.766C118.849 166.233 118.932 166.248 119.008 166.279C119.085 166.309 119.155 166.355 119.214 166.413C119.274 166.471 119.32 166.54 119.352 166.616C119.385 166.693 119.401 166.775 119.401 166.858C119.401 166.94 119.385 167.022 119.352 167.099C119.32 167.175 119.274 167.244 119.214 167.302C119.155 167.36 119.085 167.406 119.008 167.437C118.932 167.467 118.849 167.482 118.766 167.481Z" fill="url(#paint12_linear_64_598)"/>
<path d="M145.313 167.481H128.778C128.613 167.481 128.455 167.415 128.338 167.298C128.221 167.181 128.155 167.023 128.155 166.857C128.155 166.692 128.221 166.534 128.338 166.417C128.455 166.3 128.613 166.234 128.778 166.234H145.313C145.479 166.234 145.637 166.3 145.754 166.417C145.871 166.534 145.937 166.692 145.937 166.857C145.937 167.023 145.871 167.181 145.754 167.298C145.637 167.415 145.479 167.481 145.313 167.481Z" fill="url(#paint13_linear_64_598)"/>
<path d="M171.86 167.481H155.325C155.16 167.481 155.001 167.415 154.884 167.298C154.768 167.181 154.702 167.023 154.702 166.857C154.702 166.692 154.768 166.534 154.884 166.417C155.001 166.3 155.16 166.234 155.325 166.234H171.86C172.025 166.234 172.184 166.3 172.301 166.417C172.418 166.534 172.483 166.692 172.483 166.857C172.483 167.023 172.418 167.181 172.301 167.298C172.184 167.415 172.025 167.481 171.86 167.481Z" fill="url(#paint14_linear_64_598)"/>
<path d="M126.117 90.3547H64.8565C64.641 90.3547 64.4343 90.269 64.2818 90.1166C64.1294 89.9642 64.0438 89.7575 64.0438 89.542V85.6545C64.0438 85.439 64.1294 85.2322 64.2818 85.0798C64.4343 84.9274 64.641 84.8418 64.8565 84.8418H126.117C126.333 84.8418 126.54 84.9274 126.692 85.0798C126.844 85.2322 126.93 85.439 126.93 85.6545V89.542C126.93 89.7575 126.844 89.9642 126.692 90.1166C126.54 90.269 126.333 90.3547 126.117 90.3547ZM79.1795 119.101H65.0059C64.7507 119.101 64.506 119 64.3256 118.819C64.1452 118.639 64.0438 118.394 64.0438 118.139V100.571C64.0438 100.315 64.1452 100.071 64.3256 99.8903C64.506 99.7099 64.7507 99.6085 65.0059 99.6085H79.1795C79.4346 99.6085 79.6793 99.7099 79.8598 99.8903C80.0402 100.071 80.1416 100.315 80.1416 100.571V118.139C80.1415 118.394 80.0401 118.639 79.8597 118.819C79.6793 119 79.4346 119.101 79.1795 119.101ZM109.423 119.101H95.2498C94.9947 119.101 94.75 119 94.5695 118.819C94.3891 118.639 94.2878 118.394 94.2878 118.139V100.571C94.2878 100.315 94.3891 100.071 94.5695 99.8903C94.75 99.7099 94.9947 99.6085 95.2498 99.6085H109.423C109.679 99.6086 109.923 99.71 110.104 99.8904C110.284 100.071 110.385 100.315 110.385 100.571V118.139C110.385 118.394 110.284 118.639 110.104 118.819C109.923 119 109.679 119.101 109.423 119.101ZM139.667 119.101H125.494C125.239 119.101 124.994 118.999 124.814 118.819C124.633 118.639 124.532 118.394 124.532 118.139V100.571C124.532 100.315 124.633 100.071 124.814 99.8903C124.994 99.7099 125.239 99.6085 125.494 99.6085H139.668C139.923 99.6085 140.167 99.7099 140.348 99.8903C140.528 100.071 140.63 100.315 140.63 100.571V118.139C140.63 118.394 140.528 118.639 140.348 118.819C140.167 119 139.923 119.101 139.667 119.101ZM139.974 84.8418H131.967C131.605 84.8418 131.312 85.2738 131.312 85.807V89.3897C131.312 89.9227 131.605 90.3549 131.967 90.3549H139.974C140.336 90.3549 140.629 89.9227 140.629 89.3897V85.8068C140.629 85.2738 140.336 84.8418 139.974 84.8418ZM63.8425 122.154H79.9401V124.941H63.8425V122.154ZM94.2878 122.154H110.385V124.941H94.2878V122.154ZM124.733 122.154H140.831V124.941H124.733V122.154ZM79.1795 151.242H65.0059C64.7508 151.242 64.5061 151.141 64.3257 150.961C64.1452 150.78 64.0439 150.536 64.0438 150.28V132.712C64.0438 132.457 64.1452 132.212 64.3256 132.032C64.506 131.851 64.7507 131.75 65.0059 131.75H79.1795C79.4346 131.75 79.6793 131.851 79.8598 132.032C80.0402 132.212 80.1416 132.457 80.1416 132.712V150.28C80.1415 150.536 80.0401 150.78 79.8597 150.961C79.6793 151.141 79.4346 151.242 79.1795 151.242ZM109.423 151.242H95.2496C94.9945 151.242 94.7498 151.141 94.5694 150.961C94.389 150.78 94.2876 150.536 94.2876 150.28V132.712C94.2876 132.457 94.3889 132.212 94.5693 132.032C94.7498 131.851 94.9945 131.75 95.2496 131.75H109.423C109.678 131.75 109.923 131.851 110.103 132.032C110.284 132.212 110.385 132.457 110.385 132.712V150.28C110.385 150.407 110.36 150.532 110.312 150.649C110.264 150.765 110.193 150.871 110.103 150.961C110.014 151.05 109.908 151.121 109.791 151.169C109.675 151.217 109.55 151.242 109.423 151.242ZM139.667 151.242H125.494C125.239 151.242 124.994 151.141 124.814 150.96C124.633 150.78 124.532 150.535 124.532 150.28V132.712C124.532 132.457 124.633 132.212 124.814 132.032C124.994 131.851 125.239 131.75 125.494 131.75H139.667C139.923 131.75 140.167 131.851 140.348 132.032C140.528 132.212 140.629 132.457 140.629 132.712V150.28C140.629 150.536 140.528 150.78 140.348 150.961C140.167 151.141 139.923 151.242 139.667 151.242ZM63.8425 154.295H79.9401V157.082H63.8425V154.295ZM94.2878 154.295H110.385V157.082H94.2878V154.295ZM124.733 154.295H140.831V157.082H124.733V154.295Z" fill="#E0E9FF"/>
<path d="M262.56 192.219C267.135 162.023 250.291 165.249 229.477 155.989C219.973 149.347 219.877 136.492 209.168 129.983C206.818 128.482 203.439 125.471 200.661 127.363C200.659 127.363 200.659 127.365 200.659 127.365C199.407 128.685 200.354 130.239 200.62 131.793C202.122 136.761 206.322 140.002 209.09 144.161C214.859 155.488 217.313 169.308 212.077 181.318C211.36 182.732 210.646 185.198 209.354 185.746C198.841 182.253 191.15 154.896 177.088 160.95C174.355 162.096 182.191 171.429 184.365 174.42C186.767 180.835 188.968 187.115 193.158 192.721V192.723C195.776 196.957 198.201 201.338 200.993 205.399C200.995 205.399 200.995 205.399 200.995 205.401C204.243 210.166 208.209 214.534 213.221 217.477C216.053 218.961 217.897 221.428 219.207 224.384H264.21C262.102 213.692 261.314 202.583 262.56 192.219Z" fill="#FFC9D0"/>
<path d="M186.046 178.583C186.049 178.611 186.054 178.639 186.06 178.669C185.978 178.577 185.896 178.485 185.814 178.394C185.93 178.431 186.058 178.495 186.046 178.583ZM225.132 224.384H219.207C217.897 221.428 216.053 218.962 213.221 217.477C208.205 214.531 204.249 210.17 200.995 205.401C200.995 205.399 200.995 205.399 200.993 205.399C195.924 196.676 189.065 188.412 186.06 178.669C186.061 178.671 186.061 178.671 186.061 178.673C196.415 188.969 200.184 206.145 215.31 212.345C219.192 213.197 222.628 218.136 225.132 224.384ZM218.433 173.033C216.012 178.283 216.363 183.86 209.726 185.712C217.812 174.358 215.924 152.851 207.075 141.437C203.905 138.131 200.739 134.159 200.209 129.561C203.015 138.103 212.26 140.636 213.785 149.764C214.624 154.988 220.855 167.783 218.433 173.033ZM254.532 165.381C250.408 165.65 248.58 163.433 244.448 163.22C238.295 163.755 233.55 160.059 229.472 155.983C237.095 160.733 246.954 160.621 254.532 165.381Z" fill="#FFBFC8"/>
<path d="M184.698 167.719C184.778 168.834 181.047 170.068 181.047 170.068C169.952 156.857 182.55 159.665 184.698 167.719ZM209.714 130.399C208.04 131.659 205.269 133.436 203.307 132.331C202.314 131.238 200.008 128.51 200.66 127.364C203.261 125.625 205.604 127.007 209.714 130.399Z" fill="#FFD9DE"/>
<path d="M80.2282 149.191C80.2236 149.586 80.3575 150.362 80.6048 151.408C80.6956 151.791 80.8021 152.211 80.9224 152.66C81.2218 153.781 81.6076 155.094 82.0613 156.515C82.296 157.253 82.5388 157.989 82.7895 158.722C82.7941 158.733 82.7963 158.745 82.8008 158.756C82.8575 158.919 82.9121 159.083 82.9688 159.248C83.0322 159.425 83.0934 159.602 83.1548 159.779C83.3431 160.312 83.5359 160.852 83.7355 161.395C83.7514 161.438 83.7695 161.481 83.7831 161.526C83.9494 161.971 84.1173 162.416 84.2868 162.86C84.6476 163.802 85.0235 164.739 85.4143 165.669C85.4644 165.789 85.5142 165.907 85.5641 166.025C85.6676 166.267 85.772 166.509 85.8772 166.751C85.9361 166.885 85.9953 167.018 86.0542 167.15C86.1473 167.361 86.2402 167.57 86.3356 167.776C86.3696 167.853 86.4058 167.93 86.4423 168.008C86.5508 168.247 86.6619 168.485 86.7756 168.722C86.8778 168.938 86.9798 169.151 87.082 169.362C87.4344 170.082 87.8066 170.793 88.1982 171.492L89.3734 170.188C89.5527 169.988 89.7364 169.784 89.9225 169.578L90.2537 169.21L91.6262 167.683L91.776 167.518L91.9235 167.354H91.9257C91.9529 167.323 91.9846 167.289 92.0141 167.255L92.0914 167.168L92.1231 167.132L92.409 166.817V166.814L92.7856 166.397L93.9086 165.149L93.9131 165.154C93.9698 165.213 94.0289 165.272 94.0901 165.335C94.2535 165.501 94.4259 165.682 94.6028 165.875C95.068 166.377 95.574 166.966 96.048 167.626C96.082 167.669 96.1137 167.715 96.1432 167.76C96.3508 168.05 96.5461 168.348 96.7285 168.654C96.8125 168.795 96.8941 168.938 96.9734 169.085C96.9961 169.151 97.0165 169.215 97.0369 169.28C97.1952 169.79 97.3113 170.312 97.384 170.841C97.4746 171.501 97.5041 172.182 97.4837 172.872C97.4633 173.552 97.3929 174.247 97.2796 174.945C97.2025 175.43 97.1071 175.912 96.9936 176.39C96.6442 177.899 96.1294 179.419 95.5394 180.894C95.3542 181.357 95.1621 181.818 94.9632 182.275C94.6392 183.013 94.3019 183.746 93.9514 184.471C93.6194 185.155 93.2806 185.836 92.9352 186.513C92.7616 186.816 92.5861 187.118 92.4088 187.418C92.3952 187.441 92.3816 187.464 92.3703 187.486C92.2772 187.643 92.1843 187.799 92.0914 187.954C91.9869 188.128 91.8827 188.303 91.776 188.478C90.8705 189.966 89.9156 191.423 88.913 192.847C88.9037 192.863 88.8931 192.879 88.8813 192.893C88.4943 193.443 88.0994 193.987 87.6969 194.526C87.5834 194.678 87.4701 194.83 87.3543 194.982C87.2319 195.145 87.1071 195.309 86.98 195.47C81.272 202.875 74.1599 209.204 64.8197 215.155C63.7777 215.798 62.8145 216.561 61.9498 217.428C61.8614 217.515 61.7774 217.603 61.6935 217.692C61.6144 217.774 61.5365 217.858 61.4599 217.943C61.2384 218.184 61.0258 218.433 60.8225 218.69C60.7794 218.742 60.7364 218.796 60.6954 218.851C60.6365 218.923 60.5798 218.998 60.5229 219.073L60.5094 219.093C60.3648 219.285 60.2256 219.481 60.092 219.681C59.9541 219.881 59.8224 220.085 59.6973 220.294C59.316 220.917 58.9816 221.567 58.6967 222.24C58.4721 222.785 58.2292 223.522 57.9843 224.314H16.8621C18.9902 219.69 20.8572 215.323 22.0278 211.945C22.164 208.701 21.9075 205.722 21.4493 202.893C20.7893 198.818 19.7161 195.052 18.8041 191.243C18.7996 191.221 18.7928 191.198 18.7883 191.175C18.5001 189.973 18.2302 188.766 17.9943 187.541C17.992 187.517 17.9874 187.494 17.9807 187.471C17.1276 183.029 16.7374 178.376 17.6857 172.983C18.3686 169.083 19.7524 164.798 22.164 159.927C22.1661 159.92 22.1691 159.914 22.173 159.909V159.906C23.9767 155.14 25.6077 151.049 25.871 149.827C26.4608 147.063 24.7956 139.118 25.9935 138.134C26.2908 137.889 27.2867 138.002 28.539 138.59C30.397 139.45 31.8694 140.743 32.9878 142.327C33.2382 142.678 33.4699 143.042 33.6821 143.418C36.2684 147.964 36.4023 154.328 34.7303 159.698C34.5443 160.612 33.9522 163.2 33.6821 165.256C33.5233 166.458 33.4757 167.479 33.6821 167.878C33.7387 167.99 33.816 168.053 33.9157 168.058C33.986 168.064 34.07 168.039 34.1675 167.98C38.5642 163.522 43.3148 158.271 47.7953 153.388C47.886 153.291 47.9768 153.191 48.0652 153.096C48.6596 152.444 49.2516 151.802 49.8349 151.169C53.1426 147.63 52.7796 147.662 54.3222 146.659C54.7985 146.348 55.4588 145.938 56.4684 145.291C57.0914 144.897 57.7385 144.541 58.406 144.227C58.7406 144.07 59.0795 143.922 59.4222 143.783C59.4789 143.758 59.538 143.735 59.5969 143.713C60.629 143.302 61.6999 142.962 62.7911 142.664C63.247 142.537 63.7099 142.419 64.1726 142.306C64.8019 142.155 65.4326 142.009 66.0647 141.87C67.2216 141.609 68.3856 141.362 69.5358 141.088C70.4342 140.875 71.3258 140.648 72.2013 140.387C73.9753 139.858 75.6883 139.2 77.2694 138.272C79.4179 137.054 86.1557 135.157 91.7753 134.143C91.882 134.123 91.9863 134.105 92.0907 134.084C92.1974 134.066 92.304 134.048 92.4084 134.03C96.4557 133.338 99.7861 133.147 100.158 134.071C101.61 137.683 97.6263 140.829 92.4084 143.536C92.304 143.59 92.1974 143.645 92.0907 143.699C91.9863 143.753 91.882 143.806 91.7753 143.86C90.1215 144.69 88.3632 145.48 86.63 146.226C86.1308 146.442 85.6341 146.653 85.1418 146.861C83.4312 147.585 81.7796 148.266 80.3163 148.905C80.3139 148.908 80.3107 148.909 80.3073 148.91C80.2576 148.937 80.2304 149.032 80.2282 149.191Z" fill="#FFC9D0"/>
<path d="M61.9492 217.426C61.8608 217.512 61.7767 217.601 61.6929 217.689C61.6134 217.771 61.5363 217.855 61.4593 217.941C61.3045 218.109 61.1539 218.282 61.0079 218.458C60.9445 218.533 60.8808 218.61 60.8219 218.687C60.7788 218.739 60.7358 218.794 60.6948 218.848C60.6359 218.921 60.5792 218.996 60.5223 219.071L60.5087 219.091C60.365 219.284 60.2258 219.479 60.0914 219.679C59.9556 219.88 59.824 220.084 59.6966 220.291C59.3807 220.811 59.0959 221.349 58.8435 221.902C58.7937 222.013 58.7438 222.126 58.696 222.238C58.0154 216.323 50.395 215.355 47.1849 216.296C43.9769 217.238 40.0703 215.062 38.276 214.515C36.4814 213.969 31.479 214.366 27.7018 217.081C26.7512 217.764 25.6056 220.541 24.4258 224.311H16.8619C18.99 219.688 20.857 215.321 22.0276 211.943C22.6355 210.187 22.2408 206.872 21.4491 202.891C20.739 199.329 19.7137 195.232 18.8039 191.241C18.7994 191.218 18.7926 191.196 18.7881 191.173C18.5091 189.946 18.239 188.728 17.9941 187.539C17.9918 187.515 17.9872 187.491 17.9805 187.468C17.1183 183.253 16.5625 179.408 16.8802 176.763C17.005 175.726 17.2885 174.435 17.6855 172.981C18.7224 169.179 20.5167 164.272 22.1638 159.925L22.1706 159.904C22.1706 159.904 22.1706 159.907 22.1728 159.907C22.6879 160.732 22.9442 161.597 22.6607 162.4C21.6512 165.27 20.8933 171.599 19.2895 176.894C17.6832 182.187 24.0195 203.973 26.8736 207.269C29.8387 210.695 35.9233 208.347 42.5614 211.666C45.9303 213.354 51.8085 213.118 54.5468 213.172C56.6996 213.213 60.4428 216.162 61.9492 217.426Z" fill="#FFBAC3"/>
<path d="M87.3635 194.971C83.5637 197.451 61.9802 197.9 59.0213 198.576C48.9456 200.877 31.4423 199.749 33.6816 193.368C36.0458 186.631 36.6105 171.026 33.7661 168.199C35.7677 166.286 44.847 156.619 49.834 151.167L78.5118 143.375L80.7071 144.735C79.0098 145.827 77.098 146.903 74.9554 147.944L88.1967 171.49L93.9069 165.147C93.9069 165.147 95.6555 166.421 96.4487 168.47C99.2049 175.591 96.8908 182.699 87.3635 194.971Z" fill="#FFBAC3"/>
<path d="M88.4871 96.8281H37.2833C35.2938 96.8281 33.6812 98.3094 33.6812 100.134V189.608C33.6812 191.433 35.2938 192.912 37.2833 192.912H88.4869C90.4765 192.912 92.0912 191.434 92.0912 189.608V100.134C92.0912 98.3094 90.4765 96.8281 88.4871 96.8281Z" fill="white"/>
<path d="M92.2588 96.6378C91.8482 95.2722 90.6435 94.258 89.187 94.1422C89.0933 94.135 88.9995 94.1312 88.9056 94.1309H36.4929C36.1616 94.1309 35.8419 94.1762 35.5401 94.2648C35.345 94.3192 35.1567 94.3919 34.9752 94.4757C34.3782 94.7676 33.8752 95.2214 33.5238 95.7854C33.1724 96.3494 32.9867 97.0009 32.9878 97.6654V191.928C32.9878 192.636 33.1942 193.296 33.5482 193.848C33.7061 194.097 33.896 194.324 34.113 194.524C34.7564 195.131 35.6081 195.469 36.4929 195.467H88.9058C89.8246 195.467 90.6616 195.111 91.2856 194.524C91.6411 194.191 91.9243 193.79 92.1175 193.343C92.3107 192.896 92.4098 192.415 92.4086 191.928V97.6654C92.4086 97.3069 92.3563 96.9621 92.2588 96.6378ZM33.6819 100.134C33.6819 99.9093 33.7068 99.6913 33.7521 99.4781C33.7884 99.3147 33.8382 99.1536 33.8996 98.9971C33.9791 98.7997 34.0766 98.6091 34.1946 98.4299C34.3166 98.2424 34.458 98.0682 34.6165 97.9103C34.9455 97.5764 35.3382 97.3118 35.7712 97.1322C36.1349 96.9749 36.5219 96.8783 36.9169 96.8463C36.9305 96.8418 36.9418 96.8418 36.9554 96.8418C36.9984 96.8372 37.0417 96.835 37.0848 96.8327C37.1459 96.8304 37.2073 96.8282 37.2685 96.8282H57.421C57.6841 96.8282 57.893 97.021 57.9043 97.2637C57.961 98.5206 58.6099 99.6526 59.5967 100.428C60.4407 101.093 61.5388 101.499 62.7297 101.499C62.7501 101.499 62.7705 101.499 62.7909 101.497C63.2587 101.494 63.7236 101.425 64.1724 101.293C66.0622 100.746 67.4643 99.1489 67.5504 97.2637C67.5617 97.021 67.7704 96.8282 68.0312 96.8282H88.1882C88.558 96.8282 88.9165 96.8803 89.2546 96.9757C89.9851 97.1844 90.6157 97.6017 91.0627 98.1553C91.133 98.2394 91.1966 98.3277 91.2555 98.4186C91.3167 98.5092 91.3713 98.6023 91.4212 98.7C91.471 98.7952 91.5164 98.8951 91.5574 98.9971C91.5981 99.097 91.6321 99.2012 91.6618 99.3079C91.7366 99.571 91.7753 99.8479 91.7753 100.134V189.608C91.7753 189.894 91.7368 190.17 91.6618 190.436C91.6329 190.54 91.598 190.643 91.5574 190.744C91.5166 190.846 91.4712 190.944 91.4212 191.041C91.2432 191.381 91.0075 191.686 90.7247 191.944C90.5613 192.096 90.3835 192.231 90.1938 192.348C90.0508 192.439 89.9012 192.516 89.7469 192.586H89.7447C89.5031 192.694 89.2504 192.776 88.9913 192.829C88.9651 192.835 88.9386 192.841 88.912 192.845C88.7204 192.882 88.5262 192.904 88.3312 192.911C88.2859 192.913 88.2406 192.913 88.1928 192.913H37.2642C36.2137 192.913 35.27 192.495 34.6165 191.831C34.4856 191.7 34.3664 191.558 34.2603 191.407C34.1133 191.201 33.9922 190.979 33.8996 190.744C33.7556 190.382 33.6817 189.997 33.6819 189.607V100.134Z" fill="url(#paint15_linear_64_598)"/>
<path d="M60.3286 97.7072C60.3286 96.403 61.403 95.3457 62.7289 95.3457C64.0547 95.3457 65.1293 96.403 65.1293 97.7072C65.1293 99.0119 64.0547 100.069 62.7289 100.069C61.403 100.069 60.3286 99.0119 60.3286 97.7072Z" fill="white"/>
<path d="M60.7822 97.7081C60.7822 96.6504 61.6539 95.793 62.7288 95.793C63.8036 95.793 64.675 96.6504 64.675 97.7081C64.675 98.7659 63.8036 99.6233 62.7288 99.6233C61.6539 99.6233 60.7822 98.7659 60.7822 97.7081Z" fill="url(#paint16_linear_64_598)"/>
<path d="M62.7285 96.8664C62.7285 96.5637 62.9778 96.3184 63.2854 96.3184C63.5929 96.3184 63.8422 96.5637 63.8422 96.8664C63.8422 97.169 63.5929 97.4143 63.2854 97.4143C62.9778 97.4143 62.7285 97.169 62.7285 96.8664Z" fill="white"/>
<path d="M48.8127 144.941H43.5913V142.583L48.8127 136.377H51.3108V142.717H52.6056V144.941H51.3108V146.869H48.8127V144.941ZM48.8127 142.717V139.471L46.0538 142.717H48.8127ZM54.6603 136.553H61.4651V138.84H56.8558L56.6096 140.388C56.9128 140.244 57.2299 140.131 57.556 140.05C57.859 139.976 58.1696 139.939 58.4814 139.938C59.5133 139.938 60.3508 140.25 60.9937 140.874C61.6365 141.498 61.9577 142.283 61.9577 143.231C61.9577 143.897 61.7922 144.537 61.4616 145.152C61.1309 145.767 60.6616 146.236 60.0541 146.559C59.4466 146.883 58.6689 147.045 57.7214 147.045C57.0412 147.045 56.4584 146.981 55.9728 146.852C55.4872 146.723 55.0744 146.53 54.7343 146.275C54.3942 146.019 54.1185 145.729 53.9073 145.405C53.6962 145.082 53.5203 144.678 53.3795 144.195L56.2787 143.878C56.3492 144.343 56.5132 144.696 56.7713 144.938C57.0292 145.179 57.3366 145.3 57.6932 145.3C58.0919 145.3 58.4215 145.149 58.6819 144.846C58.9423 144.543 59.0725 144.092 59.0725 143.492C59.0725 142.877 58.941 142.427 58.6784 142.141C58.4155 141.854 58.0661 141.711 57.63 141.711C57.3531 141.711 57.0857 141.779 56.8278 141.915C56.6354 142.014 56.4242 142.192 56.1945 142.45L53.7526 142.098L54.6603 136.553ZM71.4083 138.875L68.5583 139.227C68.4833 138.828 68.3578 138.547 68.1819 138.382C68.006 138.218 67.789 138.136 67.5309 138.136C67.0663 138.136 66.7052 138.371 66.4473 138.84C66.2596 139.178 66.1212 139.9 66.0322 141.007C66.3746 140.66 66.7264 140.403 67.0878 140.237C67.4489 140.07 67.8665 139.987 68.3403 139.987C69.2598 139.987 70.0372 140.315 70.673 140.972C71.3085 141.629 71.6264 142.462 71.6264 143.47C71.6264 144.15 71.4657 144.772 71.1444 145.335C70.823 145.898 70.3774 146.324 69.8073 146.612C69.2373 146.901 68.5231 147.045 67.6646 147.045C66.6325 147.045 65.8045 146.869 65.1805 146.517C64.5565 146.165 64.0582 145.604 63.6851 144.832C63.312 144.06 63.1255 143.039 63.1255 141.767C63.1255 139.905 63.5172 138.541 64.3006 137.675C65.0841 136.81 66.17 136.377 67.5587 136.377C68.3797 136.377 69.0282 136.472 69.5045 136.662C69.9806 136.852 70.3759 137.13 70.6903 137.496C71.0047 137.862 71.2441 138.321 71.4083 138.875ZM66.1306 143.47C66.1306 144.028 66.2713 144.466 66.553 144.782C66.8344 145.099 67.1792 145.257 67.5874 145.257C67.9627 145.257 68.2771 145.115 68.5303 144.828C68.7837 144.542 68.9104 144.115 68.9104 143.547C68.9104 142.966 68.7789 142.522 68.5163 142.217C68.2534 141.912 67.9275 141.76 67.5381 141.76C67.1393 141.76 66.8051 141.908 66.5355 142.203C66.2654 142.499 66.1306 142.921 66.1306 143.47ZM73.8853 136.553H80.6901V138.84H76.081L75.8348 140.388C76.138 140.244 76.4551 140.131 76.7812 140.05C77.0842 139.976 77.3948 139.939 77.7066 139.938C78.7386 139.938 79.576 140.25 80.219 140.874C80.8617 141.498 81.1829 142.283 81.1829 143.231C81.1829 143.897 81.0175 144.537 80.6868 145.152C80.3562 145.767 79.8869 146.236 79.2793 146.559C78.6718 146.883 77.8941 147.045 76.9467 147.045C76.2664 147.045 75.6836 146.981 75.198 146.852C74.7125 146.723 74.2996 146.53 73.9595 146.275C73.6194 146.019 73.3437 145.729 73.1326 145.405C72.9214 145.082 72.7455 144.678 72.6048 144.195L75.504 143.878C75.5744 144.343 75.7384 144.696 75.9965 144.938C76.2545 145.179 76.5618 145.3 76.9184 145.3C77.3171 145.3 77.6467 145.149 77.9071 144.846C78.1675 144.543 78.2977 144.092 78.2977 143.492C78.2977 142.877 78.1663 142.427 77.9036 142.141C77.6409 141.854 77.2913 141.711 76.8552 141.711C76.5783 141.711 76.3109 141.779 76.053 141.915C75.8606 142.014 75.6494 142.192 75.4197 142.45L72.9779 142.098L73.8853 136.553Z" fill="url(#paint17_linear_64_598)"/>
<path d="M69.8811 154.416H40.7391C40.4153 154.416 40.1526 154.061 40.1526 153.625C40.1526 153.188 40.4153 152.834 40.7391 152.834H69.8811C70.205 152.834 70.4676 153.188 70.4676 153.625C70.4674 154.061 70.205 154.416 69.8811 154.416ZM84.8128 170.106H56.6407C56.3169 170.106 56.0542 169.752 56.0542 169.316C56.0542 168.879 56.3169 168.525 56.6407 168.525H84.8126C85.1365 168.525 85.3991 168.879 85.3991 169.316C85.3991 169.752 85.1367 170.106 84.8128 170.106ZM85.0384 154.415H73.2193C72.8955 154.415 72.6326 154.061 72.6326 153.625C72.6326 153.188 72.8955 152.834 73.2193 152.834H85.0384C85.3623 152.834 85.6249 153.188 85.6249 153.625C85.6247 154.061 85.3623 154.415 85.0384 154.415ZM45.4306 161.835H40.7391C40.4153 161.835 40.1526 161.481 40.1526 161.044C40.1526 160.608 40.4153 160.253 40.7391 160.253H45.4306C45.7547 160.253 46.0171 160.607 46.0171 161.044C46.0169 161.481 45.7545 161.835 45.4306 161.835ZM51.7688 170.106H40.7391C40.4153 170.106 40.1526 169.752 40.1526 169.315C40.1526 168.879 40.4153 168.525 40.7391 168.525H51.7688C52.0926 168.525 52.3553 168.879 52.3553 169.315C52.3551 169.752 52.0926 170.106 51.7688 170.106ZM85.0384 161.835H79.3995C79.0756 161.835 78.813 161.481 78.813 161.044C78.813 160.607 79.0756 160.253 79.3995 160.253H85.0384C85.3623 160.253 85.6249 160.607 85.6249 161.044C85.6247 161.481 85.3623 161.835 85.0384 161.835ZM75.4634 161.835H49.4456C49.1217 161.835 48.8591 161.481 48.8591 161.044C48.8591 160.607 49.1217 160.253 49.4456 160.253H75.4634C75.7873 160.253 76.0499 160.607 76.0499 161.044C76.0499 161.481 75.7873 161.835 75.4634 161.835Z" fill="#C8DCFA"/>
<path d="M94.2502 166.023C97.9081 167.998 98.1257 174.316 92.7109 176.132C87.3882 177.926 78.1003 181.432 76.9905 176.319C76.258 173.355 78.9402 170.756 81.3104 169.311C72.6857 170.259 73.6173 162.971 79.9806 159.632C71.3464 161.594 69.3924 154.191 76.9267 150.308C80.9614 148.351 93.0749 144.618 93.7115 144.614C96.9669 144.595 98.2524 145.76 98.9085 148.782C99.4683 151.386 97.4531 153.488 94.8272 154.998C99.7476 156.16 100.669 163.452 94.2502 166.023Z" fill="#FFC9D0"/>
<path d="M79.6089 152.257C80.3835 153.679 80.675 155.361 80.5092 156.853C80.4528 157.361 80.1044 157.757 79.6697 157.831C78.1943 158.08 74.8383 158.446 74.4529 156.706C73.9183 154.291 76.9487 152.517 78.3937 151.82C78.8368 151.606 79.3518 151.785 79.6089 152.257ZM81.4606 161.107C82.8036 162.36 83.2055 164.324 82.45 166.347C82.3157 166.707 82.029 166.957 81.6965 167.017C80.336 167.263 76.7019 167.739 76.3 165.924C75.7347 163.371 79.1553 161.534 80.4727 160.929C80.8052 160.776 81.1812 160.846 81.4606 161.107ZM83.8569 170.817C85.0336 172.236 85.3348 174.11 84.8272 175.824C84.7063 176.232 84.4041 176.532 84.038 176.597C82.6501 176.844 79.0762 177.296 78.678 175.497C78.124 172.995 81.3969 171.181 82.7683 170.54C83.1455 170.364 83.5743 170.476 83.8569 170.817Z" fill="#FFD9DE"/>
<path d="M94.8188 166.385C92.0253 167.522 84.2815 169.419 80.056 170.181C80.4605 169.872 80.879 169.581 81.3102 169.31L94.25 166.023C94.4479 166.13 94.638 166.251 94.8188 166.385ZM95.8229 155.35C91.7381 156.806 84.2712 158.963 78.9437 160.303C79.2829 160.07 79.6286 159.846 79.9804 159.631L94.8711 155.01C95.1984 155.093 95.517 155.207 95.8229 155.35Z" fill="#FFBAC3"/>
<path d="M52.3151 87.6331V102.402C52.3153 102.728 52.2342 103.049 52.0792 103.336C51.9242 103.623 51.7001 103.867 51.4272 104.045C51.2641 104.153 51.0858 104.235 50.8982 104.289C50.72 104.341 50.5355 104.367 50.35 104.367H28.7437C28.2948 104.367 27.8593 104.214 27.5101 103.932C27.2814 103.748 27.0969 103.515 26.9703 103.25C26.8436 102.985 26.778 102.695 26.7783 102.402V87.6331C26.7776 87.2042 26.918 86.7869 27.178 86.4457C27.361 86.2038 27.5976 86.0076 27.8692 85.8727C28.1409 85.7377 28.4401 85.6676 28.7435 85.668H50.3496C50.6529 85.6677 50.9521 85.7378 51.2237 85.8728C51.4954 86.0077 51.732 86.2038 51.9151 86.4457C52.0202 86.5838 52.1064 86.7353 52.1715 86.8962C52.2668 87.1302 52.3156 87.3805 52.3151 87.6331Z" fill="url(#paint18_linear_64_598)"/>
<path d="M42.8742 96.8297L41.9577 96.0562L41.5358 95.7L39.6778 94.1324L39.5484 94.0234L39.4167 94.1324L37.604 95.6229L37.1844 95.97L35.771 97.1338L35.7619 97.1406L34.1987 98.4269L34.1941 98.4315L32.9871 99.4253L27.5105 103.933C27.6572 104.051 27.82 104.147 27.9938 104.219L32.9871 100.108L33.7516 99.4799L36.9526 96.846L36.9549 96.8437L37.7285 96.2063L38.1755 95.8388L39.5457 94.7113L40.9501 95.8955L41.3969 96.2743L42.057 96.8301L50.898 104.289C51.0852 104.235 51.2634 104.153 51.4266 104.047L42.8742 96.8297Z" fill="white"/>
<path d="M52.3152 87.6331L51.7262 89.2262L42.8778 95.5232C41.9393 96.1934 40.8144 96.5528 39.6611 96.5507C38.5079 96.5528 37.383 96.1934 36.4445 95.5232L27.5961 89.2262L26.7788 87.6331C26.7788 87.1867 26.9273 86.7755 27.1785 86.4457C27.3615 86.2038 27.5981 86.0076 27.8697 85.8727C28.1414 85.7377 28.4406 85.6676 28.744 85.668H50.3501C50.6534 85.6677 50.9526 85.7378 51.2242 85.8728C51.4959 86.0077 51.7325 86.2038 51.9155 86.4457C52.1756 86.7868 52.316 87.2041 52.3152 87.6331Z" fill="white"/>
<path d="M52.1722 86.8962L51.1071 88.9928L42.5982 95.1163C41.7432 95.7332 40.7156 96.0651 39.6612 96.0651C38.6069 96.0651 37.5793 95.7332 36.7242 95.1163L28.2153 88.9928L27.0332 86.6659C27.0769 86.5893 27.1253 86.5155 27.1784 86.4457C27.3614 86.2038 27.598 86.0076 27.8697 85.8727C28.1413 85.7377 28.4406 85.6676 28.7439 85.668H50.35C50.6533 85.6677 50.9526 85.7378 51.2242 85.8728C51.4958 86.0077 51.7325 86.2038 51.9155 86.4457C52.0202 86.5831 52.1069 86.7341 52.1722 86.8962Z" fill="url(#paint19_linear_64_598)"/>
<path d="M27.5103 89.8097C29.2753 89.8097 30.7062 88.3789 30.7062 86.6138C30.7062 84.8488 29.2753 83.418 27.5103 83.418C25.7453 83.418 24.3145 84.8488 24.3145 86.6138C24.3145 88.3789 25.7453 89.8097 27.5103 89.8097Z" fill="url(#paint20_linear_64_598)"/>
<path d="M52.6205 117.343L62.5812 109.721C62.9871 109.411 63.5843 109.411 63.9903 109.721L73.9704 117.343C74.2128 117.529 74.3525 117.8 74.3525 118.086V128.008C74.3525 128.546 73.8661 128.983 73.266 128.983H53.3253C52.7254 128.983 52.239 128.546 52.239 128.008V118.085C52.239 117.8 52.3785 117.529 52.6205 117.343Z" fill="#B4D0FA"/>
<path d="M57.0841 125.74H69.4868C69.5447 125.74 69.6003 125.717 69.6412 125.676C69.6822 125.635 69.7052 125.579 69.7052 125.521V110.089C69.7052 110.032 69.6822 109.976 69.6412 109.935C69.6003 109.894 69.5447 109.871 69.4868 109.871H59.5929C59.535 109.871 59.4795 109.894 59.4386 109.935L56.9298 112.443C56.9095 112.463 56.8934 112.487 56.8824 112.514C56.8714 112.54 56.8657 112.569 56.8657 112.597V125.521C56.8658 125.579 56.8888 125.635 56.9298 125.676C56.9707 125.717 57.0262 125.74 57.0841 125.74Z" fill="white"/>
<path d="M56.8657 112.507L59.5025 109.871V112.507H56.8657ZM58.4965 124.302H68.3482C68.3789 124.302 68.4082 124.314 68.4299 124.335C68.4516 124.357 68.4638 124.387 68.4638 124.417C68.4638 124.448 68.4516 124.477 68.4299 124.499C68.4082 124.521 68.3789 124.533 68.3482 124.533H58.4965C58.4659 124.533 58.4365 124.521 58.4148 124.499C58.3931 124.477 58.3809 124.448 58.3809 124.417C58.3809 124.387 58.3931 124.357 58.4148 124.335C58.4365 124.314 58.4659 124.302 58.4965 124.302ZM65.3995 122.042H68.3482C68.3789 122.042 68.4082 122.054 68.4299 122.076C68.4516 122.098 68.4638 122.127 68.4638 122.158C68.4638 122.188 68.4516 122.218 68.4299 122.239C68.4082 122.261 68.3789 122.273 68.3482 122.273H65.3995C65.3689 122.273 65.3395 122.261 65.3178 122.239C65.2962 122.218 65.284 122.188 65.284 122.158C65.284 122.127 65.2962 122.098 65.3178 122.076C65.3395 122.054 65.3689 122.042 65.3995 122.042ZM60.1914 122.042H64.7599C64.7905 122.042 64.8199 122.054 64.8416 122.076C64.8633 122.098 64.8755 122.127 64.8755 122.158C64.8755 122.188 64.8633 122.218 64.8416 122.239C64.8199 122.261 64.7905 122.273 64.7599 122.273H60.1914C60.1607 122.273 60.1313 122.261 60.1096 122.239C60.088 122.218 60.0758 122.188 60.0758 122.158C60.0758 122.127 60.088 122.098 60.1096 122.076C60.1313 122.054 60.1607 122.042 60.1914 122.042ZM63.4459 123.236H68.3482C68.3789 123.236 68.4082 123.248 68.4299 123.27C68.4516 123.291 68.4638 123.321 68.4638 123.351C68.4638 123.382 68.4516 123.412 68.4299 123.433C68.4082 123.455 68.3789 123.467 68.3482 123.467H63.4459C63.4153 123.467 63.3859 123.455 63.3642 123.433C63.3425 123.412 63.3304 123.382 63.3304 123.351C63.3304 123.321 63.3425 123.291 63.3642 123.27C63.3859 123.248 63.4153 123.236 63.4459 123.236ZM58.4965 123.236H62.2711C62.3017 123.236 62.3311 123.248 62.3528 123.27C62.3745 123.291 62.3866 123.321 62.3866 123.351C62.3866 123.382 62.3745 123.412 62.3528 123.433C62.3311 123.455 62.3017 123.467 62.2711 123.467H58.4965C58.467 123.465 58.4394 123.452 58.4191 123.431C58.3989 123.409 58.3876 123.381 58.3876 123.351C58.3876 123.322 58.3989 123.294 58.4191 123.272C58.4394 123.251 58.467 123.238 58.4965 123.236ZM58.4817 122.042H59.4402C59.4669 122.042 59.4925 122.053 59.5113 122.072C59.5302 122.09 59.5408 122.116 59.5408 122.143C59.5408 122.169 59.5302 122.195 59.5113 122.214C59.4925 122.233 59.4669 122.243 59.4402 122.243H58.4817C58.455 122.243 58.4294 122.233 58.4106 122.214C58.3917 122.195 58.3811 122.169 58.3811 122.143C58.3811 122.129 58.3837 122.116 58.3887 122.104C58.3938 122.092 58.4012 122.081 58.4105 122.071C58.4199 122.062 58.431 122.055 58.4432 122.05C58.4554 122.045 58.4685 122.042 58.4817 122.042ZM58.4965 120.848H68.3482C68.3789 120.848 68.4082 120.86 68.4299 120.882C68.4516 120.904 68.4638 120.933 68.4638 120.964C68.4638 120.994 68.4516 121.024 68.4299 121.045C68.4082 121.067 68.3789 121.079 68.3482 121.079H58.4965C58.4659 121.079 58.4365 121.067 58.4148 121.045C58.3931 121.024 58.3809 120.994 58.3809 120.964C58.3809 120.933 58.3931 120.904 58.4148 120.882C58.4365 120.86 58.4659 120.848 58.4965 120.848ZM65.3995 118.588H68.3482C68.3789 118.588 68.4082 118.6 68.4299 118.622C68.4516 118.644 68.4638 118.673 68.4638 118.704C68.4638 118.734 68.4516 118.764 68.4299 118.786C68.4082 118.807 68.3789 118.819 68.3482 118.819H65.3995C65.3689 118.819 65.3395 118.807 65.3178 118.786C65.2962 118.764 65.284 118.734 65.284 118.704C65.284 118.673 65.2962 118.644 65.3178 118.622C65.3395 118.6 65.3689 118.588 65.3995 118.588ZM60.1914 118.588H64.7599C64.7905 118.588 64.8199 118.6 64.8416 118.622C64.8633 118.644 64.8755 118.673 64.8755 118.704C64.8755 118.734 64.8633 118.764 64.8416 118.786C64.8199 118.807 64.7905 118.819 64.7599 118.819H60.1914C60.1607 118.819 60.1313 118.807 60.1096 118.786C60.088 118.764 60.0758 118.734 60.0758 118.704C60.0758 118.673 60.088 118.644 60.1096 118.622C60.1313 118.6 60.1607 118.588 60.1914 118.588ZM63.4459 119.782H68.3482C68.3789 119.782 68.4082 119.794 68.4299 119.816C68.4516 119.838 68.4638 119.867 68.4638 119.898C68.4638 119.929 68.4516 119.958 68.4299 119.98C68.4082 120.001 68.3789 120.013 68.3482 120.013H63.4459C63.4153 120.013 63.3859 120.001 63.3642 119.98C63.3425 119.958 63.3304 119.929 63.3304 119.898C63.3304 119.867 63.3425 119.838 63.3642 119.816C63.3859 119.794 63.4153 119.782 63.4459 119.782ZM58.4965 119.782H62.2711C62.3017 119.782 62.3311 119.794 62.3528 119.816C62.3745 119.838 62.3866 119.867 62.3866 119.898C62.3866 119.929 62.3745 119.958 62.3528 119.98C62.3311 120.001 62.3017 120.013 62.2711 120.013H58.4965C58.4659 120.013 58.4365 120.001 58.4148 119.98C58.3931 119.958 58.3809 119.929 58.3809 119.898C58.3809 119.867 58.3931 119.838 58.4148 119.816C58.4365 119.794 58.4659 119.782 58.4965 119.782ZM58.4817 118.588H59.4402C59.4669 118.588 59.4925 118.599 59.5113 118.618C59.5302 118.637 59.5408 118.662 59.5408 118.689C59.5408 118.715 59.5302 118.741 59.5113 118.76C59.4925 118.779 59.4669 118.789 59.4402 118.789H58.4817C58.455 118.789 58.4294 118.779 58.4106 118.76C58.3917 118.741 58.3811 118.715 58.3811 118.689C58.3811 118.662 58.3917 118.637 58.4106 118.618C58.4294 118.599 58.455 118.588 58.4817 118.588ZM58.4965 117.394H68.3482C68.3789 117.394 68.4082 117.406 68.4299 117.428C68.4516 117.45 68.4638 117.479 68.4638 117.51C68.4638 117.54 68.4516 117.57 68.4299 117.592C68.4082 117.613 68.3789 117.625 68.3482 117.625H58.4965C58.467 117.624 58.4394 117.611 58.4191 117.589C58.3989 117.568 58.3876 117.539 58.3876 117.51C58.3876 117.48 58.3989 117.452 58.4191 117.43C58.4394 117.409 58.467 117.396 58.4965 117.394ZM65.3995 115.135H68.3482C68.3789 115.135 68.4082 115.147 68.4299 115.169C68.4516 115.19 68.4638 115.22 68.4638 115.25C68.4638 115.281 68.4516 115.31 68.4299 115.332C68.4082 115.354 68.3789 115.366 68.3482 115.366H65.3995C65.3689 115.366 65.3395 115.354 65.3178 115.332C65.2962 115.31 65.284 115.281 65.284 115.25C65.284 115.22 65.2962 115.19 65.3178 115.169C65.3395 115.147 65.3689 115.135 65.3995 115.135ZM60.1914 115.135H64.7599C64.7905 115.135 64.8199 115.147 64.8416 115.169C64.8633 115.19 64.8755 115.22 64.8755 115.25C64.8755 115.281 64.8633 115.31 64.8416 115.332C64.8199 115.354 64.7905 115.366 64.7599 115.366H60.1914C60.1607 115.366 60.1313 115.354 60.1096 115.332C60.088 115.31 60.0758 115.281 60.0758 115.25C60.0758 115.22 60.088 115.19 60.1096 115.169C60.1313 115.147 60.1607 115.135 60.1914 115.135ZM63.4459 116.329H68.3482C68.3789 116.329 68.4082 116.341 68.4299 116.363C68.4516 116.384 68.4638 116.414 68.4638 116.444C68.4638 116.475 68.4516 116.504 68.4299 116.526C68.4082 116.548 68.3789 116.56 68.3482 116.56H63.4459C63.4153 116.56 63.3859 116.548 63.3642 116.526C63.3425 116.504 63.3304 116.475 63.3304 116.444C63.3304 116.414 63.3425 116.384 63.3642 116.363C63.3859 116.341 63.4153 116.329 63.4459 116.329ZM58.4965 116.329H62.2711C62.3017 116.329 62.3311 116.341 62.3528 116.363C62.3745 116.384 62.3866 116.414 62.3866 116.444C62.3866 116.475 62.3745 116.504 62.3528 116.526C62.3311 116.548 62.3017 116.56 62.2711 116.56H58.4965C58.4659 116.56 58.4365 116.548 58.4148 116.526C58.3931 116.504 58.3809 116.475 58.3809 116.444C58.3809 116.414 58.3931 116.384 58.4148 116.363C58.4365 116.341 58.4659 116.329 58.4965 116.329ZM58.4817 115.135H59.4402C59.4669 115.135 59.4925 115.145 59.5113 115.164C59.5302 115.183 59.5408 115.209 59.5408 115.235C59.5408 115.262 59.5302 115.287 59.5113 115.306C59.4925 115.325 59.4669 115.336 59.4402 115.336H58.4817C58.455 115.336 58.4294 115.325 58.4106 115.306C58.3917 115.287 58.3811 115.262 58.3811 115.235C58.3811 115.209 58.3917 115.183 58.4106 115.164C58.4294 115.145 58.455 115.135 58.4817 115.135ZM58.4965 113.941H68.3482C68.3789 113.941 68.4082 113.953 68.4299 113.974C68.4516 113.996 68.4638 114.026 68.4638 114.056C68.4638 114.087 68.4516 114.116 68.4299 114.138C68.4082 114.16 68.3789 114.172 68.3482 114.172H58.4965C58.4659 114.172 58.4365 114.16 58.4148 114.138C58.3931 114.116 58.3809 114.087 58.3809 114.056C58.3809 114.026 58.3931 113.996 58.4148 113.974C58.4365 113.953 58.4659 113.941 58.4965 113.941ZM65.3995 111.681H68.3482C68.3789 111.681 68.4082 111.693 68.4299 111.715C68.4516 111.737 68.4638 111.766 68.4638 111.797C68.4638 111.827 68.4516 111.857 68.4299 111.878C68.4082 111.9 68.3789 111.912 68.3482 111.912H65.3995C65.3689 111.912 65.3395 111.9 65.3178 111.878C65.2962 111.857 65.284 111.827 65.284 111.797C65.284 111.766 65.2962 111.737 65.3178 111.715C65.3395 111.693 65.3689 111.681 65.3995 111.681ZM60.1914 111.681H64.7599C64.7905 111.681 64.8199 111.693 64.8416 111.715C64.8633 111.737 64.8755 111.766 64.8755 111.797C64.8755 111.827 64.8633 111.857 64.8416 111.878C64.8199 111.9 64.7905 111.912 64.7599 111.912H60.1914C60.1607 111.912 60.1313 111.9 60.1096 111.878C60.088 111.857 60.0758 111.827 60.0758 111.797C60.0758 111.766 60.088 111.737 60.1096 111.715C60.1313 111.693 60.1607 111.681 60.1914 111.681ZM63.4459 112.875H68.3482C68.3789 112.875 68.4082 112.887 68.4299 112.909C68.4516 112.931 68.4638 112.96 68.4638 112.991C68.4638 113.021 68.4516 113.051 68.4299 113.072C68.4082 113.094 68.3789 113.106 68.3482 113.106H63.4459C63.4153 113.106 63.3859 113.094 63.3642 113.072C63.3425 113.051 63.3304 113.021 63.3304 112.991C63.3304 112.96 63.3425 112.931 63.3642 112.909C63.3859 112.887 63.4153 112.875 63.4459 112.875ZM58.4965 112.875H62.2711C62.3017 112.875 62.3311 112.887 62.3528 112.909C62.3745 112.931 62.3866 112.96 62.3866 112.991C62.3866 113.021 62.3745 113.051 62.3528 113.072C62.3311 113.094 62.3017 113.106 62.2711 113.106H58.4965C58.4659 113.106 58.4365 113.094 58.4148 113.072C58.3931 113.051 58.3809 113.021 58.3809 112.991C58.3809 112.96 58.3931 112.931 58.4148 112.909C58.4365 112.887 58.4659 112.875 58.4965 112.875Z" fill="#C8DCFA"/>
<path d="M58.4819 111.68H59.4405C59.4671 111.68 59.4927 111.69 59.5115 111.709C59.5304 111.728 59.541 111.754 59.541 111.78C59.541 111.807 59.5304 111.832 59.5115 111.851C59.4927 111.87 59.4671 111.881 59.4405 111.881H58.4819C58.4552 111.881 58.4296 111.87 58.4108 111.851C58.3919 111.832 58.3813 111.807 58.3813 111.78C58.3813 111.767 58.3839 111.754 58.3889 111.742C58.394 111.73 58.4014 111.718 58.4107 111.709C58.4201 111.7 58.4312 111.692 58.4434 111.687C58.4556 111.682 58.4687 111.68 58.4819 111.68ZM74.3528 117.452V128.513C74.3528 128.716 74.2576 128.9 74.1052 129.03C74.0881 129.044 74.0704 129.058 74.052 129.071C73.9077 129.173 73.7353 129.226 73.5588 129.225H53.0127C52.8264 129.225 52.6548 129.168 52.5195 129.071C52.5047 129.061 52.4903 129.05 52.4764 129.038C52.318 128.908 52.2185 128.721 52.2185 128.513V117.331C52.2185 116.754 52.9424 116.416 53.4686 116.747L61.4287 121.756L61.9147 122.062L61.9194 122.065L62.2154 122.251L62.8341 122.641C62.9702 122.724 63.1267 122.769 63.2865 122.77C63.4463 122.77 63.6032 122.727 63.7399 122.644L64.3658 122.258L64.6754 122.067L64.8266 121.974L65.1705 121.762L73.1085 116.865C73.6357 116.54 74.3528 116.879 74.3528 117.452Z" fill="#C8DCFA"/>
<path d="M65.1703 121.762L64.8265 121.974L64.6753 122.067L73.4751 129.225H73.5583C73.7445 129.225 73.9161 129.168 74.0515 129.071C74.0698 129.058 74.0877 129.044 74.1046 129.03L65.1703 121.762ZM61.4283 121.756L52.4761 129.038C52.4899 129.049 52.5043 129.061 52.5191 129.071C52.6545 129.168 52.8261 129.225 53.0123 129.225H53.1166L61.9192 122.065L61.9145 122.062L61.4283 121.756Z" fill="white"/>
<path d="M65.3962 59.1522C65.3651 59.1477 65.3366 59.1322 65.316 59.1084C65.2954 59.0847 65.284 59.0543 65.2839 59.0229C65.2839 58.8331 65.3006 58.6197 65.3334 58.3885C65.396 57.9469 65.5132 57.4578 65.6822 56.9349C65.6928 56.902 65.7161 56.8746 65.747 56.8588C65.7778 56.843 65.8137 56.8401 65.8467 56.8508C65.8796 56.8614 65.907 56.8847 65.9228 56.9156C65.9386 56.9464 65.9415 56.9823 65.9308 57.0153C65.7666 57.5239 65.6527 57.9984 65.5921 58.4252C65.5627 58.6231 65.547 58.8228 65.5452 59.0229C65.5452 59.0416 65.5412 59.0601 65.5334 59.0771C65.5256 59.0941 65.5143 59.1093 65.5002 59.1215C65.4861 59.1338 65.4695 59.1429 65.4515 59.1482C65.4336 59.1535 65.4147 59.1549 65.3962 59.1522ZM66.5894 55.1735C66.5689 55.1706 66.5493 55.1628 66.5324 55.1509C66.5154 55.1389 66.5015 55.123 66.4919 55.1046C66.4823 55.0862 66.4772 55.0658 66.477 55.045C66.4769 55.0243 66.4816 55.0038 66.491 54.9852C66.8083 54.3576 67.1666 53.7515 67.5635 53.1709C67.5832 53.1429 67.6132 53.1238 67.647 53.1177C67.6807 53.1116 67.7155 53.119 67.7438 53.1384C67.7721 53.1577 67.7917 53.1874 67.7983 53.221C67.8049 53.2547 67.798 53.2896 67.7791 53.3182C67.389 53.8894 67.0367 54.4856 66.7244 55.1029C66.7121 55.1273 66.6925 55.1472 66.6683 55.1599C66.6441 55.1726 66.6165 55.1773 66.5894 55.1735ZM89.3939 55.9401L89.3863 55.9387C89.1041 55.8816 88.8273 55.8006 88.5589 55.6964C88.1495 55.5374 87.7845 55.2818 87.4953 54.9512C87.4839 54.9384 87.4752 54.9234 87.4696 54.9072C87.4641 54.891 87.4617 54.8738 87.4628 54.8567C87.4638 54.8396 87.4682 54.8228 87.4758 54.8074C87.4833 54.792 87.4938 54.7782 87.5066 54.7669C87.5195 54.7555 87.5344 54.7468 87.5507 54.7412C87.5669 54.7356 87.584 54.7333 87.6012 54.7343C87.6183 54.7354 87.635 54.7398 87.6504 54.7473C87.6659 54.7549 87.6796 54.7653 87.691 54.7782C87.9527 55.0774 88.283 55.3089 88.6535 55.4529C88.911 55.5524 89.1747 55.6298 89.4378 55.6828C89.47 55.6906 89.4981 55.7103 89.5163 55.738C89.5345 55.7657 89.5416 55.7993 89.536 55.8319C89.5304 55.8646 89.5126 55.8939 89.4863 55.914C89.4599 55.9341 89.4269 55.9434 89.3939 55.9401ZM91.4637 55.8746C91.4339 55.8704 91.4064 55.8561 91.3859 55.834C91.3655 55.8119 91.3532 55.7835 91.3513 55.7534C91.3495 55.7234 91.358 55.6936 91.3756 55.6691C91.3931 55.6446 91.4186 55.627 91.4476 55.6191C92.1032 55.4397 92.7088 55.1121 93.2177 54.6616C93.2438 54.6398 93.2774 54.629 93.3113 54.6316C93.3452 54.6341 93.3768 54.6498 93.3994 54.6753C93.422 54.7007 93.4337 54.734 93.4322 54.768C93.4306 54.8019 93.4159 54.834 93.3911 54.8573C92.852 55.3345 92.2105 55.6814 91.516 55.8713C91.499 55.8758 91.4812 55.877 91.4637 55.8746ZM68.9382 51.7261C68.9148 51.7228 68.8927 51.7132 68.8744 51.6984C68.856 51.6835 68.842 51.664 68.8339 51.6418C68.8257 51.6196 68.8237 51.5957 68.8282 51.5725C68.8326 51.5492 68.8432 51.5277 68.8589 51.51C69.3254 50.9846 69.8248 50.4893 70.3541 50.0271C70.3804 50.0062 70.4138 49.9962 70.4474 49.9993C70.4809 50.0024 70.5119 50.0182 70.534 50.0436C70.5562 50.0689 70.5677 50.1018 70.5662 50.1355C70.5646 50.1691 70.5502 50.2008 70.5259 50.2241C70.0048 50.6787 69.5132 51.1661 69.0544 51.6835C69.0401 51.6997 69.0219 51.712 69.0017 51.7195C68.9814 51.7269 68.9596 51.7292 68.9382 51.7261ZM86.76 53.1013C86.732 53.0972 86.7061 53.0842 86.686 53.0642C86.666 53.0442 86.653 53.0182 86.649 52.9902C86.5785 52.4927 86.5821 51.9632 86.6593 51.4169C86.6851 51.2354 86.7193 51.0504 86.7613 50.8668C86.769 50.8331 86.7898 50.8038 86.8191 50.7853C86.8484 50.7669 86.8839 50.7609 86.9176 50.7686C86.9514 50.7763 86.9807 50.7971 86.9992 50.8264C87.0176 50.8557 87.0236 50.8912 87.0159 50.9249C86.976 51.0997 86.9434 51.2761 86.9181 51.4536C86.8443 51.9758 86.8408 52.4803 86.908 52.9535C86.9108 52.9736 86.9089 52.9941 86.9025 53.0133C86.896 53.0325 86.8852 53.05 86.8708 53.0643C86.8565 53.0786 86.839 53.0894 86.8198 53.0958C86.8006 53.1022 86.7801 53.1041 86.76 53.1013ZM94.4688 53.1898C94.4494 53.1871 94.4309 53.18 94.4146 53.1692C94.3983 53.1584 94.3847 53.144 94.3747 53.1272C94.3647 53.1103 94.3585 53.0915 94.3568 53.072C94.3551 53.0525 94.3577 53.0329 94.3646 53.0145C94.4603 52.7593 94.5279 52.4962 94.5654 52.2323C94.6223 51.8308 94.6099 51.4268 94.5285 51.0321C94.5215 50.9981 94.5283 50.9628 94.5474 50.9339C94.5664 50.9049 94.5962 50.8848 94.6301 50.8778C94.664 50.8708 94.6994 50.8775 94.7283 50.8966C94.7572 50.9156 94.7774 50.9454 94.7844 50.9793C94.8719 51.4036 94.8853 51.8399 94.824 52.2688C94.7831 52.5549 94.711 52.8357 94.6091 53.1062C94.5988 53.1341 94.5793 53.1576 94.5538 53.1729C94.5282 53.1881 94.4982 53.1941 94.4688 53.1898ZM72.0801 48.986C72.0539 48.9821 72.0296 48.9705 72.0102 48.9526C71.9908 48.9347 71.9773 48.9113 71.9714 48.8856C71.9655 48.8598 71.9676 48.8329 71.9773 48.8084C71.9871 48.7838 72.004 48.7628 72.0259 48.748C72.6099 48.358 73.2179 48.0052 73.8464 47.6918C73.8618 47.6841 73.8785 47.6796 73.8956 47.6784C73.9127 47.6772 73.9299 47.6794 73.9461 47.6848C73.9624 47.6903 73.9775 47.6989 73.9904 47.7101C74.0034 47.7214 74.014 47.7351 74.0216 47.7504C74.0293 47.7658 74.0338 47.7825 74.035 47.7996C74.0362 47.8167 74.034 47.8339 74.0286 47.8502C74.0232 47.8664 74.0146 47.8815 74.0033 47.8944C73.9921 47.9074 73.9784 47.918 73.963 47.9256C73.3445 48.2341 72.746 48.5813 72.1711 48.9652C72.1444 48.9831 72.1119 48.9905 72.0801 48.986ZM87.6183 49.0807C87.5973 49.0778 87.5774 49.0699 87.5602 49.0576C87.543 49.0453 87.5291 49.029 87.5196 49.0101C87.5101 48.9912 87.5054 48.9703 87.5058 48.9491C87.5062 48.928 87.5117 48.9073 87.5219 48.8887C87.8515 48.2851 88.2639 47.705 88.7468 47.1644C88.7699 47.1385 88.8023 47.1229 88.8369 47.1209C88.8716 47.119 88.9055 47.1308 88.9314 47.1539C88.9573 47.177 88.9729 47.2094 88.9749 47.244C88.9769 47.2786 88.965 47.3126 88.9419 47.3385C88.472 47.8642 88.0715 48.4281 87.7514 49.014C87.7386 49.0373 87.719 49.0562 87.6952 49.0681C87.6715 49.0801 87.6446 49.0845 87.6183 49.0807ZM75.8085 47.123C75.7796 47.1188 75.7529 47.1051 75.7327 47.084C75.7125 47.063 75.7 47.0357 75.697 47.0067C75.6941 46.9777 75.7009 46.9485 75.7165 46.9238C75.7321 46.8991 75.7554 46.8803 75.7829 46.8704C76.4442 46.6367 77.1183 46.4407 77.8018 46.2833C77.8352 46.2767 77.8698 46.2833 77.8983 46.3018C77.9269 46.3202 77.9471 46.3491 77.9548 46.3822C77.9624 46.4154 77.9568 46.4502 77.9392 46.4793C77.9217 46.5084 77.8934 46.5295 77.8605 46.5381C77.1866 46.6931 76.522 46.8864 75.8701 47.117C75.8503 47.1239 75.8292 47.1259 75.8085 47.123ZM93.7043 49.2921C93.6728 49.2877 93.6439 49.2719 93.6233 49.2476C93.2162 48.7719 92.6858 48.3376 92.0471 47.9573C92.0184 47.9391 91.9979 47.9104 91.9901 47.8773C91.9822 47.8442 91.9875 47.8093 92.0049 47.7801C92.0223 47.7508 92.0504 47.7295 92.0832 47.7207C92.1161 47.7118 92.1511 47.7161 92.1808 47.7326C92.8442 48.1277 93.3963 48.5801 93.8219 49.0778C93.8392 49.098 93.8499 49.123 93.8526 49.1494C93.8554 49.1758 93.85 49.2024 93.8372 49.2256C93.8244 49.2489 93.8049 49.2677 93.7811 49.2796C93.7574 49.2915 93.7306 49.2958 93.7043 49.2921ZM79.8694 46.1795C79.8381 46.1748 79.8096 46.1591 79.7891 46.1351C79.7685 46.111 79.7574 46.0804 79.7577 46.0488C79.758 46.0172 79.7697 45.9868 79.7907 45.9632C79.8117 45.9396 79.8405 45.9243 79.8718 45.9203C80.5671 45.8356 81.266 45.7834 81.9662 45.7639C82.0001 45.764 82.0328 45.7773 82.0571 45.801C82.0815 45.8247 82.0956 45.857 82.0966 45.8909C82.0975 45.9249 82.0852 45.9579 82.0622 45.983C82.0392 46.008 82.0073 46.023 81.9734 46.025C81.2709 46.0449 80.5745 46.0971 79.9036 46.1795C79.8922 46.1812 79.8807 46.1812 79.8694 46.1795ZM90.1998 47.1049C90.1912 47.1037 90.1828 47.1016 90.1747 47.0987C89.5672 46.8848 88.8954 46.6999 88.1782 46.5484C88.1443 46.5413 88.1146 46.5209 88.0957 46.4919C88.0768 46.4628 88.0701 46.4274 88.0773 46.3935C88.0923 46.3228 88.1593 46.2806 88.2322 46.2926C88.9605 46.4465 89.6432 46.6345 90.2614 46.8521C90.2918 46.863 90.3171 46.8848 90.3324 46.9132C90.3477 46.9417 90.3519 46.9748 90.3443 47.0062C90.3367 47.0376 90.3177 47.065 90.291 47.0832C90.2643 47.1015 90.2318 47.1092 90.1998 47.1049ZM84.0407 46.0503C84.0236 46.0487 84.0071 46.0437 83.9919 46.0357C83.9768 46.0277 83.9634 46.0168 83.9524 46.0036C83.9415 45.9904 83.9333 45.9752 83.9282 45.9588C83.9232 45.9424 83.9214 45.9252 83.9231 45.9081C83.9247 45.8911 83.9296 45.8745 83.9376 45.8594C83.9457 45.8442 83.9566 45.8308 83.9698 45.8199C83.983 45.809 83.9982 45.8008 84.0146 45.7957C84.0309 45.7907 84.0481 45.7889 84.0652 45.7905C84.7916 45.8249 85.4955 45.8816 86.1577 45.9586C86.2339 45.9761 86.2807 46.0322 86.2722 46.1037C86.2682 46.1381 86.2506 46.1695 86.2234 46.191C86.1962 46.2126 86.1616 46.2224 86.1272 46.2184C85.4378 46.1392 84.746 46.0836 84.0528 46.0517C84.0488 46.0514 84.0447 46.0509 84.0407 46.0503ZM90.3657 45.9728C90.3401 45.9692 90.3162 45.9581 90.297 45.9408C90.2778 45.9236 90.2641 45.9011 90.2576 45.8761C90.2512 45.8511 90.2523 45.8248 90.2608 45.8004C90.2693 45.776 90.2849 45.7547 90.3055 45.7392C90.8691 45.3172 91.4667 44.9426 92.0922 44.6193C92.1228 44.6057 92.1573 44.6043 92.1889 44.6153C92.2204 44.6263 92.2465 44.649 92.2619 44.6786C92.2773 44.7083 92.2808 44.7427 92.2717 44.7748C92.2625 44.807 92.2415 44.8344 92.2128 44.8515C91.6001 45.168 91.0148 45.5348 90.4629 45.9481C90.435 45.9688 90.4001 45.9777 90.3657 45.9728ZM151.354 53.757L151.217 53.7376C151.2 53.7352 151.184 53.7295 151.169 53.7208C151.154 53.712 151.141 53.7005 151.131 53.6868C151.121 53.673 151.113 53.6574 151.109 53.6408C151.105 53.6242 151.104 53.6069 151.106 53.5899C151.109 53.5729 151.114 53.5566 151.123 53.5418C151.132 53.527 151.143 53.5141 151.157 53.5038C151.171 53.4935 151.186 53.486 151.203 53.4817C151.22 53.4774 151.237 53.4765 151.254 53.4789L151.39 53.4982C152.034 53.5896 152.679 53.6744 153.324 53.7527C153.358 53.758 153.388 53.776 153.408 53.803C153.428 53.83 153.438 53.8639 153.434 53.8975C153.429 53.9312 153.413 53.9619 153.386 53.9833C153.36 54.0047 153.327 54.015 153.293 54.0122C152.646 53.9337 151.999 53.8486 151.354 53.757ZM149.15 53.421L149.148 53.4206C148.459 53.3081 147.771 53.1895 147.084 53.0648C147.067 53.0617 147.051 53.0554 147.037 53.0461C147.022 53.0368 147.01 53.0247 147 53.0106C146.99 52.9965 146.983 52.9807 146.98 52.9639C146.976 52.9471 146.976 52.9298 146.979 52.913C146.982 52.8961 146.988 52.88 146.998 52.8656C147.007 52.8512 147.019 52.8387 147.033 52.829C147.047 52.8192 147.063 52.8123 147.08 52.8087C147.097 52.8051 147.114 52.8048 147.131 52.8079C147.823 52.9334 148.515 53.0528 149.19 53.1628C149.223 53.1689 149.253 53.1878 149.273 53.2155C149.293 53.2432 149.301 53.2774 149.296 53.311C149.29 53.3446 149.272 53.3749 149.245 53.3954C149.218 53.416 149.184 53.4251 149.15 53.421ZM155.369 54.2393C155.336 54.2334 155.306 54.2152 155.286 54.1884C155.266 54.1615 155.257 54.1281 155.261 54.0949C155.265 54.0617 155.282 54.0313 155.308 54.0099C155.333 53.9885 155.366 53.9778 155.4 53.9799C156.099 54.0481 156.799 54.1072 157.48 54.1558C157.515 54.1586 157.547 54.1747 157.569 54.2009C157.592 54.227 157.603 54.261 157.601 54.2955C157.599 54.3301 157.583 54.3622 157.556 54.3849C157.53 54.4076 157.496 54.419 157.462 54.4166C156.763 54.3664 156.065 54.3073 155.369 54.2393ZM145.034 52.6754L145.027 52.6742C144.343 52.5386 143.659 52.3982 142.977 52.2529C142.96 52.2493 142.944 52.2425 142.93 52.2327C142.916 52.223 142.904 52.2106 142.895 52.1962C142.885 52.1818 142.879 52.1657 142.876 52.1488C142.873 52.1319 142.873 52.1146 142.877 52.0978C142.884 52.0642 142.905 52.035 142.934 52.0162C142.963 51.9975 142.998 51.9907 143.032 51.9972C143.713 52.1423 144.395 52.2828 145.078 52.4179C145.112 52.4242 145.142 52.4434 145.161 52.4715C145.181 52.4997 145.189 52.5344 145.183 52.5682C145.177 52.602 145.158 52.6322 145.131 52.6522C145.103 52.6723 145.068 52.6806 145.034 52.6754ZM159.54 54.5359C159.507 54.5312 159.477 54.5138 159.456 54.4875C159.435 54.4612 159.425 54.4279 159.428 54.3946C159.431 54.3612 159.447 54.3303 159.473 54.3083C159.498 54.2862 159.53 54.2747 159.564 54.2761C160.265 54.3064 160.967 54.3264 161.65 54.3353C161.724 54.3379 161.78 54.3956 161.779 54.4677C161.779 54.5024 161.765 54.5354 161.74 54.5596C161.715 54.5837 161.682 54.5971 161.647 54.5967C160.949 54.5873 160.251 54.5674 159.553 54.5372C159.549 54.5369 159.544 54.5365 159.54 54.5359ZM140.945 51.8059C140.941 51.8054 140.937 51.8048 140.934 51.804C140.254 51.65 139.575 51.4922 138.897 51.3308C138.863 51.3228 138.834 51.3017 138.816 51.2721C138.798 51.2426 138.792 51.2071 138.8 51.1734C138.808 51.1397 138.829 51.1105 138.859 51.0924C138.888 51.0742 138.924 51.0685 138.957 51.0766C139.634 51.2377 140.312 51.3955 140.992 51.5492C141.024 51.5567 141.053 51.5766 141.071 51.6047C141.09 51.6328 141.097 51.6669 141.091 51.6999C141.085 51.733 141.066 51.7625 141.039 51.7822C141.012 51.8019 140.978 51.8104 140.945 51.8059ZM136.879 50.8388C136.874 50.8382 136.87 50.8374 136.866 50.8364C136.188 50.6678 135.513 50.4971 134.84 50.324C134.806 50.3154 134.778 50.2938 134.76 50.264C134.742 50.2341 134.737 50.1985 134.746 50.165C134.755 50.1318 134.777 50.1035 134.806 50.0859C134.836 50.0684 134.871 50.063 134.905 50.0708C135.577 50.2437 136.252 50.4144 136.929 50.5826C136.961 50.591 136.988 50.6114 137.006 50.6395C137.024 50.6676 137.03 50.7013 137.024 50.7339C137.017 50.7665 136.999 50.7954 136.972 50.8149C136.945 50.8344 136.912 50.8429 136.879 50.8388ZM163.721 54.5882C163.689 54.5832 163.66 54.5664 163.64 54.541C163.619 54.5156 163.609 54.4835 163.611 54.451C163.613 54.4185 163.627 54.3879 163.651 54.3652C163.674 54.3425 163.705 54.3293 163.737 54.3283C164.436 54.3143 165.137 54.2879 165.822 54.25C165.839 54.2488 165.857 54.2511 165.873 54.2567C165.889 54.2623 165.904 54.2711 165.917 54.2825C165.93 54.294 165.94 54.308 165.948 54.3235C165.955 54.3391 165.959 54.356 165.96 54.3732C165.961 54.3903 165.959 54.4075 165.953 54.4236C165.947 54.4398 165.938 54.4548 165.927 54.4675C165.916 54.4803 165.902 54.4907 165.886 54.4981C165.871 54.5056 165.854 54.5099 165.837 54.5108C165.149 54.5491 164.444 54.5755 163.743 54.5897C163.736 54.5896 163.729 54.5892 163.721 54.5882ZM132.834 49.7999C132.829 49.7993 132.823 49.7983 132.818 49.7968C132.142 49.618 131.468 49.4377 130.798 49.2569C130.728 49.2381 130.687 49.1664 130.706 49.0968C130.725 49.0272 130.797 48.986 130.866 49.0047C131.536 49.1854 132.209 49.3654 132.885 49.5443C132.917 49.5533 132.944 49.5739 132.961 49.602C132.978 49.6301 132.984 49.6636 132.977 49.6959C132.971 49.7281 132.953 49.7567 132.926 49.776C132.899 49.7953 132.866 49.8038 132.834 49.7999ZM94.0514 44.0392C94.0223 44.0352 93.9955 44.0216 93.9751 44.0004C93.9547 43.9793 93.9421 43.9519 93.9392 43.9227C93.9363 43.8935 93.9433 43.8642 93.9591 43.8395C93.9749 43.8147 93.9986 43.7961 94.0263 43.7864C94.6887 43.5548 95.3642 43.3621 96.0491 43.2094C96.0659 43.2056 96.0832 43.2052 96.1001 43.2081C96.117 43.2111 96.1332 43.2173 96.1477 43.2265C96.1622 43.2357 96.1747 43.2476 96.1846 43.2617C96.1945 43.2757 96.2015 43.2915 96.2053 43.3083C96.209 43.325 96.2095 43.3423 96.2065 43.3593C96.2036 43.3762 96.1973 43.3923 96.1882 43.4068C96.179 43.4213 96.167 43.4339 96.153 43.4438C96.139 43.4537 96.1231 43.4607 96.1064 43.4644C95.4315 43.6149 94.7659 43.8048 94.1132 44.033C94.0934 44.04 94.0722 44.0421 94.0514 44.0392ZM167.896 54.3536C167.865 54.3489 167.836 54.3329 167.815 54.3085C167.795 54.2841 167.784 54.253 167.785 54.2211C167.785 54.1892 167.798 54.1587 167.819 54.1353C167.841 54.1119 167.871 54.0972 167.902 54.094C168.594 54.0287 169.285 53.9494 169.974 53.8561C170.008 53.8514 170.043 53.8606 170.071 53.8815C170.098 53.9025 170.116 53.9336 170.121 53.9679C170.126 54.0023 170.117 54.0371 170.096 54.0647C170.075 54.0922 170.044 54.1104 170.009 54.115C169.326 54.2077 168.626 54.2883 167.927 54.3542C167.917 54.3552 167.906 54.3549 167.896 54.3536ZM128.796 48.7118C128.79 48.7109 128.785 48.7098 128.779 48.7085C128.107 48.5243 127.435 48.3395 126.763 48.1541C126.729 48.1449 126.701 48.1228 126.684 48.0926C126.667 48.0625 126.662 48.0268 126.672 47.9934C126.681 47.96 126.703 47.9316 126.733 47.9145C126.763 47.8974 126.799 47.8929 126.832 47.9021C127.5 48.0863 128.172 48.2713 128.848 48.4563C128.88 48.4649 128.908 48.4854 128.926 48.5138C128.943 48.5422 128.949 48.5762 128.943 48.6088C128.936 48.6415 128.917 48.6704 128.89 48.6895C128.862 48.7087 128.829 48.7166 128.796 48.7118ZM124.764 47.6014C124.758 47.6006 124.753 47.5995 124.747 47.5981C124.07 47.4112 123.398 47.226 122.731 47.0433C122.715 47.0387 122.699 47.031 122.686 47.0205C122.672 47.01 122.661 46.9969 122.652 46.982C122.644 46.9671 122.638 46.9506 122.636 46.9336C122.634 46.9166 122.635 46.8993 122.64 46.8828C122.649 46.8497 122.671 46.8216 122.701 46.8045C122.731 46.7875 122.767 46.7827 122.8 46.7913C123.467 46.9741 124.139 47.1593 124.817 47.3461C124.848 47.3555 124.875 47.3763 124.892 47.4044C124.909 47.4326 124.914 47.4661 124.908 47.4982C124.901 47.5303 124.882 47.5587 124.856 47.5778C124.829 47.597 124.796 47.6053 124.764 47.6014ZM172.038 53.7881C172.007 53.7841 171.978 53.7691 171.958 53.7458C171.937 53.7225 171.925 53.6925 171.924 53.6613C171.924 53.63 171.934 53.5996 171.954 53.5755C171.974 53.5515 172.002 53.5354 172.033 53.5302C172.717 53.4063 173.398 53.2667 174.075 53.1113C174.109 53.1036 174.144 53.1096 174.173 53.128C174.203 53.1463 174.224 53.1756 174.231 53.2094C174.239 53.2432 174.233 53.2786 174.215 53.308C174.196 53.3374 174.167 53.3582 174.133 53.366C173.452 53.5222 172.767 53.6626 172.08 53.7871C172.066 53.7897 172.052 53.79 172.038 53.7881ZM120.73 46.4975C120.724 46.4968 120.719 46.4957 120.714 46.4943C120.034 46.3109 119.361 46.1311 118.694 45.9557C118.677 45.9514 118.662 45.9438 118.648 45.9334C118.634 45.923 118.623 45.91 118.614 45.8952C118.606 45.8804 118.6 45.864 118.598 45.847C118.595 45.83 118.596 45.8127 118.601 45.7961C118.605 45.7795 118.613 45.7639 118.623 45.7502C118.634 45.7366 118.647 45.7251 118.661 45.7165C118.676 45.7078 118.693 45.7022 118.71 45.6998C118.727 45.6975 118.744 45.6986 118.76 45.703C119.428 45.8785 120.102 46.0583 120.782 46.2419C120.814 46.2502 120.842 46.2706 120.86 46.2991C120.878 46.3275 120.884 46.3617 120.877 46.3945C120.871 46.4274 120.852 46.4565 120.824 46.4756C120.797 46.4948 120.763 46.5027 120.73 46.4975ZM98.1177 43.1136C98.0864 43.109 98.0579 43.0932 98.0374 43.0692C98.0168 43.0452 98.0057 43.0145 98.006 42.9829C98.0063 42.9513 98.018 42.9209 98.039 42.8973C98.06 42.8737 98.0888 42.8585 98.1201 42.8544C98.793 42.772 99.4971 42.7162 100.213 42.6884C100.248 42.687 100.282 42.6995 100.307 42.723C100.333 42.7465 100.348 42.7792 100.349 42.8139C100.35 42.8485 100.338 42.8823 100.314 42.9077C100.291 42.9332 100.258 42.9482 100.224 42.9496C99.5311 42.9757 98.84 43.0305 98.1521 43.1138C98.1406 43.1152 98.1291 43.1151 98.1177 43.1136ZM116.684 45.4353C116.68 45.4347 116.675 45.4337 116.67 45.4327C115.995 45.2614 115.319 45.0942 114.642 44.931C114.625 44.9271 114.61 44.9198 114.596 44.9098C114.582 44.8997 114.57 44.887 114.561 44.8724C114.552 44.8577 114.546 44.8415 114.544 44.8246C114.541 44.8076 114.542 44.7903 114.546 44.7736C114.55 44.7569 114.557 44.7411 114.567 44.7272C114.577 44.7132 114.59 44.7014 114.604 44.6924C114.619 44.6835 114.635 44.6775 114.652 44.6748C114.669 44.6722 114.686 44.6729 114.703 44.677C115.381 44.8402 116.059 45.0076 116.735 45.1793C116.767 45.188 116.794 45.2084 116.812 45.2365C116.829 45.2646 116.835 45.2983 116.829 45.3307C116.822 45.3632 116.804 45.392 116.777 45.4114C116.75 45.4308 116.717 45.4394 116.684 45.4353ZM112.617 44.4605C112.539 44.7463 112.35 44.9892 112.093 45.1359C111.836 45.2826 111.53 45.3211 111.245 45.2427C110.959 45.1644 110.716 44.9758 110.569 44.7183C110.422 44.4608 110.384 44.1556 110.462 43.8699C110.47 43.8362 110.49 43.8067 110.519 43.7876C110.547 43.7685 110.582 43.7613 110.616 43.7675C111.273 43.8997 111.962 44.0464 112.664 44.2034C112.697 44.211 112.725 44.2309 112.744 44.259C112.762 44.2871 112.769 44.3212 112.763 44.3542C112.757 44.3873 112.739 44.4167 112.712 44.4365C112.684 44.4563 112.651 44.4649 112.617 44.4605ZM102.289 42.9434C102.256 42.9386 102.226 42.9213 102.206 42.8952C102.185 42.869 102.175 42.836 102.178 42.8028C102.181 42.7695 102.196 42.7387 102.221 42.7166C102.246 42.6944 102.279 42.6827 102.312 42.6837L102.42 42.6874C103.053 42.71 103.721 42.7533 104.405 42.8163C104.476 42.8202 104.53 42.8864 104.524 42.9585C104.522 42.9756 104.517 42.9922 104.509 43.0073C104.501 43.0225 104.49 43.036 104.477 43.0469C104.464 43.0579 104.449 43.0662 104.432 43.0712C104.416 43.0763 104.399 43.0781 104.381 43.0765C103.702 43.0141 103.038 42.9708 102.41 42.9484L102.303 42.9447C102.299 42.9445 102.294 42.9441 102.289 42.9434ZM108.517 43.6387L108.513 43.6381C107.897 43.531 107.279 43.4333 106.659 43.3449L106.452 43.3159H106.451C106.417 43.3111 106.386 43.2929 106.365 43.2652C106.344 43.2375 106.335 43.2027 106.34 43.1684C106.345 43.1341 106.363 43.1031 106.391 43.0822C106.419 43.0614 106.453 43.0523 106.488 43.0572L106.696 43.0862C107.291 43.1705 107.917 43.2695 108.558 43.3806C108.592 43.386 108.623 43.4047 108.643 43.4327C108.664 43.4608 108.672 43.4957 108.667 43.5299C108.661 43.5642 108.643 43.5949 108.615 43.6153C108.587 43.6357 108.552 43.6441 108.517 43.6387ZM176.111 52.8503C176.081 52.8461 176.054 52.8317 176.034 52.8098C176.013 52.7878 176.001 52.7596 175.999 52.7297C175.997 52.6998 176.005 52.6702 176.022 52.6457C176.04 52.6212 176.065 52.6033 176.094 52.5951C176.353 52.522 176.611 52.4463 176.869 52.3681C176.885 52.3631 176.902 52.3614 176.919 52.363C176.937 52.3647 176.953 52.3697 176.968 52.3778C176.983 52.3858 176.997 52.3968 177.008 52.4101C177.019 52.4233 177.027 52.4386 177.032 52.455C177.037 52.4714 177.038 52.4886 177.037 52.5057C177.035 52.5228 177.03 52.5393 177.022 52.5545C177.014 52.5696 177.003 52.583 176.99 52.5939C176.976 52.6048 176.961 52.613 176.945 52.6179C176.685 52.6969 176.425 52.7729 176.165 52.8466C176.147 52.8516 176.129 52.8529 176.111 52.8503Z" fill="#3C3299"/>
<path d="M179.429 51.7993L185.585 49.9759L182.615 47.4688L179.429 51.7993Z" fill="url(#paint21_linear_64_598)"/>
<path d="M185.481 51.147L192.442 45.8828L182.558 48.9802L185.481 51.147Z" fill="url(#paint22_linear_64_598)"/>
<path d="M192.446 45.8707L178.241 44.4688L181.025 46.7413L192.446 45.8707Z" fill="url(#paint23_linear_64_598)"/>
<path d="M192.442 45.8828L182.547 49.0148L179.429 51.798L181.007 46.6945L192.442 45.8828Z" fill="url(#paint24_linear_64_598)"/>
<path d="M107.362 54.0514C107.418 54.1402 107.436 54.2473 107.41 54.3526C107.393 54.4208 107.358 54.4832 107.309 54.5335C107.26 54.5838 107.198 54.6201 107.13 54.6387L105.775 55.0256C105.707 55.0456 105.635 55.0474 105.566 55.0309C105.497 55.0144 105.434 54.9801 105.382 54.9315C105.331 54.8842 105.293 54.8239 105.273 54.757C105.253 54.6901 105.252 54.619 105.269 54.5514L105.604 53.2088C105.621 53.1405 105.656 53.0781 105.705 53.0278C105.754 52.9775 105.816 52.9412 105.884 52.9226C105.952 52.9027 106.024 52.9009 106.093 52.9174C106.162 52.934 106.225 52.9682 106.277 53.0168L107.297 53.9723C107.322 53.9964 107.344 54.0229 107.362 54.0514ZM105.588 54.689C105.598 54.705 105.613 54.7174 105.631 54.7241C105.648 54.7308 105.668 54.7315 105.686 54.7261L107.041 54.3392C107.055 54.3353 107.068 54.3277 107.079 54.317C107.089 54.3064 107.096 54.2931 107.1 54.2786C107.104 54.2643 107.103 54.2493 107.099 54.2351C107.095 54.2209 107.087 54.2082 107.076 54.1983L106.056 53.2426C106.045 53.2322 106.032 53.2249 106.017 53.2214C106.003 53.2179 105.987 53.2183 105.973 53.2226C105.959 53.2265 105.946 53.2341 105.935 53.2448C105.925 53.2554 105.917 53.2687 105.914 53.2832L105.579 54.6257C105.576 54.6363 105.575 54.6475 105.577 54.6584C105.578 54.6693 105.582 54.6797 105.588 54.689Z" fill="url(#paint25_linear_64_598)"/>
<path d="M252.938 115.493C252.995 115.582 253.012 115.689 252.986 115.794C252.969 115.862 252.934 115.925 252.885 115.975C252.836 116.025 252.774 116.062 252.707 116.08L251.351 116.467C251.283 116.487 251.211 116.489 251.142 116.472C251.073 116.456 251.01 116.421 250.959 116.373C250.907 116.326 250.869 116.265 250.85 116.198C250.83 116.132 250.828 116.06 250.845 115.993L251.18 114.65C251.197 114.582 251.232 114.519 251.281 114.469C251.331 114.419 251.392 114.383 251.46 114.364C251.528 114.344 251.6 114.342 251.669 114.359C251.738 114.375 251.801 114.41 251.853 114.458L252.873 115.414C252.898 115.438 252.92 115.464 252.938 115.493ZM251.165 116.13C251.174 116.146 251.189 116.159 251.207 116.165C251.225 116.172 251.244 116.173 251.262 116.167L252.617 115.781C252.632 115.777 252.645 115.769 252.655 115.758C252.665 115.748 252.673 115.734 252.676 115.72C252.68 115.706 252.68 115.691 252.675 115.677C252.671 115.662 252.663 115.65 252.652 115.64L251.632 114.684C251.622 114.674 251.608 114.666 251.594 114.663C251.579 114.659 251.564 114.66 251.549 114.664C251.535 114.668 251.522 114.676 251.512 114.686C251.501 114.697 251.494 114.71 251.49 114.725L251.155 116.067C251.152 116.078 251.151 116.089 251.153 116.1C251.155 116.111 251.159 116.121 251.165 116.13Z" fill="url(#paint26_linear_64_598)"/>
<path d="M22.6704 65.484L23.169 64.996C23.1958 64.9699 23.2171 64.9387 23.2317 64.9043C23.2463 64.8698 23.2538 64.8328 23.2538 64.7954C23.2538 64.758 23.2463 64.721 23.2317 64.6866C23.2171 64.6521 23.1958 64.6209 23.169 64.5949C23.1141 64.5415 23.0406 64.5117 22.9641 64.5117C22.8876 64.5117 22.8141 64.5415 22.7592 64.5949L22.2607 65.0829L21.7621 64.5949C21.7073 64.5415 21.6338 64.5117 21.5573 64.5117C21.4807 64.5117 21.4072 64.5415 21.3524 64.5949C21.3255 64.6209 21.3042 64.6521 21.2896 64.6866C21.2751 64.721 21.2676 64.758 21.2676 64.7954C21.2676 64.8328 21.2751 64.8698 21.2896 64.9043C21.3042 64.9387 21.3255 64.9699 21.3524 64.996L21.8509 65.484L21.3534 65.9712C21.3266 65.9973 21.3052 66.0285 21.2907 66.0629C21.2761 66.0974 21.2686 66.1344 21.2686 66.1718C21.2686 66.2092 21.2761 66.2462 21.2907 66.2807C21.3052 66.3151 21.3266 66.3463 21.3534 66.3723C21.4099 66.4278 21.4842 66.4554 21.5582 66.4554C21.6323 66.4554 21.7065 66.4276 21.763 66.3723L22.2605 65.8851L22.758 66.3723C22.8146 66.4278 22.8888 66.4554 22.9628 66.4554C23.0369 66.4554 23.1111 66.4276 23.1675 66.3723C23.2809 66.2615 23.2809 66.0819 23.1675 65.9712L22.6704 65.484Z" fill="url(#paint27_linear_64_598)"/>
<path d="M160.022 45.6364L160.52 45.1483C160.547 45.1223 160.568 45.0911 160.583 45.0566C160.598 45.0222 160.605 44.9852 160.605 44.9478C160.605 44.9104 160.598 44.8733 160.583 44.8389C160.568 44.8044 160.547 44.7733 160.52 44.7472C160.465 44.6939 160.392 44.6641 160.315 44.6641C160.239 44.6641 160.165 44.6939 160.111 44.7472L159.612 45.2353L159.113 44.7472C159.059 44.6939 158.985 44.6641 158.909 44.6641C158.832 44.6641 158.759 44.6939 158.704 44.7472C158.677 44.7733 158.656 44.8044 158.641 44.8389C158.626 44.8733 158.619 44.9104 158.619 44.9478C158.619 44.9852 158.626 45.0222 158.641 45.0566C158.656 45.0911 158.677 45.1223 158.704 45.1483L159.202 45.6364L158.705 46.1236C158.678 46.1496 158.657 46.1808 158.642 46.2153C158.627 46.2497 158.62 46.2867 158.62 46.3241C158.62 46.3615 158.627 46.3986 158.642 46.433C158.657 46.4675 158.678 46.4986 158.705 46.5247C158.761 46.5801 158.836 46.6077 158.91 46.6077C158.983 46.6077 159.058 46.5799 159.114 46.5247L159.612 46.0375L160.109 46.5247C160.166 46.5801 160.24 46.6077 160.314 46.6077C160.388 46.6077 160.462 46.5799 160.519 46.5247C160.546 46.4986 160.567 46.4675 160.582 46.433C160.596 46.3986 160.604 46.3615 160.604 46.3241C160.604 46.2867 160.596 46.2497 160.582 46.2153C160.567 46.1808 160.546 46.1496 160.519 46.1236L160.022 45.6364Z" fill="url(#paint28_linear_64_598)"/>
<path d="M23.0434 126.853C22.4157 126.853 21.9048 126.352 21.9048 125.738C21.9048 125.123 22.4155 124.623 23.0434 124.623C23.6711 124.623 24.182 125.123 24.182 125.738C24.1818 126.352 23.6711 126.853 23.0434 126.853ZM23.0434 124.972C22.612 124.972 22.2612 125.315 22.2612 125.738C22.2612 126.16 22.6122 126.504 23.0434 126.504C23.4748 126.504 23.8256 126.16 23.8256 125.738C23.8256 125.315 23.4746 124.972 23.0434 124.972Z" fill="url(#paint29_linear_64_598)"/>
<path d="M245.423 144.624C244.796 144.624 244.285 144.124 244.285 143.509C244.285 142.895 244.795 142.395 245.423 142.395C246.051 142.395 246.562 142.895 246.562 143.509C246.562 144.124 246.051 144.624 245.423 144.624ZM245.423 142.743C244.992 142.743 244.641 143.087 244.641 143.509C244.641 143.932 244.992 144.275 245.423 144.275C245.855 144.275 246.206 143.932 246.206 143.509C246.206 143.087 245.854 142.743 245.423 142.743Z" fill="url(#paint30_linear_64_598)"/>
<defs>
<linearGradient id="paint0_linear_64_598" x1="32.587" y1="50.4113" x2="57.0698" y2="98.9944" gradientUnits="userSpaceOnUse">
<stop stop-color="#F5CBFB"/>
<stop offset="1" stop-color="#84D4FF"/>
</linearGradient>
<linearGradient id="paint1_linear_64_598" x1="260.542" y1="84.8083" x2="221.363" y2="102.445" gradientUnits="userSpaceOnUse">
<stop stop-color="#F5CBFB"/>
<stop offset="1" stop-color="#84D4FF"/>
</linearGradient>
<linearGradient id="paint2_linear_64_598" x1="264.812" y1="31.9528" x2="181.72" y2="106.523" gradientUnits="userSpaceOnUse">
<stop stop-color="#FF66BA"/>
<stop offset="1" stop-color="#8A1988"/>
</linearGradient>
<linearGradient id="paint3_linear_64_598" x1="114.927" y1="67.7108" x2="180.619" y2="178.5" gradientUnits="userSpaceOnUse">
<stop stop-color="#ABDCFF"/>
<stop offset="1" stop-color="#73B2FF"/>
</linearGradient>
<linearGradient id="paint4_linear_64_598" x1="135.979" y1="55.2299" x2="201.672" y2="166.02" gradientUnits="userSpaceOnUse">
<stop stop-color="#5D64C2"/>
<stop offset="1" stop-color="#251978"/>
</linearGradient>
<linearGradient id="paint5_linear_64_598" x1="188.47" y1="24.1062" x2="254.162" y2="134.896" gradientUnits="userSpaceOnUse">
<stop stop-color="#5D64C2"/>
<stop offset="1" stop-color="#251978"/>
</linearGradient>
<linearGradient id="paint6_linear_64_598" x1="184.448" y1="68.5669" x2="184.448" y2="167.824" gradientUnits="userSpaceOnUse">
<stop stop-color="#ABDCFF"/>
<stop offset="1" stop-color="#73B2FF"/>
</linearGradient>
<linearGradient id="paint7_linear_64_598" x1="128.271" y1="117.939" x2="260.011" y2="115.808" gradientUnits="userSpaceOnUse">
<stop stop-color="#5D64C2"/>
<stop offset="1" stop-color="#251978"/>
</linearGradient>
<linearGradient id="paint8_linear_64_598" x1="128.275" y1="118.205" x2="260.015" y2="116.074" gradientUnits="userSpaceOnUse">
<stop stop-color="#5D64C2"/>
<stop offset="1" stop-color="#251978"/>
</linearGradient>
<linearGradient id="paint9_linear_64_598" x1="128.279" y1="118.473" x2="260.019" y2="116.343" gradientUnits="userSpaceOnUse">
<stop stop-color="#5D64C2"/>
<stop offset="1" stop-color="#251978"/>
</linearGradient>
<linearGradient id="paint10_linear_64_598" x1="128.284" y1="118.739" x2="260.024" y2="116.609" gradientUnits="userSpaceOnUse">
<stop stop-color="#5D64C2"/>
<stop offset="1" stop-color="#251978"/>
</linearGradient>
<linearGradient id="paint11_linear_64_598" x1="184.448" y1="68.5697" x2="184.448" y2="167.827" gradientUnits="userSpaceOnUse">
<stop stop-color="#ABDCFF"/>
<stop offset="1" stop-color="#73B2FF"/>
</linearGradient>
<linearGradient id="paint12_linear_64_598" x1="110.499" y1="166.294" x2="110.499" y2="167.862" gradientUnits="userSpaceOnUse">
<stop stop-color="#ABDCFF"/>
<stop offset="1" stop-color="#73B2FF"/>
</linearGradient>
<linearGradient id="paint13_linear_64_598" x1="137.046" y1="166.294" x2="137.046" y2="167.862" gradientUnits="userSpaceOnUse">
<stop stop-color="#ABDCFF"/>
<stop offset="1" stop-color="#73B2FF"/>
</linearGradient>
<linearGradient id="paint14_linear_64_598" x1="163.592" y1="166.294" x2="163.592" y2="167.862" gradientUnits="userSpaceOnUse">
<stop stop-color="#ABDCFF"/>
<stop offset="1" stop-color="#73B2FF"/>
</linearGradient>
<linearGradient id="paint15_linear_64_598" x1="32.9878" y1="144.799" x2="92.4084" y2="144.799" gradientUnits="userSpaceOnUse">
<stop stop-color="#5D64C2"/>
<stop offset="1" stop-color="#251978"/>
</linearGradient>
<linearGradient id="paint16_linear_64_598" x1="60.7822" y1="97.7081" x2="64.675" y2="97.7081" gradientUnits="userSpaceOnUse">
<stop stop-color="#5D64C2"/>
<stop offset="1" stop-color="#251978"/>
</linearGradient>
<linearGradient id="paint17_linear_64_598" x1="62.387" y1="137.288" x2="62.387" y2="146.999" gradientUnits="userSpaceOnUse">
<stop stop-color="#5D64C2"/>
<stop offset="1" stop-color="#251978"/>
</linearGradient>
<linearGradient id="paint18_linear_64_598" x1="26.7785" y1="95.0174" x2="52.3151" y2="95.0174" gradientUnits="userSpaceOnUse">
<stop offset="0.189" stop-color="#FFBE69"/>
<stop offset="1" stop-color="#FF8F5C"/>
</linearGradient>
<linearGradient id="paint19_linear_64_598" x1="27.0332" y1="90.8665" x2="52.1722" y2="90.8665" gradientUnits="userSpaceOnUse">
<stop offset="0.189" stop-color="#FFBE69"/>
<stop offset="1" stop-color="#FF8F5C"/>
</linearGradient>
<linearGradient id="paint20_linear_64_598" x1="24.3145" y1="86.6138" x2="30.7062" y2="86.6138" gradientUnits="userSpaceOnUse">
<stop stop-color="#FF66BA"/>
<stop offset="1" stop-color="#8A1988"/>
</linearGradient>
<linearGradient id="paint21_linear_64_598" x1="185.016" y1="48.3886" x2="179.007" y2="50.6103" gradientUnits="userSpaceOnUse">
<stop stop-color="#ABDCFF"/>
<stop offset="1" stop-color="#73B2FF"/>
</linearGradient>
<linearGradient id="paint22_linear_64_598" x1="192.807" y1="46.8198" x2="183.104" y2="50.4075" gradientUnits="userSpaceOnUse">
<stop stop-color="#ABDCFF"/>
<stop offset="1" stop-color="#73B2FF"/>
</linearGradient>
<linearGradient id="paint23_linear_64_598" x1="191.381" y1="42.9423" x2="179.341" y2="47.3943" gradientUnits="userSpaceOnUse">
<stop stop-color="#ABDCFF"/>
<stop offset="1" stop-color="#73B2FF"/>
</linearGradient>
<linearGradient id="paint24_linear_64_598" x1="192.083" y1="44.8643" x2="178.711" y2="49.8087" gradientUnits="userSpaceOnUse">
<stop stop-color="#ABDCFF"/>
<stop offset="1" stop-color="#73B2FF"/>
</linearGradient>
<linearGradient id="paint25_linear_64_598" x1="105.396" y1="53.6898" x2="107.615" y2="55.1469" gradientUnits="userSpaceOnUse">
<stop stop-color="#FF66BA"/>
<stop offset="1" stop-color="#8A1988"/>
</linearGradient>
<linearGradient id="paint26_linear_64_598" x1="250.973" y1="115.131" x2="253.191" y2="116.588" gradientUnits="userSpaceOnUse">
<stop stop-color="#FF66BA"/>
<stop offset="1" stop-color="#8A1988"/>
</linearGradient>
<linearGradient id="paint27_linear_64_598" x1="21.2677" y1="65.4836" x2="23.2539" y2="65.4836" gradientUnits="userSpaceOnUse">
<stop offset="0.189" stop-color="#FFBE69"/>
<stop offset="1" stop-color="#FF8F5C"/>
</linearGradient>
<linearGradient id="paint28_linear_64_598" x1="158.619" y1="45.6359" x2="160.605" y2="45.6359" gradientUnits="userSpaceOnUse">
<stop offset="0.189" stop-color="#FFBE69"/>
<stop offset="1" stop-color="#FF8F5C"/>
</linearGradient>
<linearGradient id="paint29_linear_64_598" x1="21.9048" y1="125.738" x2="24.1818" y2="125.738" gradientUnits="userSpaceOnUse">
<stop stop-color="#5D64C2"/>
<stop offset="1" stop-color="#251978"/>
</linearGradient>
<linearGradient id="paint30_linear_64_598" x1="244.285" y1="143.509" x2="246.562" y2="143.509" gradientUnits="userSpaceOnUse">
<stop stop-color="#5D64C2"/>
<stop offset="1" stop-color="#251978"/>
</linearGradient>
</defs>
</svg>
