<svg width="16" height="16" viewBox="0 0 16 16" fill="none" xmlns="http://www.w3.org/2000/svg">
<path fill-rule="evenodd" clip-rule="evenodd" d="M6.62167 5.86519C6.57896 5.76377 6.49889 5.68371 6.3916 5.64634C6.35477 5.63566 6.31207 5.62499 6.26936 5.63033C6.21545 5.63033 6.1626 5.641 6.10869 5.66235C5.9651 5.72641 5.86902 5.87053 5.86902 6.03067C5.86902 6.19081 5.9651 6.33493 6.10869 6.39899C6.20531 6.43635 6.3174 6.43635 6.41295 6.39899C6.5037 6.35628 6.5843 6.27622 6.61579 6.18013C6.66384 6.07871 6.66384 5.96662 6.62167 5.86519ZM10.4464 9.66449C10.377 9.58976 10.2751 9.54706 10.1683 9.54706C10.0674 9.54706 9.96546 9.58976 9.89126 9.66449C9.73646 9.81929 9.73646 10.0755 9.89126 10.2303C9.96546 10.305 10.0674 10.3424 10.1683 10.3424C10.2751 10.3424 10.377 10.305 10.4464 10.2303C10.606 10.0755 10.606 9.81929 10.4464 9.66449ZM10.4464 9.66449C10.377 9.58976 10.2751 9.54706 10.1683 9.54706C10.0674 9.54706 9.96546 9.58976 9.89126 9.66449C9.73646 9.81929 9.73646 10.0755 9.89126 10.2303C9.96546 10.305 10.0674 10.3424 10.1683 10.3424C10.2751 10.3424 10.377 10.305 10.4464 10.2303C10.606 10.0755 10.606 9.81929 10.4464 9.66449ZM6.62167 5.86519C6.57896 5.76377 6.49889 5.68371 6.3916 5.64634C6.35477 5.63566 6.31207 5.62499 6.26936 5.63033C6.21545 5.63033 6.1626 5.641 6.10869 5.66235C5.9651 5.72641 5.86902 5.87053 5.86902 6.03067C5.86902 6.19081 5.9651 6.33493 6.10869 6.39899C6.20531 6.43635 6.3174 6.43635 6.41295 6.39899C6.5037 6.35628 6.5843 6.27622 6.61579 6.18013C6.66384 6.07871 6.66384 5.96662 6.62167 5.86519ZM6.10869 6.39899C6.20531 6.43635 6.3174 6.43635 6.41295 6.39899C6.5037 6.35628 6.5843 6.27622 6.61579 6.18013C6.66384 6.07871 6.66384 5.96662 6.62167 5.86519C6.57896 5.76377 6.49889 5.68371 6.3916 5.64634C6.35477 5.63566 6.31207 5.62499 6.26936 5.63033C6.21545 5.63033 6.1626 5.641 6.10869 5.66235C5.9651 5.72641 5.86902 5.87053 5.86902 6.03067C5.86902 6.19081 5.9651 6.33493 6.10869 6.39899ZM10.1683 9.54706C10.0674 9.54706 9.96546 9.58976 9.89126 9.66449C9.73646 9.81929 9.73646 10.0755 9.89126 10.2303C9.96546 10.305 10.0674 10.3424 10.1683 10.3424C10.2751 10.3424 10.377 10.305 10.4464 10.2303C10.606 10.0755 10.606 9.81929 10.4464 9.66449C10.377 9.58976 10.2751 9.54706 10.1683 9.54706ZM11.2761 11.0714C10.983 11.3645 10.5833 11.519 10.1676 11.5137C9.75238 11.5137 9.35267 11.3485 9.05901 11.0554C8.64917 10.597 8.53725 9.94151 8.77708 9.37658C9.01105 8.80633 9.55519 8.4226 10.1676 8.39062C10.5833 8.39062 10.983 8.55584 11.2761 8.85429C11.873 9.47252 11.873 10.4531 11.2761 11.0714ZM6.55601 10.5278C6.44943 10.6398 6.29489 10.6984 6.14514 10.6984C5.90533 10.6984 5.69802 10.5545 5.6021 10.336C5.51683 10.1175 5.56479 9.87236 5.72414 9.70183L9.89684 5.5078C10.1319 5.27865 10.499 5.27865 10.7287 5.5078C10.9579 5.73695 10.9579 6.10999 10.7287 6.33915L6.55601 10.5278ZM4.81477 5.46079C5.12388 4.65603 6.03043 4.25632 6.83465 4.56543C7.43209 4.7946 7.82647 5.35953 7.8366 5.99907C7.84779 6.63328 7.47473 7.2142 6.88848 7.46468C6.69662 7.54995 6.48291 7.59792 6.27026 7.59792C6.07786 7.59792 5.886 7.56061 5.7 7.49133C4.90537 7.1609 4.51685 6.26554 4.81477 5.46079ZM15.4108 8.21001C15.4528 7.68259 15.5594 7.16049 15.7352 6.65971C15.959 6.15892 16.0341 5.59954 15.9435 5.05613C15.789 4.65125 15.2717 4.3316 14.7235 3.99064C14.2653 3.72959 13.8391 3.41527 13.4609 3.04767C13.1354 2.65876 12.8589 2.22191 12.6405 1.76375C12.4433 1.231 12.0864 0.772832 11.6176 0.442528C11.0635 0.309341 10.4828 0.346633 9.95008 0.549078C9.46528 0.703575 8.95384 0.783487 8.44773 0.794142C7.91498 0.751522 7.38702 0.639645 6.88677 0.45851C6.38599 0.240083 5.83193 0.170826 5.28853 0.261393C4.88311 0.41589 4.56399 0.932657 4.22303 1.48139C3.96731 1.93955 3.64766 2.3551 3.27953 2.73335C2.89116 3.06365 2.4591 3.34601 1.99561 3.56444C1.46286 3.76688 1.00523 4.12382 0.674388 4.58732C0.541201 5.14137 0.579026 5.72207 0.781471 6.25482C0.930108 6.74495 1.01535 7.25106 1.02654 7.7625C0.983916 8.29525 0.871506 8.81734 0.690904 9.31813C0.471944 9.81891 0.403219 10.373 0.493787 10.9164C0.648284 11.3213 1.17038 11.6409 1.71325 11.9819C2.17674 12.2429 2.59761 12.5572 2.97586 12.9248C3.30617 13.3137 3.57787 13.7506 3.7963 14.2088C3.99874 14.7415 4.35622 15.1997 4.81918 15.53C5.37323 15.6632 5.95446 15.6205 6.48721 15.4181C6.95017 15.2849 7.43018 15.1997 7.91498 15.1784H7.99436C8.52178 15.2157 9.04441 15.3222 9.53933 15.498C10.046 15.7218 10.6048 15.7964 11.1488 15.7111C11.559 15.5619 11.8728 15.0398 12.2143 14.4911C12.4748 14.033 12.795 13.6068 13.1572 13.2285C13.5515 12.8982 13.9825 12.6212 14.4412 12.3974C14.9787 12.2003 15.4374 11.8434 15.7618 11.3745C15.895 10.8205 15.8583 10.2398 15.6558 9.70703C15.5067 9.22223 15.4262 8.72145 15.4108 8.21001ZM6.62167 5.86519C6.57896 5.76377 6.49889 5.68371 6.3916 5.64634C6.35477 5.63566 6.31207 5.62499 6.26936 5.63033C6.21545 5.63033 6.1626 5.641 6.10869 5.66235C5.9651 5.72641 5.86902 5.87053 5.86902 6.03067C5.86902 6.19081 5.9651 6.33493 6.10869 6.39899C6.20531 6.43635 6.3174 6.43635 6.41295 6.39899C6.5037 6.35628 6.5843 6.27622 6.61579 6.18013C6.66384 6.07871 6.66384 5.96662 6.62167 5.86519ZM10.4464 9.66449C10.377 9.58976 10.2751 9.54706 10.1683 9.54706C10.0674 9.54706 9.96546 9.58976 9.89126 9.66449C9.73646 9.81929 9.73646 10.0755 9.89126 10.2303C9.96546 10.305 10.0674 10.3424 10.1683 10.3424C10.2751 10.3424 10.377 10.305 10.4464 10.2303C10.606 10.0755 10.606 9.81929 10.4464 9.66449ZM10.4464 9.66449C10.377 9.58976 10.2751 9.54706 10.1683 9.54706C10.0674 9.54706 9.96546 9.58976 9.89126 9.66449C9.73646 9.81929 9.73646 10.0755 9.89126 10.2303C9.96546 10.305 10.0674 10.3424 10.1683 10.3424C10.2751 10.3424 10.377 10.305 10.4464 10.2303C10.606 10.0755 10.606 9.81929 10.4464 9.66449ZM6.62167 5.86519C6.57896 5.76377 6.49889 5.68371 6.3916 5.64634C6.35477 5.63566 6.31207 5.62499 6.26936 5.63033C6.21545 5.63033 6.1626 5.641 6.10869 5.66235C5.9651 5.72641 5.86902 5.87053 5.86902 6.03067C5.86902 6.19081 5.9651 6.33493 6.10869 6.39899C6.20531 6.43635 6.3174 6.43635 6.41295 6.39899C6.5037 6.35628 6.5843 6.27622 6.61579 6.18013C6.66384 6.07871 6.66384 5.96662 6.62167 5.86519ZM10.4464 9.66449C10.377 9.58976 10.2751 9.54706 10.1683 9.54706C10.0674 9.54706 9.96546 9.58976 9.89126 9.66449C9.73646 9.81929 9.73646 10.0755 9.89126 10.2303C9.96546 10.305 10.0674 10.3424 10.1683 10.3424C10.2751 10.3424 10.377 10.305 10.4464 10.2303C10.606 10.0755 10.606 9.81929 10.4464 9.66449ZM10.4464 9.66449C10.377 9.58976 10.2751 9.54706 10.1683 9.54706C10.0674 9.54706 9.96546 9.58976 9.89126 9.66449C9.73646 9.81929 9.73646 10.0755 9.89126 10.2303C9.96546 10.305 10.0674 10.3424 10.1683 10.3424C10.2751 10.3424 10.377 10.305 10.4464 10.2303C10.606 10.0755 10.606 9.81929 10.4464 9.66449ZM6.62167 5.86519C6.57896 5.76377 6.49889 5.68371 6.3916 5.64634C6.35477 5.63566 6.31207 5.62499 6.26936 5.63033C6.21545 5.63033 6.1626 5.641 6.10869 5.66235C5.9651 5.72641 5.86902 5.87053 5.86902 6.03067C5.86902 6.19081 5.9651 6.33493 6.10869 6.39899C6.20531 6.43635 6.3174 6.43635 6.41295 6.39899C6.5037 6.35628 6.5843 6.27622 6.61579 6.18013C6.66384 6.07871 6.66384 5.96662 6.62167 5.86519ZM6.62167 5.86519C6.57896 5.76377 6.49889 5.68371 6.3916 5.64634C6.35477 5.63566 6.31207 5.62499 6.26936 5.63033C6.21545 5.63033 6.1626 5.641 6.10869 5.66235C5.9651 5.72641 5.86902 5.87053 5.86902 6.03067C5.86902 6.19081 5.9651 6.33493 6.10869 6.39899C6.20531 6.43635 6.3174 6.43635 6.41295 6.39899C6.5037 6.35628 6.5843 6.27622 6.61579 6.18013C6.66384 6.07871 6.66384 5.96662 6.62167 5.86519Z" fill="#83848B"/>
</svg>
