<svg width="16" height="15" viewBox="0 0 16 15" fill="none" xmlns="http://www.w3.org/2000/svg">
<path d="M1.30722 0.484375H15.4971C15.7596 0.484375 15.9723 0.746847 15.9723 0.959568V2.95311C15.9723 3.21558 15.7596 3.4283 15.4971 3.4283H1.30722C1.04475 3.4283 0.832031 3.16583 0.832031 2.95311V0.959568C0.832031 0.697096 1.04475 0.484375 1.30722 0.484375Z" fill="#83848B"/>
<path d="M1.67188 4.26953V13.9903C1.67188 14.2012 1.75563 14.4035 1.90473 14.5526C2.05383 14.7016 2.25608 14.7854 2.46694 14.7854H14.3371C14.548 14.7854 14.7502 14.7017 14.8993 14.5526C15.0484 14.4035 15.1322 14.2012 15.1322 13.9903V4.26953H10.5051V10.9997C10.5042 11.1695 10.4015 11.3222 10.2443 11.3868C10.1944 11.4102 10.1397 11.4219 10.0845 11.4204C9.97278 11.4209 9.86518 11.3772 9.78594 11.2983L8.40197 9.91021L7.018 11.2983C6.89706 11.4177 6.71623 11.4527 6.55961 11.3868C6.40244 11.3222 6.29972 11.1695 6.29878 10.9997V4.26953L1.67188 4.26953Z" fill="#83848B"/>
<path d="M8.70157 9.01977L9.66517 9.98752V4.26953H7.14062V9.98752L8.10423 9.01977C8.18312 8.94013 8.29076 8.89524 8.4029 8.89524C8.51503 8.89524 8.62267 8.94013 8.70156 9.01977H8.70157Z" fill="#83848B"/>
</svg>
