<svg width="243" height="243" viewBox="0 0 243 243" fill="none" xmlns="http://www.w3.org/2000/svg">
<g clip-path="url(#clip0_562_4742)">
<path opacity="0.5" d="M61.7761 97.0633C64.4308 91.6839 68.1548 86.7206 72.0337 82.3345C79.5211 73.8446 88.0474 66.3511 96.9199 59.3497C99.4897 57.3206 114.662 44.3657 114.51 54.6416C114.191 75.7036 108.951 79.5248 131.563 57.2963C154.174 35.0679 181.044 29.1053 167.934 50.1187C154.824 71.1322 55.209 193.34 66.3505 163.688C77.4921 134.036 90.5989 117.475 72.9085 125.752C63.7656 130.029 58.9876 123.587 58.0855 115.045C57.4172 108.724 59.0089 102.667 61.7761 97.0633ZM125.506 194.631C129.151 191.988 132.355 188.595 135.113 185.181C140.453 178.569 144.928 171.312 148.992 163.864C150.17 161.704 157.846 148.841 150.261 150.25C134.709 153.139 132.541 157.497 146.146 137.963C159.751 118.429 160.777 97.7832 146.881 110.134C132.984 122.484 55.0632 211.626 75.6119 199.64C96.1606 187.654 106.761 175.871 102.864 190.005C100.85 197.313 106.206 200.028 112.657 199.628C117.423 199.324 121.703 197.386 125.506 194.631Z" fill="#B0E1EE"/>
<path d="M107.989 217.124C107.989 217.124 109.204 225.225 105.665 228.323C102.127 231.421 107.3 231.285 109.201 229.213C111.103 227.141 118.839 220.501 117.733 217.124C117.458 216.186 116.898 215.357 116.131 214.752C115.364 214.146 114.427 213.795 113.451 213.746L107.989 217.124Z" fill="#214351"/>
<path d="M154.437 67.5461C154.437 67.5461 154.173 67.0814 154.306 65.9423C154.44 64.8032 153.328 66.4192 153.419 67.0115C153.511 67.6038 153.526 69.2228 153.526 69.2228L154.367 69.4415L154.437 67.5461ZM157.809 65.3409C157.809 65.3409 157.76 64.6605 158.553 63.488C159.346 62.3155 157.162 63.3938 156.931 64.0955C156.7 64.7972 155.834 66.6136 155.834 66.6136L156.682 67.3882L157.809 65.3409Z" fill="#F69A8C"/>
<path d="M160.387 61.054C158.62 61.2727 157.256 65.4037 157.256 65.4037C157.034 64.3163 158.085 61.1694 157.228 62.0624C156.372 62.9555 155.758 66.8921 155.758 66.8921C155.29 65.9504 156.308 63.405 155.342 64.1431C154.774 64.5775 154.647 65.5191 154.513 66.1691C154.42 66.6587 154.227 67.1238 153.945 67.5347C153.663 67.9457 153.299 68.2937 152.876 68.5566C152.265 68.9112 151.731 69.3842 151.305 69.9478C150.853 70.6403 150.777 71.5182 150.667 72.317C150.637 72.554 150.552 74.1973 150.689 74.3096C151.937 75.3151 154.264 74.9566 154.264 74.9566C154.425 73.7629 155.224 73.4652 155.558 72.9488C156.077 72.1469 156.584 71.3329 157.046 70.4915C157.477 69.7139 158.003 68.8361 158.027 67.9187C158.061 66.7736 158.793 65.1425 159.327 63.7391C159.862 62.3358 162.164 60.8444 160.387 61.054Z" fill="#FBBA8F"/>
<path d="M121.371 221.629C121.371 221.629 121.067 224.709 123.321 228.102C125.575 231.495 121.963 234.11 119.582 234.912C117.201 235.714 112.833 231.689 112.483 231.294C112.134 230.899 113.419 228.327 112.72 226.528C112.022 224.73 113.513 222.65 113.513 222.65L121.371 221.629Z" fill="#385667"/>
<path d="M126.617 116.064C126.617 116.064 128.743 136.853 126.671 158.121C124.6 179.39 123.573 182.479 124.241 187.035C124.91 191.592 123.424 212.38 121.25 222.27C121.25 222.27 116.523 224.782 113.525 222.674C113.525 222.674 111.047 195.726 113.464 176.605C112.653 164.357 107.608 136.449 109.719 117.808L110.46 109.108L126.617 116.064Z" fill="#333333"/>
<path d="M96.4195 114.135C94.9159 128.023 91.9301 143.599 90.6969 157.079C89.4636 170.56 90.6969 174.59 92.6712 185.574C94.6456 196.558 102.777 207.605 107.989 217.125C110.723 217.304 111.549 215.937 113.457 213.747C110.681 201.029 110.605 191.971 101.769 182.251C103.102 160.621 114.991 137.7 113.284 115.699C113.019 112.592 112.676 109.518 112.372 106.396C107.099 109.141 101.632 111.14 96.4195 114.135Z" fill="#333333"/>
<path d="M117.963 40.8057L112.106 41.6805L106.25 40.8057C106.25 40.8057 107.872 47.4153 106.25 52.4059L112.106 58.7664L117.963 52.4059C116.344 47.4153 117.963 40.8057 117.963 40.8057Z" fill="#F69A8C"/>
<path d="M103.209 13.26C103.209 13.26 95.3537 13.7278 99.8675 26.4914C99.8675 26.4914 101.963 29.2737 102.938 29.1704C103.913 29.0672 101.687 21.1059 106.018 17.0113C110.35 12.9168 103.209 13.26 103.209 13.26ZM120.844 13.26C120.844 13.26 128.699 13.7278 124.186 26.4914C124.186 26.4914 122.09 29.2737 121.115 29.1704C120.14 29.0672 122.366 21.1059 118.032 17.0113C113.697 12.9168 120.844 13.26 120.844 13.26Z" fill="#B4B4B4"/>
<path d="M123.083 25.7613C123.083 25.7613 126.12 22.6479 126.536 25.9952C126.952 29.3425 123.736 33.8927 123.736 33.8927L119.951 31.1589L123.083 25.7613ZM100.963 25.7613C100.963 25.7613 97.9259 22.6479 97.5098 25.9952C97.0937 29.3425 100.31 33.8927 100.31 33.8927L104.095 31.1589L100.963 25.7613Z" fill="#FBBA8F"/>
<path d="M124.348 35.4483C124.357 35.8963 124.343 36.3444 124.306 36.7909C123.941 40.9523 119.063 44.2328 115.74 46.1707C114.638 46.8115 113.386 47.1491 112.112 47.1491C110.837 47.1491 109.585 46.8115 108.483 46.1707C105.166 44.2449 100.3 40.9614 99.9145 36.8031C99.7935 35.2025 99.9508 33.5932 100.379 32.0463C100.534 31.4844 102.174 28.6018 102.089 28.4347C101.221 26.7213 100.805 24.8138 100.884 22.8943C100.962 20.9749 101.531 19.1075 102.536 17.4704C103.542 15.8334 104.95 14.4814 106.626 13.5436C108.303 12.6057 110.192 12.1133 112.113 12.1133C114.034 12.1133 115.923 12.6057 117.6 13.5436C119.276 14.4814 120.685 15.8334 121.69 17.4704C122.695 19.1075 123.264 20.9749 123.343 22.8943C123.421 24.8138 123.006 26.7213 122.137 28.4347C122.061 28.5836 123.71 31.4722 123.841 31.937C124.156 33.0816 124.327 34.2613 124.348 35.4483Z" fill="#FBBA8F"/>
<path d="M103.54 15.2854C103.284 14.8771 103.145 14.4064 103.137 13.9244C103.13 13.4424 103.254 12.9676 103.498 12.5516C104.673 10.5438 107.617 7.03855 113.397 8.22925C120.08 9.60524 122.391 15.1031 126.762 16.0751C126.886 16.1014 126.998 16.1669 127.081 16.262C127.164 16.3571 127.215 16.4766 127.225 16.6026C127.235 16.7287 127.203 16.8546 127.136 16.9615C127.068 17.0684 126.968 17.1507 126.85 17.1959C121.267 19.3829 114.536 21.1933 108.929 19.7748C106.38 19.1187 104.88 17.4329 103.54 15.2854Z" fill="#CCCCCC"/>
<path d="M116.674 31.4541C117.643 31.4541 118.429 30.4315 118.429 29.1699C118.429 27.9084 117.643 26.8857 116.674 26.8857C115.704 26.8857 114.918 27.9084 114.918 29.1699C114.918 30.4315 115.704 31.4541 116.674 31.4541Z" fill="#7D4746"/>
<path d="M109.3 29.1601C109.3 30.4206 108.513 31.4443 107.544 31.4443C106.575 31.4443 105.785 30.4206 105.785 29.1601C105.785 27.8995 106.572 26.8789 107.544 26.8789C108.516 26.8789 109.3 27.9086 109.3 29.1601Z" fill="#7D4746"/>
<path d="M116.678 33.073C115.906 33.073 115.152 32.8443 114.51 32.4158C113.868 31.9873 113.368 31.3783 113.072 30.6656C112.777 29.9529 112.699 29.1686 112.849 28.4117C112.999 27.6548 113.369 26.9593 113.914 26.413C114.459 25.8668 115.154 25.4943 115.91 25.3427C116.667 25.1911 117.452 25.2671 118.165 25.5611C118.878 25.8551 119.489 26.354 119.918 26.9947C120.348 27.6353 120.579 28.3891 120.581 29.1607C120.582 29.6739 120.481 30.1823 120.285 30.6567C120.09 31.1311 119.802 31.5623 119.44 31.9257C119.077 32.289 118.647 32.5773 118.173 32.7742C117.699 32.971 117.191 33.0726 116.678 33.073ZM116.678 25.7556C116.001 25.755 115.34 25.9553 114.777 26.3309C114.214 26.7066 113.776 27.2408 113.517 27.8658C113.258 28.4909 113.191 29.1787 113.324 29.8421C113.456 30.5055 113.782 31.1147 114.261 31.5924C114.74 32.0701 115.35 32.3949 116.014 32.5256C116.678 32.6563 117.366 32.5871 117.99 32.3267C118.614 32.0663 119.147 31.6264 119.521 31.0628C119.896 30.4992 120.094 29.8372 120.092 29.1607C120.088 28.2573 119.726 27.3921 119.087 26.7542C118.447 26.1162 117.581 25.7572 116.678 25.7556ZM107.38 33.073C106.608 33.073 105.854 32.8443 105.212 32.4158C104.571 31.9873 104.07 31.3783 103.775 30.6656C103.479 29.9529 103.401 29.1686 103.551 28.4117C103.701 27.6548 104.072 26.9593 104.617 26.413C105.162 25.8668 105.856 25.4943 106.613 25.3427C107.369 25.1911 108.154 25.2671 108.867 25.5611C109.58 25.8551 110.191 26.354 110.621 26.9947C111.051 27.6353 111.281 28.3891 111.283 29.1607C111.284 29.6739 111.183 30.1823 110.988 30.6567C110.792 31.1311 110.505 31.5623 110.142 31.9257C109.78 32.289 109.349 32.5773 108.875 32.7742C108.401 32.971 107.893 33.0726 107.38 33.073ZM107.38 25.7556C106.703 25.755 106.042 25.9553 105.479 26.3309C104.917 26.7066 104.478 27.2408 104.219 27.8658C103.961 28.4909 103.893 29.1787 104.026 29.8421C104.158 30.5055 104.485 31.1147 104.964 31.5924C105.443 32.0701 106.053 32.3949 106.716 32.5256C107.38 32.6563 108.068 32.5871 108.692 32.3267C109.317 32.0663 109.85 31.6264 110.224 31.0628C110.598 30.4992 110.796 29.8372 110.794 29.1607C110.79 28.2573 110.429 27.3921 109.789 26.7542C109.149 26.1162 108.283 25.7572 107.38 25.7556Z" fill="#818181"/>
<path d="M113 29.4153H111.02C110.959 29.4086 110.904 29.3799 110.863 29.3348C110.823 29.2897 110.801 29.2313 110.801 29.1708C110.801 29.1103 110.823 29.0519 110.863 29.0067C110.904 28.9616 110.959 28.933 111.02 28.9263H113C113.06 28.933 113.116 28.9616 113.156 29.0067C113.196 29.0519 113.219 29.1103 113.219 29.1708C113.219 29.2313 113.196 29.2897 113.156 29.3348C113.116 29.3799 113.06 29.4086 113 29.4153ZM120.329 29.4153C120.274 29.4152 120.22 29.3958 120.178 29.3606C120.153 29.3406 120.132 29.3158 120.116 29.2876C120.101 29.2594 120.091 29.2285 120.088 29.1966C120.084 29.1647 120.087 29.1324 120.097 29.1017C120.106 29.0709 120.121 29.0423 120.141 29.0174L122.893 25.6093C122.933 25.559 122.992 25.5267 123.056 25.5196C123.12 25.5124 123.184 25.5311 123.235 25.5713C123.285 25.6116 123.317 25.6703 123.325 25.7343C123.332 25.7984 123.313 25.8627 123.273 25.9131L120.521 29.3242C120.497 29.3524 120.468 29.3751 120.435 29.3908C120.402 29.4066 120.366 29.4149 120.329 29.4153ZM103.714 29.4153C103.678 29.4149 103.642 29.4066 103.609 29.3908C103.576 29.3751 103.546 29.3524 103.523 29.3242L100.771 25.9131C100.732 25.8622 100.713 25.7981 100.72 25.7341C100.727 25.6701 100.758 25.6113 100.807 25.5698C100.858 25.53 100.923 25.5118 100.987 25.5192C101.051 25.5266 101.11 25.559 101.151 25.6093L103.903 29.0174C103.923 29.0423 103.938 29.0709 103.947 29.1017C103.956 29.1324 103.959 29.1647 103.956 29.1966C103.953 29.2285 103.943 29.2594 103.928 29.2876C103.912 29.3158 103.891 29.3406 103.866 29.3606C103.823 29.3958 103.77 29.4152 103.714 29.4153Z" fill="#818181"/>
<path d="M131.587 72.2926C132.091 70.9379 133.865 61.628 134.661 60.4464C136.939 57.0383 123.422 53.3022 120.115 52.154C119.702 52.0091 119.259 51.979 118.831 52.0667C118.403 52.1545 118.006 52.3568 117.685 52.6521C114.194 55.8415 112.108 55.6228 112.108 55.6228C112.108 55.6228 110.018 55.8415 106.528 52.6521C106.206 52.3568 105.81 52.1545 105.382 52.0667C104.954 51.979 104.51 52.0091 104.098 52.154C100.784 53.3022 88.6977 55.635 89.4176 59.6688C89.6454 60.9354 92.1209 70.947 92.6252 72.3017C95.2428 79.2404 96.6931 86.5647 96.9171 93.9773C97.1419 99.7486 97.7828 106.401 95.9786 112.102C95.9177 112.285 95.9014 112.481 95.9312 112.672C95.9609 112.863 96.0357 113.044 96.1495 113.2C96.2632 113.356 96.4126 113.483 96.5852 113.57C96.7578 113.657 96.9487 113.701 97.1419 113.7H127.049C127.242 113.701 127.433 113.656 127.605 113.569C127.777 113.482 127.926 113.355 128.039 113.199C128.153 113.043 128.227 112.862 128.257 112.671C128.287 112.48 128.27 112.285 128.209 112.102C126.405 106.401 127.046 99.7364 127.271 93.9773C127.502 86.5603 128.96 79.2327 131.587 72.2926Z" fill="#49C8F5"/>
<path d="M141.635 162.275C134.923 160.945 125.904 163.742 125.904 163.742C125.455 138.398 116.6 99.9945 118.711 81.9912C120.823 63.9879 124.683 53.703 124.683 53.703L122.159 52.8525C124.947 49.2287 132.165 55.5558 134.935 57.3358C137.565 59.0277 140.077 57.269 136.384 81.9608C136.181 83.2669 135.969 84.65 135.746 86.1101C134.531 93.8101 134.64 102.886 135.463 112.065C137.189 131.299 142.033 150.994 144.296 159.451C144.395 159.826 144.397 160.22 144.301 160.596C144.205 160.973 144.016 161.318 143.749 161.601C143.483 161.883 143.15 162.094 142.78 162.212C142.41 162.33 142.016 162.352 141.635 162.275Z" fill="#CFE0E5"/>
<g style="mix-blend-mode:multiply">
<path d="M120.632 97.7131C120.518 97.7131 120.405 97.6849 120.304 97.6311C120.144 97.5438 120.026 97.3966 119.974 97.2219C119.922 97.0472 119.941 96.859 120.028 96.6986L123.029 91.1916L121.207 87.0151C121.142 86.8707 121.131 86.7085 121.173 86.5564C123.284 78.8837 129.071 69.1333 130.365 67.001C127.357 63.0006 126.164 57.7062 126.112 57.4754C126.072 57.2977 126.104 57.1114 126.201 56.9573C126.298 56.8032 126.452 56.694 126.63 56.6537C126.808 56.6134 126.994 56.6454 127.148 56.7425C127.302 56.8396 127.411 56.994 127.452 57.1716C127.452 57.2293 128.709 62.7394 131.731 66.521C131.82 66.6316 131.872 66.7668 131.881 66.9082C131.89 67.0496 131.854 67.1902 131.78 67.3108C131.71 67.4232 124.903 78.4189 122.558 86.6809L124.438 90.9334C124.481 91.03 124.5 91.135 124.495 91.2404C124.491 91.3457 124.462 91.4485 124.411 91.5409L121.249 97.3426C121.191 97.4556 121.102 97.5501 120.993 97.6155C120.885 97.681 120.76 97.7148 120.632 97.7131Z" fill="#CFE0E5"/>
</g>
<path d="M145.504 93.8141L144.987 93.9417L136.664 95.9859L136.303 96.074C136.303 95.342 136.157 94.61 136.084 93.9113C136.03 92.4321 135.926 90.0355 135.732 86.2325C135.626 84.2126 135.498 81.8008 135.334 78.9152C135.112 74.9664 137.664 59.6514 137.664 59.6514C137.664 59.6514 143.511 74.1159 144.936 88.2889C145.2 90.7797 145.364 92.5627 145.504 93.8141Z" fill="#CFE0E5"/>
<g style="mix-blend-mode:multiply">
<path d="M134.503 122.895C130.359 119.697 131.161 115.836 131.201 115.672L132.543 115.976C132.516 116.106 131.918 119.174 135.341 121.817L134.503 122.895ZM135.751 86.1019C134.536 93.802 134.645 102.878 135.468 112.057C135.468 112.057 131.413 106.827 131.872 100.333L131.775 100.436C132.033 94.4308 132.99 87.3746 135.42 80.6162L136.374 81.9527C136.185 83.2588 135.978 84.6419 135.751 86.1019Z" fill="#CFE0E5"/>
</g>
<path d="M142.934 98.7192C142.934 98.7192 153.07 80.5519 154.826 74.6622L149.966 74.0547C149.966 74.0547 145.172 83.7747 138.851 89.9195C138.639 90.1291 138.423 90.3326 138.204 90.5271C137.667 91.0222 137.044 91.4383 136.488 91.8635L137.129 92.5257L142.934 98.7192Z" fill="#CFE0E5"/>
<g style="mix-blend-mode:multiply">
<path d="M136.996 93.9169C136.89 94.7583 136.765 95.4569 136.659 95.9884L136.298 96.0765C136.298 95.3445 136.152 94.6124 136.079 93.9138C136.024 92.4346 135.921 90.038 135.727 86.235L136.389 81.9521C137.292 85.8739 137.497 89.9239 136.996 93.9169Z" fill="#CFE0E5"/>
</g>
<path d="M82.4125 162.276C89.1253 160.945 98.1437 163.743 98.1437 163.743C98.6023 138.398 107.448 99.9948 105.336 81.9915C103.225 63.9883 99.3647 53.7033 99.3647 53.7033L101.889 52.8437C99.1005 49.2199 91.8834 55.547 89.1132 57.327C86.4827 59.0189 83.9707 57.2602 87.6643 81.952C87.8668 83.2582 88.0794 84.6412 88.3022 86.1013C89.5172 93.8013 89.4078 102.877 88.5847 112.057C86.8594 131.29 82.0146 150.985 79.7547 159.442C79.6533 159.817 79.6496 160.213 79.7439 160.591C79.8383 160.968 80.0276 161.315 80.2939 161.599C80.5601 161.883 80.8945 162.094 81.2653 162.213C81.6361 162.331 82.031 162.353 82.4125 162.276Z" fill="#CFE0E5"/>
<g style="mix-blend-mode:multiply">
<path d="M103.418 97.713C103.533 97.713 103.645 97.6848 103.746 97.631C103.906 97.5437 104.025 97.3966 104.077 97.2218C104.129 97.0471 104.109 96.8589 104.023 96.6985L101.019 91.1915L102.859 87.015C102.923 86.8706 102.935 86.7084 102.893 86.5563C100.782 78.8836 94.9953 69.1332 93.7013 67.0009C96.7115 63.0005 97.9022 57.7061 97.9538 57.4753C97.9737 57.3873 97.9762 57.2963 97.9609 57.2074C97.9457 57.1185 97.9131 57.0335 97.865 56.9572C97.8169 56.8809 97.7543 56.8148 97.6806 56.7627C97.607 56.7107 97.5239 56.6736 97.4359 56.6536C97.3479 56.6337 97.2569 56.6313 97.168 56.6465C97.0791 56.6617 96.9941 56.6943 96.9178 56.7424C96.8415 56.7905 96.7754 56.8531 96.7234 56.9268C96.6713 57.0004 96.6342 57.0836 96.6143 57.1715C96.6143 57.2292 95.3567 62.7393 92.3344 66.521C92.2458 66.6315 92.1936 66.7667 92.1849 66.9081C92.1762 67.0495 92.2114 67.1901 92.2858 67.3107C92.3557 67.4231 99.1627 78.4188 101.508 86.6808L99.6275 90.9333C99.5853 91.0299 99.5658 91.1349 99.5705 91.2403C99.5753 91.3456 99.6041 91.4484 99.6548 91.5408L102.82 97.3425C102.876 97.4529 102.962 97.5458 103.067 97.6111C103.173 97.6765 103.294 97.7117 103.418 97.713Z" fill="#CFE0E5"/>
</g>
<path d="M78.5586 93.8141L79.075 93.9417L87.3825 95.9859L87.744 96.074C87.7592 95.342 87.8898 94.61 87.9627 93.9083C88.0174 92.4321 88.1206 90.0355 88.315 86.2325C88.4214 84.2126 88.5489 81.8008 88.713 78.9152C88.9347 74.9664 86.3862 59.6514 86.3862 59.6514C86.3862 59.6514 80.536 74.1159 79.1114 88.292C78.8623 90.7797 78.6771 92.5627 78.5586 93.8141Z" fill="#CFE0E5"/>
<g style="mix-blend-mode:multiply">
<path d="M89.5543 122.895C93.6974 119.697 92.8955 115.836 92.856 115.672L91.5134 115.976C91.5408 116.106 92.1392 119.174 88.7159 121.817L89.5543 122.895ZM88.3058 86.1019C89.5208 93.802 89.4115 102.878 88.5883 112.057L91.0973 116.838L91.5134 115.97C91.5134 115.97 94.7241 97.4409 88.6217 80.6162L87.668 81.9527C87.8624 83.2588 88.075 84.6419 88.3058 86.1019Z" fill="#CFE0E5"/>
</g>
<path d="M78.5586 93.8145C78.5586 93.8145 85.6633 116.465 88.7008 121.805L91.4983 115.967C91.4983 115.967 87.8047 105.791 87.7288 96.9643V96.0744C87.744 95.3423 87.8746 94.6103 87.9475 93.9086H87.0363L78.5586 93.8145Z" fill="#CFE0E5"/>
<g style="mix-blend-mode:multiply">
<path d="M87.0499 93.9169C87.1562 94.7583 87.2807 95.4569 87.3871 95.9884C87.542 96.7448 87.6665 97.1579 87.6665 97.1579C87.6908 97.1002 87.7181 97.0333 87.7424 96.9665V96.0765C87.7576 95.3445 87.8882 94.6125 87.9611 93.9108C88.0158 92.4346 88.1191 90.038 88.3135 86.235L87.6604 81.9521C86.758 85.8739 86.5514 89.9236 87.0499 93.9169Z" fill="#CFE0E5"/>
</g>
<path d="M117.262 28.7762C117.488 28.7762 117.672 28.5926 117.672 28.3661C117.672 28.1396 117.488 27.9561 117.262 27.9561C117.035 27.9561 116.852 28.1396 116.852 28.3661C116.852 28.5926 117.035 28.7762 117.262 28.7762Z" fill="white"/>
<path d="M108.679 28.3655C108.678 28.4462 108.652 28.5245 108.606 28.5907C108.56 28.657 108.495 28.7081 108.42 28.7378C108.345 28.7674 108.263 28.7742 108.184 28.7574C108.105 28.7406 108.033 28.7008 107.976 28.6431C107.92 28.5854 107.882 28.5123 107.867 28.4331C107.852 28.3538 107.86 28.2718 107.891 28.1974C107.923 28.123 107.975 28.0595 108.042 28.0148C108.11 27.9701 108.189 27.9463 108.269 27.9463C108.324 27.9463 108.378 27.9572 108.428 27.9784C108.479 27.9995 108.524 28.0305 108.563 28.0696C108.601 28.1086 108.631 28.1549 108.651 28.2057C108.671 28.2565 108.681 28.3109 108.679 28.3655Z" fill="white"/>
<path d="M142.936 98.7198C142.936 98.7198 137.344 101.022 136.305 96.0711L140.408 92.2256L142.936 98.7198Z" fill="#CFE0E5"/>
<path d="M113.733 40.8759C113.953 39.5213 113.033 38.2451 111.678 38.0252C110.324 37.8053 109.048 38.7251 108.828 40.0797C108.608 41.4342 109.528 42.7105 110.882 42.9303C112.237 43.1502 113.513 42.2304 113.733 40.8759Z" fill="#F26F78"/>
<path d="M181.298 13.5596H146.725C144.633 13.5596 142.938 15.2554 142.938 17.3473V58.627C142.938 60.7189 144.633 62.4147 146.725 62.4147H181.298C183.39 62.4147 185.086 60.7189 185.086 58.627V17.3473C185.086 15.2554 183.39 13.5596 181.298 13.5596Z" fill="#40AFCE"/>
<path d="M179.699 15.8076H148.313C146.412 15.8076 144.871 17.3484 144.871 19.2491V56.7258C144.871 58.6265 146.412 60.1673 148.313 60.1673H179.699C181.6 60.1673 183.141 58.6265 183.141 56.7258V19.2491C183.141 17.3484 181.6 15.8076 179.699 15.8076Z" fill="#DBEAEF"/>
<g style="mix-blend-mode:multiply">
<path d="M163.675 19.2656H149.381C148.607 19.2656 147.98 19.8926 147.98 20.6659V37.679C147.98 38.4523 148.607 39.0792 149.381 39.0792H163.675C164.449 39.0792 165.076 38.4523 165.076 37.679V20.6659C165.076 19.8926 164.449 19.2656 163.675 19.2656Z" fill="#DBEAEF"/>
</g>
<g style="mix-blend-mode:multiply">
<path d="M167.489 19.2656H180.654V21.2157H167.489V19.2656ZM167.489 22.4975H180.654V23.4726H167.489V22.4975ZM167.489 24.3595H180.654V25.3346H167.489V24.3595ZM167.489 26.2245H180.654V27.1996H167.489V26.2245ZM167.489 28.0896H176.328V29.0646H167.489V28.0896ZM147.852 41.9436H180.657V43.8937H147.852V41.9436ZM147.852 45.1755H180.657V46.1505H147.852V45.1755ZM147.852 47.0405H180.657V48.0156H147.852V47.0405ZM147.852 48.9055H180.657V49.8806H147.852V48.9055ZM147.852 52.9333H166.171V53.9083H147.852V52.9333ZM147.852 57.0187H169.873V57.9937H147.852V57.0187ZM167.489 31.8196H180.654V32.7946H167.489V31.8196ZM167.489 33.6816H180.654V34.6566H167.489V33.6816ZM167.489 35.5466H180.654V36.5217H167.489V35.5466ZM167.489 37.4116H170.229V38.3867H167.489V37.4116Z" fill="#DBEAEF"/>
</g>
<path d="M113 42C113 42.5523 112.713 43.0049 111.332 43.0049C109.951 43.0049 109.5 42.5523 109.5 42C109.5 41.4477 109.951 40.3457 111.332 40.3457C112.713 40.3457 113 41.4477 113 42Z" fill="#F69A8C"/>
</g>
<defs>
<clipPath id="clip0_562_4742">
<rect width="243" height="243" fill="white"/>
</clipPath>
</defs>
</svg>
