<svg width="176" height="214" viewBox="0 0 176 214" fill="none" xmlns="http://www.w3.org/2000/svg">
<path d="M126.928 65.744L126.711 212.918L2.34961 184.475L2.59561 1L100.564 22.758L126.928 65.744Z" fill="url(#paint0_linear_1_628)" stroke="#54679F"/>
<mask id="mask0_1_628" style="mask-type:alpha" maskUnits="userSpaceOnUse" x="0" y="1" width="105" height="135">
<path d="M0 1.207L0.7363 135.258C0.7363 135.258 80.2344 108.639 104.006 30.6817L0 1.207Z" fill="url(#paint1_linear_1_628)"/>
</mask>
<g mask="url(#mask0_1_628)">
<path opacity="0.53" d="M4.4668 122.158C50.9531 124.377 100.404 31.0313 98.4062 25.2852L4.5957 4.043L4.4668 122.158Z" fill="url(#paint2_linear_1_628)"/>
</g>
<path d="M103.115 32.9297L8.64837 11.3281L8.41797 176.918L120.664 202.588L120.857 62.709L103.115 32.9297ZM117.455 60.6836L117.266 197.988L11.83 173.865L12.0546 15.8399L102.935 36.6231L117.455 60.6836Z" fill="url(#paint3_linear_1_628)"/>
<path d="M104.262 38.5156L103.922 38.4414L117.455 60.8711L117.266 198.174L13.1504 174.367V175.762L118.592 199.887L118.783 62.5781L104.262 38.5156ZM103.115 33.1192L8.64837 11.5215L8.41797 177.113L9.73827 177.41L9.97267 13.2266L104.072 34.7442L103.115 33.1192Z" fill="url(#paint4_linear_1_628)"/>
<path d="M99.5098 22.5225L99.0508 61.1995L126.928 68.7795V65.7445L100.564 22.7775L99.5098 22.5225Z" fill="url(#paint5_linear_1_628)"/>
<path d="M99.5098 22.5225L99.0508 58.6645L126.928 65.7445L100.564 22.7585L99.5098 22.5225Z" fill="url(#paint6_linear_1_628)" stroke="#54679F"/>
<path d="M21.5312 84.6699V86.9668L113.113 107.066L113.596 104.875L21.5312 84.6699ZM21.5312 116.065L102.99 136.045L103.525 133.867L21.5312 113.756V116.065ZM21.5312 101.619L110.283 123.145L110.815 120.961L21.5312 99.3067V101.619Z" fill="white"/>
<path d="M49.1934 46.9902C48.9824 51.832 44.6934 54.875 39.6094 53.7891C34.5254 52.6992 30.5742 47.8945 30.7812 43.0488C30.9902 38.2051 35.2832 35.1641 40.3652 36.252C45.4473 37.3379 49.3984 42.1484 49.1934 46.9902Z" fill="white"/>
<path d="M50.6457 54.0839C48.175 57.0155 44.05 58.4335 39.4484 57.4491C37.1988 56.9339 35.083 55.9506 33.2389 54.5631C31.3947 53.1756 29.8636 51.4152 28.7452 49.3965C26.2768 50.227 24.1188 51.7874 22.5567 53.8712C20.9945 55.9551 20.102 58.4641 19.9971 61.0664C19.9522 62.0996 19.7823 66.5742 19.9542 67.5957C26.6021 71.1806 33.7351 73.7819 41.13 75.3184C46.3577 76.465 51.6941 77.0425 57.046 77.041C57.6899 74.4898 58.0882 71.8829 58.2354 69.2559C58.4758 63.6973 55.4522 58.1055 50.6457 54.0839Z" fill="white"/>
<path d="M64.9199 61.0879L91.0996 66.6992" stroke="white"/>
<path d="M63.9824 71.7481L108.68 81.4727" stroke="white"/>
<path d="M175.102 92.4648L145.887 72.2168L131.027 75.1368L97.7358 151.397L66.5348 128.592L51.3978 131.518L48.4238 158.822L91.5998 203.518L106.453 200.68L175.102 92.4648Z" fill="url(#paint7_linear_1_628)"/>
<path opacity="0.57" d="M51.7988 131.117L51.7812 131.301L63.7285 128.992L94.9316 151.799L95.9746 149.416L66.9355 128.191L51.7988 131.117ZM146.289 71.8164L131.428 74.7363L131.346 74.9219L143.082 72.6192L172.297 92.8633L103.783 200.867L106.854 200.279L175.504 92.0645L146.289 71.8164Z" fill="url(#paint8_linear_1_628)"/>
<path d="M160.109 95.3006L130.894 75.0566L82.7436 154.236L51.5426 131.432L33.4316 161.658L91.4606 203.518L160.109 95.3006Z" fill="url(#paint9_linear_1_628)"/>
<path opacity="0.31" d="M156.658 92.8184L89.9944 197.906L35.4305 158.551L33.5645 161.658L91.6005 203.518L160.244 95.3014L156.658 92.8184Z" fill="url(#paint10_linear_1_628)"/>
<mask id="mask1_1_628" style="mask-type:alpha" maskUnits="userSpaceOnUse" x="30" y="65" width="137" height="122">
<path d="M160.291 80.4277C176.422 101.707 162.397 139.5 128.969 164.84C95.5433 190.178 55.3675 193.473 39.2366 172.193C23.1077 150.92 27.514 111.52 60.9378 86.1817C94.3675 60.8418 144.16 59.1484 160.291 80.4277Z" fill="url(#paint11_linear_1_628)"/>
</mask>
<g mask="url(#mask1_1_628)">
<path d="M120.92 128.84C130.393 112.266 144.389 90.6407 144.16 86.1232L130.924 77.0607L82.8672 155.127L51.7246 132.645L42.25 148.4C43.8535 150.92 78.5078 173.26 81.1816 174.678C92.1172 180.479 108.916 149.834 120.92 128.84Z" fill="url(#paint12_linear_1_628)"/>
</g>
<path d="M52.0736 134.643L83.2806 157.443L131.434 78.2665L158.627 97.1115L160.109 94.7685L130.894 74.5225L82.7436 153.705L51.5426 130.898L33.4316 161.127L35.3726 162.523L52.0736 134.643Z" fill="url(#paint13_linear_1_628)"/>
<defs>
<linearGradient id="paint0_linear_1_628" x1="87.1292" y1="10.8463" x2="39.4583" y2="214.695" gradientUnits="userSpaceOnUse">
<stop stop-color="#9CD6FF"/>
<stop offset="1" stop-color="#578BF2"/>
</linearGradient>
<linearGradient id="paint1_linear_1_628" x1="7.46018" y1="-21.8223" x2="77.7958" y2="142.294" gradientUnits="userSpaceOnUse">
<stop stop-color="white"/>
<stop offset="1"/>
</linearGradient>
<linearGradient id="paint2_linear_1_628" x1="52.9585" y1="9.01394" x2="22.2832" y2="140.187" gradientUnits="userSpaceOnUse">
<stop stop-color="#F2F2F2"/>
<stop offset="0.00885" stop-color="#F1F2F2"/>
<stop offset="0.44938" stop-color="#C7E4EA"/>
<stop offset="0.79466" stop-color="#ADDBE5"/>
<stop offset="1" stop-color="#A3D8E3"/>
</linearGradient>
<linearGradient id="paint3_linear_1_628" x1="84.8137" y1="20.761" x2="41.9313" y2="204.134" gradientUnits="userSpaceOnUse">
<stop stop-color="white"/>
<stop offset="0.24206" stop-color="#F0FBFF"/>
<stop offset="0.70911" stop-color="#C7F2FF"/>
<stop offset="1" stop-color="#ABEBFF"/>
</linearGradient>
<linearGradient id="paint4_linear_1_628" x1="83.5113" y1="20.6457" x2="40.6274" y2="204.025" gradientUnits="userSpaceOnUse">
<stop stop-color="white"/>
<stop offset="0.24206" stop-color="#F0FBFF"/>
<stop offset="0.70911" stop-color="#C7F2FF"/>
<stop offset="1" stop-color="#ABEBFF"/>
</linearGradient>
<linearGradient id="paint5_linear_1_628" x1="118.055" y1="24.967" x2="107.77" y2="68.9477" gradientUnits="userSpaceOnUse">
<stop stop-color="#9CD6FF"/>
<stop offset="1" stop-color="#133D91"/>
</linearGradient>
<linearGradient id="paint6_linear_1_628" x1="117.689" y1="25.0146" x2="108.185" y2="65.6568" gradientUnits="userSpaceOnUse">
<stop stop-color="#9CD6FF"/>
<stop offset="1" stop-color="#578BF2"/>
</linearGradient>
<linearGradient id="paint7_linear_1_628" x1="47.1949" y1="152.994" x2="181.873" y2="124.585" gradientUnits="userSpaceOnUse">
<stop stop-color="#30C935"/>
<stop offset="0.11759" stop-color="#26B43E"/>
<stop offset="0.3053" stop-color="#199849"/>
<stop offset="0.49509" stop-color="#108551"/>
<stop offset="0.68654" stop-color="#0B7955"/>
<stop offset="0.88202" stop-color="#097557"/>
<stop offset="0.91314" stop-color="#0A7C55"/>
<stop offset="0.95971" stop-color="#0C9151"/>
<stop offset="1" stop-color="#0EA84C"/>
</linearGradient>
<linearGradient id="paint8_linear_1_628" x1="51.7813" y1="136.342" x2="175.504" y2="136.342" gradientUnits="userSpaceOnUse">
<stop stop-color="#5BE381"/>
<stop offset="0.00533" stop-color="#5BE381"/>
<stop offset="0.55451" stop-color="#45C98C"/>
<stop offset="0.88202" stop-color="#3DBF90"/>
<stop offset="0.91821" stop-color="#36C694"/>
<stop offset="0.97238" stop-color="#21DBA0"/>
<stop offset="1" stop-color="#14E8A8"/>
</linearGradient>
<linearGradient id="paint9_linear_1_628" x1="90.1386" y1="98.7086" x2="115.256" y2="211.468" gradientUnits="userSpaceOnUse">
<stop stop-color="#A0F26D"/>
<stop offset="0.07044" stop-color="#8DE26A"/>
<stop offset="0.26188" stop-color="#5EBB63"/>
<stop offset="0.44458" stop-color="#399D5E"/>
<stop offset="0.61383" stop-color="#1F875A"/>
<stop offset="0.76473" stop-color="#0F7A58"/>
<stop offset="0.88202" stop-color="#097557"/>
<stop offset="0.91314" stop-color="#0A7C55"/>
<stop offset="0.95971" stop-color="#0C9151"/>
<stop offset="1" stop-color="#0EA84C"/>
</linearGradient>
<linearGradient id="paint10_linear_1_628" x1="93.8775" y1="101.992" x2="107.233" y2="218.856" gradientUnits="userSpaceOnUse">
<stop stop-color="#DEF2D3"/>
<stop offset="0.14288" stop-color="#BFEFB9"/>
<stop offset="0.43665" stop-color="#85EA88"/>
<stop offset="0.68785" stop-color="#5AE665"/>
<stop offset="0.88363" stop-color="#40E44F"/>
<stop offset="1" stop-color="#36E347"/>
</linearGradient>
<linearGradient id="paint11_linear_1_628" x1="66.733" y1="82.7322" x2="127.156" y2="162.439" gradientUnits="userSpaceOnUse">
<stop stop-color="white"/>
<stop offset="0.08624" stop-color="#F7F7F7"/>
<stop offset="0.21769" stop-color="#E2E2E2"/>
<stop offset="0.37793" stop-color="#C0C0C0"/>
<stop offset="0.56088" stop-color="#8F8F8F"/>
<stop offset="0.76306" stop-color="#525252"/>
<stop offset="0.97838" stop-color="#080808"/>
<stop offset="1"/>
</linearGradient>
<linearGradient id="paint12_linear_1_628" x1="92.6986" y1="105.021" x2="97.5083" y2="221.254" gradientUnits="userSpaceOnUse">
<stop stop-color="#DEF2D3"/>
<stop offset="0.14288" stop-color="#BFEFB9"/>
<stop offset="0.43665" stop-color="#85EA88"/>
<stop offset="0.68785" stop-color="#5AE665"/>
<stop offset="0.88363" stop-color="#40E44F"/>
<stop offset="1" stop-color="#36E347"/>
</linearGradient>
<linearGradient id="paint13_linear_1_628" x1="91.3521" y1="80.5403" x2="101.373" y2="168.225" gradientUnits="userSpaceOnUse">
<stop stop-color="#F2FFEB"/>
<stop offset="0.10994" stop-color="#E6FDDB"/>
<stop offset="0.32328" stop-color="#C6F8B3"/>
<stop offset="0.61877" stop-color="#93EF71"/>
<stop offset="0.98195" stop-color="#4EE418"/>
<stop offset="1" stop-color="#4AE313"/>
</linearGradient>
</defs>
</svg>
