<svg width="255" height="231" viewBox="0 0 255 231" fill="none" xmlns="http://www.w3.org/2000/svg">
<g clip-path="url(#clip0_562_4848)">
<path d="M185.867 202.632H57.4678C54.8253 202.632 52.6836 200.49 52.6836 197.847V19.9754C52.6836 17.333 54.8253 15.1913 57.4678 15.1913H185.867C188.509 15.1913 190.651 17.333 190.651 19.9754V197.847C190.652 200.49 188.509 202.632 185.867 202.632Z" fill="#5FACF2"/>
<path opacity="0.28" d="M180.802 25.0645L184.089 162.262L145.475 194.853L62.5195 192.747L180.802 25.0645Z" fill="#7C3821"/>
<path d="M180.802 25.0645V160.275L138.192 192.747H62.5195V25.0645H180.802Z" fill="white"/>
<path d="M148.459 10.894H132.561C131.759 10.894 131.11 10.2442 131.11 9.43988C131.11 6.83109 130.053 4.47232 128.344 2.76541C126.634 1.05643 124.273 0 121.667 0C119.061 0 116.699 1.05643 114.992 2.76541C113.283 4.47163 112.227 6.83109 112.227 9.43988C112.227 9.84034 112.064 10.2051 111.801 10.4682C111.538 10.7312 111.176 10.894 110.773 10.894H94.8777C89.1731 10.894 84.5469 15.5175 84.5469 21.2221V29.9359H158.786V21.2214C158.786 15.5168 154.164 10.894 148.459 10.894ZM121.667 14.2213C118.961 14.2213 116.765 12.0253 116.765 9.31968C116.765 6.61335 118.961 4.41737 121.667 4.41737C124.375 4.41737 126.569 6.61335 126.569 9.31968C126.569 12.0253 124.375 14.2213 121.667 14.2213Z" fill="#F7B208"/>
<path d="M180.802 160.275L138.191 192.747L142.916 142.759L180.802 160.275Z" fill="#F0F2F0"/>
<path d="M114.99 40.4551H73.7188V81.7267H114.99V40.4551Z" fill="#8CC7F4"/>
<path d="M112.295 81.7264H104.595L103.953 78.2871L107.316 71.0233L108.573 68.2772V68.2517L108.599 68.2263C108.624 68.2009 108.624 68.1748 108.624 68.1748C108.624 68.1748 110.858 74.7449 112.295 81.7264ZM83.5233 81.7264H76.4141C77.851 74.7456 80.0841 68.1748 80.0841 68.1748L80.1095 68.2002L80.2634 68.534C80.2888 68.5856 80.2888 68.611 80.3149 68.6625C80.9564 70.2533 94.5554 81.7264 83.5233 81.7264Z" fill="#E63A48"/>
<path d="M108.779 72.6148C108.239 74.2317 106.058 75.0532 105.725 78.184C105.596 79.134 105.519 80.3402 105.468 81.7263H84.1132L84.7548 78.2871L80.3148 68.6624C80.2893 68.6109 80.2893 68.5855 80.2632 68.534L80.1094 68.2002C88.8617 62.8617 99.821 62.8617 108.573 68.2002C108.573 68.2002 108.573 68.2256 108.573 68.2517V68.2771C108.599 68.7387 109.369 71.0233 108.779 72.6148Z" fill="#E63A48"/>
<path d="M99.5236 54.0117C99.9474 61.6836 97.2452 65.153 94.4351 65.153C91.6251 65.153 88.6914 61.0668 89.3467 54.0117C89.719 50.0051 91.6251 50.5807 94.4351 50.5807C97.2452 50.5807 99.3017 49.9941 99.5236 54.0117Z" fill="#F4C99A"/>
<path d="M99.1403 56.8454C99.1403 56.7877 100.393 54.5518 100.47 56.0548C100.547 57.5577 99.9302 59.4473 99.4102 59.7365C98.8895 60.0256 98.9479 58.0982 98.9479 58.0982L99.1403 56.8454ZM89.6489 56.8454C89.6489 56.7877 88.396 54.5518 88.319 56.0548C88.2421 57.5584 88.8589 59.4473 89.3789 59.7365C89.8996 60.0256 89.8412 58.0982 89.8412 58.0982L89.6489 56.8454Z" fill="#F4C99A"/>
<path d="M88.5354 55.5381C88.5354 55.5381 89.3597 57.0849 89.5967 57.8522L89.6928 53.7425C89.6928 53.7425 91.0419 54.6678 92.8924 53.8195C94.7428 52.9712 98.1608 52.5604 98.1608 52.5604C98.2899 53.3634 98.5647 54.0839 98.9425 54.7447V58.0988C98.9425 58.0988 99.3161 56.3644 99.8629 55.7668C99.8629 55.7668 100.397 51.8667 99.266 50.9414C99.266 50.9414 98.9576 46.9321 93.7915 47.6773C88.6254 48.4226 88.3273 51.9182 88.3095 53.1772C88.2923 54.4356 88.5354 55.5381 88.5354 55.5381Z" fill="#353434"/>
<path d="M94.3018 67.5041C92.3964 67.5041 90.8516 65.9593 90.8516 64.0539V62.4541H97.752V64.0539C97.752 65.9593 96.2072 67.5041 94.3018 67.5041Z" fill="#F4C99A"/>
<path d="M169.604 40.4551H131.898V42.2616H169.604V40.4551Z" fill="#C4C4C4"/>
<path d="M169.604 45.6475H131.898V47.454H169.604V45.6475Z" fill="#C4C4C4"/>
<path d="M169.604 50.8408H131.898V52.6473H169.604V50.8408Z" fill="#C4C4C4"/>
<path d="M118.819 107.004H81.1133V108.81H118.819V107.004Z" fill="#C4C4C4"/>
<path d="M75.2237 109.412C76.0549 109.412 76.7287 108.738 76.7287 107.907C76.7287 107.076 76.0549 106.402 75.2237 106.402C74.3925 106.402 73.7188 107.076 73.7188 107.907C73.7188 108.738 74.3925 109.412 75.2237 109.412Z" fill="#C4C4C4"/>
<path d="M109.317 113.928H81.1133V115.734H109.317V113.928Z" fill="#C4C4C4"/>
<path d="M75.2237 116.336C76.0549 116.336 76.7287 115.662 76.7287 114.831C76.7287 114 76.0549 113.326 75.2237 113.326C74.3925 113.326 73.7188 114 73.7188 114.831C73.7188 115.662 74.3925 116.336 75.2237 116.336Z" fill="#C4C4C4"/>
<path d="M130.766 120.852H81.1133V122.658H130.766V120.852Z" fill="#C4C4C4"/>
<path d="M75.2237 123.26C76.0549 123.26 76.7287 122.586 76.7287 121.755C76.7287 120.924 76.0549 120.25 75.2237 120.25C74.3925 120.25 73.7188 120.924 73.7188 121.755C73.7188 122.586 74.3925 123.26 75.2237 123.26Z" fill="#C4C4C4"/>
<path d="M88.1683 127.776H81.1133V129.583H88.1683V127.776Z" fill="#C4C4C4"/>
<path d="M75.2237 130.185C76.0549 130.185 76.7287 129.511 76.7287 128.68C76.7287 127.849 76.0549 127.175 75.2237 127.175C74.3925 127.175 73.7188 127.849 73.7188 128.68C73.7188 129.511 74.3925 130.185 75.2237 130.185Z" fill="#C4C4C4"/>
<path d="M116.391 134.7H81.1133V136.507H116.391V134.7Z" fill="#C4C4C4"/>
<path d="M75.2237 137.108C76.0549 137.108 76.7287 136.434 76.7287 135.603C76.7287 134.771 76.0549 134.098 75.2237 134.098C74.3925 134.098 73.7188 134.771 73.7188 135.603C73.7188 136.434 74.3925 137.108 75.2237 137.108Z" fill="#C4C4C4"/>
<path d="M122.412 141.624H81.1133V143.431H122.412V141.624Z" fill="#C4C4C4"/>
<path d="M75.2237 144.031C76.0549 144.031 76.7287 143.358 76.7287 142.526C76.7287 141.695 76.0549 141.021 75.2237 141.021C74.3925 141.021 73.7188 141.695 73.7188 142.526C73.7188 143.358 74.3925 144.031 75.2237 144.031Z" fill="#C4C4C4"/>
<path d="M87.717 148.548H81.1133V150.354H87.717V148.548Z" fill="#C4C4C4"/>
<path d="M75.2237 150.956C76.0549 150.956 76.7287 150.282 76.7287 149.451C76.7287 148.62 76.0549 147.946 75.2237 147.946C74.3925 147.946 73.7188 148.62 73.7188 149.451C73.7188 150.282 74.3925 150.956 75.2237 150.956Z" fill="#C4C4C4"/>
<path d="M123.319 155.472H81.1172V157.278H123.319V155.472Z" fill="#C4C4C4"/>
<path d="M75.2276 157.88C76.0588 157.88 76.7326 157.206 76.7326 156.375C76.7326 155.544 76.0588 154.87 75.2276 154.87C74.3965 154.87 73.7227 155.544 73.7227 156.375C73.7227 157.206 74.3965 157.88 75.2276 157.88Z" fill="#C4C4C4"/>
<path d="M102.792 162.396H81.1172V164.202H102.792V162.396Z" fill="#C4C4C4"/>
<path d="M75.2276 164.804C76.0588 164.804 76.7326 164.13 76.7326 163.299C76.7326 162.468 76.0588 161.794 75.2276 161.794C74.3965 161.794 73.7227 162.468 73.7227 163.299C73.7227 164.13 74.3965 164.804 75.2276 164.804Z" fill="#C4C4C4"/>
<path d="M151.438 155.013C151.671 152.671 151.164 150.447 150.272 148.288C150.142 147.972 149.626 148.095 149.745 148.433C150.166 149.619 149.856 151.01 149.685 152.219C149.467 153.759 149.049 155.257 148.758 156.784C148.479 158.253 148.282 159.735 148.051 161.212C147.836 162.586 147.689 164.102 147.188 165.408C147.055 165.754 146.824 166.218 146.47 166.397C145.814 166.731 145.204 166.129 144.835 165.71C144.366 165.177 144.038 164.536 143.855 163.852C143.474 162.438 143.77 160.902 144.723 159.778C145.446 158.926 146.848 157.997 148.021 158.009C149.291 158.022 149.156 159.548 149.256 160.438C149.35 161.265 149.442 162.093 149.536 162.92C149.575 163.267 150.049 163.273 150.082 162.92C150.131 162.394 150.681 161.888 150.916 161.433C151.173 160.931 151.209 160.138 151.57 159.719C151.894 159.342 152.554 159.355 152.936 158.967C153.42 158.474 153.698 157.812 153.979 157.194C153.836 157.213 153.694 157.232 153.551 157.249C154.136 157.849 154.602 158.671 155.451 158.924C156.337 159.188 157.271 158.832 158.109 158.56C158.02 158.408 157.932 158.256 157.843 158.104C156.78 159.304 155.096 159.528 153.771 160.338C153.515 160.495 153.678 160.936 153.981 160.838C155.209 160.439 156.449 160.283 157.737 160.366C158.088 160.388 158.087 159.842 157.737 159.82C156.401 159.734 155.109 159.897 153.836 160.311C153.906 160.477 153.976 160.643 154.046 160.81C155.418 159.972 157.123 159.737 158.228 158.491C158.398 158.299 158.238 157.945 157.963 158.035C157.197 158.282 156.302 158.664 155.508 158.353C154.83 158.086 154.428 157.369 153.935 156.864C153.823 156.749 153.58 156.758 153.507 156.919C153.348 157.268 153.198 157.627 153 157.956C152.667 158.511 152.326 158.69 151.731 158.938C151.236 159.144 151.101 159.384 150.901 159.904C150.653 160.552 150.454 161.144 150.084 161.734C149.854 162.1 149.576 162.479 149.534 162.92C149.716 162.92 149.898 162.92 150.08 162.92C149.981 162.034 149.881 161.147 149.781 160.261C149.708 159.61 149.744 158.783 149.44 158.182C149.001 157.311 147.906 157.39 147.112 157.635C144.794 158.35 143.022 160.369 143.151 162.874C143.226 164.326 144.895 168.285 146.933 166.741C147.922 165.992 148.051 164.329 148.26 163.225C148.579 161.529 148.793 159.818 149.075 158.116C149.39 156.211 149.93 154.347 150.201 152.436C150.391 151.102 150.735 149.595 150.271 148.287C150.096 148.335 149.92 148.384 149.745 148.432C150.618 150.547 151.119 152.714 150.891 155.011C150.857 155.362 151.403 155.36 151.438 155.013Z" fill="#353434"/>
<g clip-path="url(#clip1_562_4848)">
<path d="M50.0138 171.114L40.9964 179.397L27.6797 168.702C27.6797 168.702 30.3008 165.241 31.2446 161.047C32.1884 156.853 37.0117 134.569 38.8464 133.548C40.6811 132.527 53.2642 124.506 53.3164 124.768C53.3686 125.03 50.0138 171.114 50.0138 171.114Z" fill="#FCD3A2"/>
<path d="M26.9757 166.021L46.4901 180.495L39.7682 189.313L20.543 173.195L26.9757 166.021Z" fill="#F0F2F0"/>
<path d="M41.0696 183.314C41.8481 183.314 42.4791 182.683 42.4791 181.905C42.4791 181.126 41.8481 180.495 41.0696 180.495C40.2912 180.495 39.6602 181.126 39.6602 181.905C39.6602 182.683 40.2912 183.314 41.0696 183.314Z" fill="#353434"/>
<path d="M42.3829 189.303L10.8829 224.954H-3.31641V195.748L19.5988 171.194L42.3829 189.303Z" fill="#353434"/>
<path d="M50.0148 171.114C50.0148 171.114 54.314 167.863 55.887 164.141C57.1962 161.043 65.6964 141.274 68.5106 134.731C69.8274 131.67 67.9693 128.047 64.6668 127.597C64.0712 127.516 63.4022 127.509 62.6501 127.599C56.464 128.333 57.6173 138.976 52.1648 145.843L50.4874 147.206C50.4874 147.206 39.1105 159.999 39.2156 163.668C39.3193 167.339 50.0148 171.114 50.0148 171.114Z" fill="#FCD3A2"/>
<path d="M64.0393 128.543C64.0393 128.543 62.5193 129.041 61.8901 130.902C61.2609 132.764 59.6096 135.123 60.789 136.853C61.9684 138.583 64.6946 139.029 66.3466 138.059C67.9979 137.089 68.8372 133.21 68.6271 131.794C68.4169 130.378 67.3426 128.386 64.0393 128.543Z" fill="#F0F2F0"/>
<path d="M192.888 130.43C192.888 130.43 174.224 136.721 174.905 139.552C175.586 142.384 179.78 143.013 182.192 142.593C184.604 142.173 199.074 136.57 199.074 136.57L192.888 130.43Z" fill="#F4C99A"/>
<path d="M195.77 133.805C195.77 133.805 177.106 140.096 177.788 142.927C178.469 145.759 182.663 146.388 185.075 145.968C187.487 145.548 201.957 139.945 201.957 139.945L195.77 133.805Z" fill="#F4C99A"/>
<path d="M199.704 136.569C199.704 136.569 181.04 142.861 181.721 145.692C182.403 148.523 186.597 149.152 189.009 148.733C191.42 148.313 206.598 149.958 206.598 149.958L199.704 136.569Z" fill="#F4C99A"/>
<path d="M172.545 126.759C172.545 126.759 170.264 129.04 172.545 130.298C174.825 131.556 188.351 130.927 190.239 132.028C192.127 133.129 198.181 139.578 198.653 141.151C199.125 142.724 202.166 157.272 202.166 157.272L186.265 149.788C186.265 149.788 191.786 159.264 192.1 162.2C192.415 165.135 195.665 169.12 200.279 172.476C204.893 175.831 206.57 178.976 206.57 178.976L221.04 169.33C221.04 169.33 217.58 164.821 216.584 159.526C215.588 154.23 210.135 135.459 208.72 133.546C207.304 131.634 194.386 123.22 191.576 122.722C186.346 121.796 172.545 126.759 172.545 126.759Z" fill="#FCD3A2"/>
<path d="M180.114 133.733L171.1 133.102L170.527 132.793L171.11 127.973L180.572 129.945L180.114 133.733Z" fill="#353434"/>
<path d="M180.187 133.131L170.527 132.793L171.183 127.371L180.645 129.344L180.187 133.131Z" fill="#D2D8D5"/>
<path d="M170.527 132.793L164.145 129.347L163.93 129.244L164.163 129.196L171.183 127.371L170.527 132.793Z" fill="#D2D8D5"/>
<path d="M170.856 130.687C171.19 130.687 171.462 130.416 171.462 130.081C171.462 129.747 171.19 129.476 170.856 129.476C170.521 129.476 170.25 129.747 170.25 130.081C170.25 130.416 170.521 130.687 170.856 130.687Z" fill="#353434"/>
<path d="M170.695 130.139L164.145 129.347L163.93 129.244L164.163 129.196L170.713 129.988L170.695 130.139Z" fill="#353434"/>
<path d="M245.439 142.783L190.426 136.131L191.246 129.346L246.259 135.998C248.133 136.224 249.468 137.927 249.241 139.8C249.015 141.674 247.312 143.009 245.439 142.783Z" fill="#328BED"/>
<path d="M190.424 136.131L177.379 133.738L178.005 128.561L191.244 129.346L190.424 136.131Z" fill="#328BED"/>
<path d="M189.594 135.98L190.403 129.295C190.443 128.957 190.75 128.717 191.088 128.757C191.425 128.798 191.665 129.105 191.625 129.442L190.816 136.128C190.776 136.465 190.469 136.705 190.131 136.665C189.794 136.624 189.554 136.317 189.594 135.98Z" fill="#2685DB"/>
<path d="M201.949 169.851C201.949 169.851 197.201 167.3 195.075 163.864C193.305 161.004 181.866 142.777 178.08 136.745C176.308 133.922 177.587 130.057 180.781 129.106C181.356 128.934 182.016 128.825 182.773 128.797C188.999 128.571 189.496 139.265 195.939 145.213L197.806 146.302C197.806 146.302 211.015 157.193 211.475 160.836C211.936 164.478 201.949 169.851 201.949 169.851Z" fill="#FCD3A2"/>
<path d="M181.548 129.942C181.548 129.942 183.128 130.201 184.035 131.943C184.943 133.686 186.937 135.763 186.038 137.654C185.138 139.545 182.513 140.404 180.732 139.7C178.951 138.995 177.526 135.291 177.516 133.86C177.505 132.428 178.26 130.295 181.548 129.942Z" fill="#F0F2F0"/>
<path d="M222 166.02L202.484 180.494L209.206 189.312L228.432 173.194L222 166.02Z" fill="#F0F2F0"/>
<path d="M207.906 183.313C208.684 183.313 209.315 182.682 209.315 181.904C209.315 181.125 208.684 180.494 207.906 180.494C207.127 180.494 206.496 181.125 206.496 181.904C206.496 182.682 207.127 183.313 207.906 183.313Z" fill="#353434"/>
<path d="M254.58 198.04V224.953H237.694L206.609 189.302L229.371 171.193L254.58 198.04Z" fill="#353434"/>
</g>
</g>
<defs>
<clipPath id="clip0_562_4848">
<rect width="254.579" height="231" fill="white"/>
</clipPath>
<clipPath id="clip1_562_4848">
<rect width="267.842" height="202.632" fill="white" transform="translate(0 28.3691)"/>
</clipPath>
</defs>
</svg>
