<svg width="21" height="20" viewBox="0 0 21 20" fill="none" xmlns="http://www.w3.org/2000/svg">
<g clip-path="url(#clip0_1_2131)">
<path d="M18.6676 9.72567H18.5676V6.99387C18.5676 6.14127 17.9362 5.43547 17.1168 5.31427V4.69967C17.1168 3.76227 16.3542 2.99967 15.4168 2.99967H14.6636L14.267 1.94267C14.2399 1.87049 14.1861 1.8115 14.1167 1.77795C14.0472 1.74439 13.9676 1.73885 13.8942 1.76247L10.054 2.99967H2.21458C1.41678 2.99967 0.767578 3.64887 0.767578 4.44667V16.5523C0.767578 17.4897 1.53018 18.2523 2.46758 18.2523H16.8676C17.805 18.2523 18.5676 17.4897 18.5676 16.5523V13.8205H18.6676C19.0536 13.8205 19.3676 13.5065 19.3676 13.1205V10.4257C19.3676 10.0399 19.0536 9.72567 18.6676 9.72567ZM14.8888 3.59987H15.4168C16.0232 3.59987 16.5168 4.09327 16.5168 4.69987V5.29407H15.5246L15.4648 5.13467L14.8888 3.59987ZM14.0228 2.99987L14.5102 4.29867L14.8838 5.29407H4.88938L13.8058 2.42167L14.0228 2.99987ZM2.21458 3.59987H8.19138L4.42338 4.81387L2.93278 5.29407H2.21458C1.74758 5.29407 1.36758 4.91407 1.36758 4.44707C1.36758 3.98007 1.74758 3.59987 2.21458 3.59987ZM17.9676 16.5523C17.9676 17.1589 17.474 17.6523 16.8676 17.6523H2.46758C2.17594 17.652 1.89633 17.536 1.69011 17.3297C1.48389 17.1235 1.3679 16.8439 1.36758 16.5523V5.61947C1.37178 5.62267 1.37678 5.62467 1.38118 5.62787C1.43358 5.66487 1.48818 5.69867 1.54538 5.72867C1.55598 5.73427 1.56718 5.73907 1.57798 5.74447C1.63098 5.77067 1.68558 5.79367 1.74198 5.81327C1.75158 5.81667 1.76078 5.82047 1.77038 5.82367C1.83278 5.84387 1.89698 5.85907 1.96278 5.87067C1.97738 5.87327 1.99218 5.87527 2.00698 5.87747C2.07498 5.88727 2.14398 5.89407 2.21458 5.89407H16.8676C17.474 5.89407 17.9676 6.38748 17.9676 6.99408V9.72587H15.98C15.0426 9.72587 14.28 10.4885 14.28 11.4259V12.1207C14.28 13.0581 15.0426 13.8207 15.98 13.8207H17.9676V16.5523ZM18.7676 13.1205C18.7676 13.147 18.757 13.1724 18.7383 13.1912C18.7195 13.2099 18.6941 13.2205 18.6676 13.2205H15.98C15.6883 13.2202 15.4087 13.1042 15.2025 12.8979C14.9963 12.6917 14.8803 12.4121 14.88 12.1205V11.4257C14.88 10.8191 15.3736 10.3257 15.98 10.3257H18.6676C18.6941 10.3257 18.7195 10.3362 18.7383 10.355C18.757 10.3737 18.7676 10.3992 18.7676 10.4257V13.1205Z" fill="black"/>
<path d="M16.7573 10.9043C16.527 10.9045 16.3062 10.9961 16.1434 11.1589C15.9805 11.3217 15.8889 11.5424 15.8887 11.7727C15.8887 12.2517 16.2783 12.6411 16.7573 12.6411C17.2363 12.6411 17.6257 12.2515 17.6257 11.7727C17.6254 11.5425 17.5338 11.3217 17.371 11.1589C17.2082 10.9961 16.9875 10.9046 16.7573 10.9043ZM16.7573 12.0413C16.6093 12.0413 16.4887 11.9209 16.4887 11.7729C16.4906 11.703 16.5197 11.6365 16.5699 11.5877C16.62 11.5389 16.6872 11.5116 16.7572 11.5116C16.8271 11.5116 16.8943 11.5389 16.9445 11.5877C16.9946 11.6365 17.0238 11.703 17.0257 11.7729C17.0257 11.9207 16.9053 12.0413 16.7573 12.0413Z" fill="black"/>
</g>
<defs>
<clipPath id="clip0_1_2131">
<rect width="20" height="20" fill="white" transform="translate(0.0683594)"/>
</clipPath>
</defs>
</svg>
