<svg width="18" height="14" viewBox="0 0 18 14" fill="none" xmlns="http://www.w3.org/2000/svg">
<path fill-rule="evenodd" clip-rule="evenodd" d="M17.2536 3.12824L16.3855 3.99635L13.668 1.2788L14.5361 0.410691C14.7122 0.234522 14.9261 0.146484 15.1777 0.146484C15.4294 0.146484 15.6432 0.234522 15.8194 0.410691L17.2536 1.84495C17.4298 2.02112 17.5178 2.23494 17.5178 2.4866C17.5178 2.73825 17.4298 2.95207 17.2536 3.12824ZM13.0662 1.88086L15.7824 4.59702L9.44468 10.9347H6.72852V8.21857L13.0662 1.88086ZM13.9719 8.84094V10.6328C13.9719 11.381 13.7062 12.0207 13.175 12.552C12.6438 13.0832 12.004 13.3489 11.2558 13.3489H3.40942C2.66126 13.3489 2.02152 13.0832 1.49026 12.552C0.959006 12.0207 0.693359 11.381 0.693359 10.6328V2.78638C0.693359 2.03823 0.959006 1.39845 1.49026 0.867214C2.02152 0.335978 2.66126 0.0703125 3.40942 0.0703125H11.2558C11.6519 0.0703125 12.0197 0.148871 12.3592 0.306082C12.4535 0.350124 12.5101 0.422364 12.529 0.52299C12.5479 0.629841 12.5196 0.721037 12.4441 0.796483L11.982 1.25859C11.894 1.34658 11.7934 1.37176 11.6802 1.33404C11.5356 1.29631 11.3942 1.27745 11.2558 1.27745H3.40942C2.99447 1.27745 2.63923 1.42523 2.34375 1.7207C2.04826 2.01617 1.9005 2.37142 1.9005 2.78638V10.6328C1.9005 11.0477 2.04826 11.403 2.34375 11.6985C2.63923 11.994 2.99447 12.1417 3.40942 12.1417H11.2558C11.6708 12.1417 12.026 11.994 12.3215 11.6985C12.617 11.403 12.7648 11.0477 12.7648 10.6328V9.44451C12.7648 9.36277 12.7931 9.29362 12.8496 9.23703L13.4532 8.63346C13.5475 8.53916 13.6576 8.51716 13.7833 8.56745C13.909 8.61773 13.9719 8.70891 13.9719 8.84094ZM13.218 3.23922C13.1174 3.13854 13.0136 3.14174 12.9067 3.24865L9.60412 6.5512C9.49719 6.65812 9.49402 6.76192 9.59468 6.86258C9.69535 6.96324 9.79914 6.96007 9.90607 6.85314L13.2086 3.5506C13.3155 3.44369 13.3187 3.3399 13.218 3.23922ZM9.06732 10.0293L10.1621 8.93451L8.72757 7.5L7.63281 8.59475V9.12326H8.53882V10.0293H9.06732Z" fill="#83848B"/>
</svg>
