<svg width="18" height="18" viewBox="0 0 18 18" fill="none" xmlns="http://www.w3.org/2000/svg">
<path d="M7.84771 10.3251H7.0062V9.48363C7.0062 9.40924 6.97665 9.33787 6.92405 9.28527C6.87146 9.23268 6.80008 9.20312 6.7257 9.20312H5.60369C5.44878 9.20312 5.32318 9.32873 5.32318 9.48363V10.3251H4.48167C4.32677 10.3251 4.20117 10.4507 4.20117 10.6056V11.7277C4.20117 11.802 4.23073 11.8734 4.28332 11.926C4.33591 11.9786 4.40729 12.0082 4.48167 12.0082H5.32318V12.8497C5.32318 12.924 5.35274 12.9954 5.40533 13.048C5.45792 13.1006 5.5293 13.1302 5.60369 13.1302H6.7257C6.80008 13.1302 6.87146 13.1006 6.92405 13.048C6.97665 12.9954 7.0062 12.924 7.0062 12.8497V12.0082H7.84771C7.92209 12.0082 7.99347 11.9786 8.04606 11.926C8.09866 11.8734 8.12821 11.802 8.12821 11.7277V10.6056C8.12821 10.5313 8.09866 10.4599 8.04606 10.4073C7.99347 10.3547 7.92209 10.3251 7.84771 10.3251ZM7.56721 11.4471H6.7257C6.5708 11.4471 6.44519 11.5727 6.44519 11.7277V12.5692H5.88419V11.7277C5.88419 11.6533 5.85464 11.5819 5.80204 11.5293C5.74945 11.4767 5.67807 11.4471 5.60369 11.4471H4.76218V10.8861H5.60369C5.67807 10.8861 5.74945 10.8566 5.80204 10.804C5.85464 10.7514 5.88419 10.68 5.88419 10.6056V9.76413H6.44519V10.6056C6.44519 10.68 6.47475 10.7514 6.52734 10.804C6.57994 10.8566 6.65131 10.8861 6.7257 10.8861H7.56721V11.4471Z" fill="#151921"/>
<path d="M16.4738 12.3494C15.7578 11.629 14.731 11.3104 13.733 11.4992V10.6048C13.7323 10.0846 13.5253 9.58584 13.1575 9.21791C12.7896 8.85011 12.2908 8.64311 11.7706 8.64246V6.39975C11.7499 6.00891 11.6016 5.63569 11.3484 5.33722C11.0953 5.03886 10.7511 4.83174 10.3689 4.74777V3.59636H10.6492C10.7236 3.59636 10.7949 3.56682 10.8475 3.51426C10.9 3.4617 10.9296 3.39036 10.9296 3.31602V1.07331C10.9296 0.998968 10.9 0.927631 10.8475 0.875068C10.7949 0.822505 10.7236 0.792969 10.6492 0.792969H1.67837C1.52356 0.792969 1.39803 0.918497 1.39803 1.07331V3.31602C1.39803 3.39036 1.42757 3.4617 1.48013 3.51426C1.53269 3.56682 1.60403 3.59636 1.67837 3.59636H1.95871V4.74777C1.57649 4.83175 1.23233 5.03887 0.979157 5.33722C0.725977 5.6357 0.577679 6.00891 0.557014 6.39975V16.2116C0.526102 16.5921 0.663767 16.9668 0.933598 17.2367C1.20355 17.5066 1.57825 17.6442 1.95871 17.6133H10.3689C10.603 17.6168 10.8352 17.5684 11.0485 17.4715C11.2777 17.5649 11.523 17.6129 11.7706 17.6133C12.1673 17.6114 12.554 17.4885 12.8791 17.2609C13.7565 17.7164 14.7993 17.7228 15.6823 17.2783C16.5654 16.8337 17.1813 15.9922 17.338 15.0162C17.4948 14.0401 17.1733 13.048 16.4738 12.3495V12.3494ZM15.8674 12.5594L13.733 14.6939V12.0694C14.482 11.8989 15.2678 12.0794 15.8674 12.5593V12.5594ZM12.7619 9.61525C13.0261 9.87644 13.174 10.2332 13.1723 10.6048V12.8475H10.3689V10.6048C10.3678 10.2726 10.4854 9.95079 10.7004 9.69762C10.9156 9.44431 11.214 9.27624 11.5421 9.22367C11.6174 9.20965 11.694 9.20277 11.7706 9.20314C12.1431 9.20152 12.5004 9.35007 12.7619 9.61526L12.7619 9.61525ZM1.95874 1.35373H2.51942V2.47509C2.51942 2.6299 2.64495 2.75543 2.79976 2.75543C2.95457 2.75543 3.0801 2.6299 3.0801 2.47509V1.35373H3.64078V2.47509C3.64078 2.6299 3.7663 2.75543 3.92112 2.75543C4.07593 2.75543 4.20145 2.6299 4.20145 2.47509V1.35373H4.76213V2.47509C4.76213 2.6299 4.88766 2.75543 5.04247 2.75543C5.19728 2.75543 5.32281 2.6299 5.32281 2.47509V1.35373H5.88349V2.47509C5.88349 2.6299 6.00902 2.75543 6.16383 2.75543C6.31864 2.75543 6.44417 2.6299 6.44417 2.47509V1.35373H7.00485V2.47509C7.00485 2.6299 7.13037 2.75543 7.28518 2.75543C7.44 2.75543 7.56552 2.6299 7.56552 2.47509V1.35373H8.1262V2.47509C8.1262 2.6299 8.25173 2.75543 8.40654 2.75543C8.56135 2.75543 8.68688 2.6299 8.68688 2.47509V1.35373H9.24756V2.47509C9.24756 2.6299 9.37309 2.75543 9.5279 2.75543C9.68271 2.75543 9.80824 2.6299 9.80824 2.47509V1.35373H10.3689V3.03577H1.95874V1.35373ZM9.80824 3.59645V4.7178H2.51942V3.59645H9.80824ZM1.11772 6.39984C1.143 6.11086 1.26928 5.84015 1.47428 5.63504C1.67941 5.43004 1.95012 5.30376 2.23908 5.27848H10.0886C10.3775 5.30376 10.6483 5.43004 10.8534 5.63504C11.0584 5.84016 11.1847 6.11088 11.2099 6.39984V7.52119H1.11772V6.39984ZM1.11772 8.08187H11.2099V8.72665C10.8043 8.84554 10.4483 9.09298 10.1955 9.43176C9.94265 9.77054 9.80673 10.1823 9.80824 10.6049V14.2493H1.11772V8.08187ZM1.95874 17.0527C1.72796 17.0821 1.49642 17.0032 1.33187 16.8386C1.1673 16.674 1.08833 16.4425 1.11774 16.2117V14.81H9.80825V15.651C9.81088 16.1776 10.0241 16.681 10.4003 17.0494C10.3891 17.0494 10.3804 17.0528 10.3689 17.0528L1.95874 17.0527ZM11.16 16.9106C11.1524 16.9069 11.1448 16.9035 11.1367 16.9004V16.9005C10.9064 16.7828 10.7129 16.6039 10.5775 16.3835C10.442 16.1631 10.3699 15.9097 10.3689 15.651V13.4083H13.1723V15.651C13.1724 16.0642 12.9897 16.4563 12.6733 16.722C12.4655 16.895 12.2126 17.0048 11.9443 17.0382C11.6761 17.0716 11.4038 17.0273 11.16 16.9106L11.16 16.9106ZM14.2936 17.0527C13.9587 17.053 13.6271 16.9863 13.3183 16.8565C13.3197 16.8545 13.3208 16.852 13.3226 16.85C13.3805 16.7743 13.4329 16.6945 13.4793 16.6112C13.4902 16.5915 13.5003 16.5719 13.5107 16.552C13.5522 16.4728 13.5884 16.3907 13.6188 16.3064C13.6213 16.2997 13.6245 16.2936 13.6267 16.2868C13.6569 16.1966 13.6805 16.1042 13.6974 16.0105C13.7017 15.9878 13.7053 15.965 13.7087 15.942H13.7086C13.7241 15.8458 13.7322 15.7485 13.733 15.651V15.4867L16.2639 12.9558V12.9559C16.6618 13.453 16.8569 14.0824 16.8098 14.7174C16.7629 15.3524 16.4773 15.9462 16.0106 16.3794C15.5438 16.8126 14.9304 17.0531 14.2936 17.0527H14.2936Z" fill="#151921"/>
</svg>
