<svg width="16" height="17" viewBox="0 0 16 17" fill="none" xmlns="http://www.w3.org/2000/svg">
<path d="M15.3757 4.44014L14.0705 1.15109C14.0183 0.994496 13.8617 0.916198 13.7051 0.916198L9.37177 0.916016H2.21929C2.0627 0.916016 1.9061 1.02035 1.85385 1.15091L0.54865 4.43996C0.496391 4.57051 0.522613 4.70107 0.60091 4.8054C0.679208 4.90974 0.783726 4.98822 0.914101 4.98822H6.42203C6.63089 4.98822 6.78748 4.83162 6.81351 4.62277L6.83955 4.46618H9.11055L9.13659 4.62277C9.16263 4.83163 9.3194 4.98822 9.52807 4.98822H15.0104C15.1409 4.98822 15.2715 4.93596 15.3236 4.8054C15.402 4.70107 15.4281 4.57069 15.3758 4.44014H15.3757ZM6.05661 4.20525H1.48842L2.48042 1.69918H6.29168L6.05661 4.20525ZM9.86769 4.20525L9.6328 1.69918H13.4441L14.4361 4.20525H9.86769ZM15.0102 4.20525H0.914041C0.705186 4.20525 0.522556 4.38806 0.522556 4.59673V15.6648C0.522556 15.8737 0.705372 16.0563 0.914041 16.0563H15.0102C15.219 16.0563 15.4016 15.8735 15.4016 15.6648L15.4018 4.59673C15.4018 4.36184 15.219 4.20525 15.0102 4.20525ZM14.6187 15.2733H1.30567V4.98837H6.05659V11.5405L7.96213 10.2353L9.86767 11.5405V4.98837H14.6186L14.6187 15.2733Z" fill="black"/>
</svg>
