<svg width="12" height="17" viewBox="0 0 12 17" fill="none" xmlns="http://www.w3.org/2000/svg">
<path fill-rule="evenodd" clip-rule="evenodd" d="M3.31184 12.9523C3.21227 12.9523 3.11868 12.9151 3.04905 12.8494C2.97868 12.7885 2.9375 12.7039 2.9375 12.6138C2.9375 12.5664 2.95322 12.5238 2.9667 12.4845C2.98766 12.4419 3.01461 12.4026 3.04905 12.3708C3.19205 12.2489 3.44061 12.2489 3.58137 12.3708C3.648 12.4364 3.68618 12.5238 3.68618 12.6138C3.68618 12.7011 3.648 12.7885 3.58137 12.8494C3.54618 12.8833 3.50201 12.9103 3.45559 12.9259C3.40842 12.9367 3.365 12.9523 3.31184 12.9523ZM3.31184 11.6008C3.21227 11.6008 3.11868 11.5635 3.04905 11.4978C2.97868 11.4369 2.9375 11.3523 2.9375 11.2623C2.9375 11.2149 2.95322 11.1722 2.9667 11.1329C2.98766 11.0903 3.01461 11.0503 3.04905 11.0192C3.19205 10.8973 3.44061 10.8973 3.58137 11.0192C3.648 11.0849 3.68618 11.1722 3.68618 11.2623C3.68618 11.3496 3.648 11.4369 3.58137 11.4978C3.54618 11.5317 3.50201 11.5581 3.45559 11.5743C3.40842 11.5852 3.365 11.6008 3.31184 11.6008ZM3.31184 10.2531C3.21227 10.2531 3.11868 10.2159 3.04905 10.1502C2.97868 10.0893 2.9375 10.0046 2.9375 9.91459C2.9375 9.81914 2.98467 9.73722 3.04905 9.67155C3.19205 9.54969 3.44061 9.54969 3.58137 9.67155C3.648 9.73722 3.68618 9.82455 3.68618 9.91459C3.68618 10.0019 3.648 10.0893 3.58137 10.1502C3.54618 10.184 3.50201 10.2111 3.45559 10.2267C3.40842 10.2375 3.365 10.2531 3.31184 10.2531ZM3.31184 8.90153C3.21227 8.90153 3.11868 8.8643 3.04905 8.79863C3.01686 8.76681 2.98766 8.73228 2.9667 8.69031C2.94948 8.65036 2.94049 8.60771 2.9375 8.56303C2.9375 8.46757 2.98467 8.38566 3.04905 8.31999C3.18606 8.19813 3.44061 8.19813 3.58137 8.31999C3.61057 8.35384 3.64276 8.39378 3.65698 8.43372C3.67795 8.4757 3.68618 8.51564 3.68618 8.56303C3.68618 8.60297 3.67795 8.65036 3.66597 8.69031C3.64276 8.73228 3.61356 8.76681 3.58137 8.79863C3.54618 8.83248 3.50201 8.85956 3.45559 8.87513C3.40842 8.89341 3.365 8.90153 3.31184 8.90153ZM3.31184 7.55044C3.26542 7.54773 3.21526 7.5369 3.17184 7.52403C3.08125 7.4868 3.00788 7.42113 2.96969 7.33853C2.95322 7.29927 2.94049 7.25662 2.9375 7.21194C2.9375 7.11648 2.98467 7.03456 3.05205 6.96889C3.14788 6.87344 3.32083 6.84703 3.45559 6.89984C3.508 6.91338 3.54618 6.94181 3.58137 6.96889C3.61356 7.00274 3.64276 7.04269 3.65698 7.08263C3.68019 7.1246 3.68618 7.16455 3.68618 7.21194C3.68618 7.25188 3.68019 7.29927 3.66597 7.33853C3.64276 7.38119 3.61356 7.41571 3.58361 7.44753C3.54618 7.48138 3.505 7.50778 3.45559 7.52403C3.40842 7.53486 3.365 7.55044 3.31184 7.55044ZM8.57778 12.949H4.8423C4.63535 12.949 4.46875 12.7984 4.46875 12.6112C4.46875 12.4268 4.63535 12.2734 4.8423 12.2734H8.57778C8.78547 12.2734 8.95132 12.4268 8.95132 12.6112C8.95132 12.7984 8.78547 12.949 8.57778 12.949ZM8.57778 11.5974H4.8423C4.63535 11.5974 4.46875 11.4468 4.46875 11.2597C4.46875 11.0752 4.63535 10.9219 4.8423 10.9219H8.57778C8.78547 10.9219 8.95132 11.0752 8.95132 11.2597C8.95132 11.4468 8.78547 11.5974 8.57778 11.5974ZM8.57778 10.2478H4.8423C4.63535 10.2478 4.46875 10.0972 4.46875 9.91005C4.46875 9.72562 4.63535 9.57227 4.8423 9.57227H8.57778C8.78547 9.57227 8.95132 9.72562 8.95132 9.91005C8.95132 10.0972 8.78547 10.2478 8.57778 10.2478ZM8.57778 8.89822H4.8423C4.63535 8.89822 4.46875 8.74757 4.46875 8.56044C4.46875 8.37601 4.63535 8.22266 4.8423 8.22266H8.57778C8.78547 8.22266 8.95132 8.37601 8.95132 8.56044C8.95132 8.74757 8.78547 8.89822 8.57778 8.89822ZM8.57778 7.54666H4.8423C4.63535 7.54666 4.46875 7.39601 4.46875 7.20888C4.46875 7.02445 4.63535 6.87109 4.8423 6.87109H8.57778C8.78547 6.87109 8.95132 7.02445 8.95132 7.20888C8.95132 7.39601 8.78547 7.54666 8.57778 7.54666Z" fill="#151921"/>
<path fill-rule="evenodd" clip-rule="evenodd" d="M5.96246 14.2991C6.01473 14.2991 6.07073 14.3099 6.12001 14.3309L10.4425 16.1349V0.853516H1.48242V16.1349L5.80491 14.3309C5.85419 14.3099 5.90721 14.2991 5.96246 14.2991ZM10.8177 17.0014C10.7624 17.0014 10.7094 16.9906 10.6601 16.9696L5.9637 15.01L1.26728 16.9696C1.15078 17.0196 1.01637 17.0122 0.908085 16.9487C0.80055 16.8879 0.736328 16.7799 0.736328 16.6637V0.515368C0.736328 0.328319 0.902857 0.177734 1.10971 0.177734H10.8177C11.0245 0.177734 11.1911 0.328319 11.1911 0.515368V16.6637C11.1911 16.8508 11.0245 17.0014 10.8177 17.0014Z" fill="#151921"/>
<path fill-rule="evenodd" clip-rule="evenodd" d="M5.96467 4.26966C6.02296 4.26966 6.08423 4.28317 6.13654 4.30682L6.68276 4.56561L6.5774 4.01898C6.55722 3.90817 6.59832 3.79736 6.68575 3.7183L7.12661 3.33316L6.51613 3.25411C6.39657 3.23789 6.29196 3.16694 6.23592 3.06897L5.96467 2.57031L5.69343 3.06626C5.63739 3.16694 5.53278 3.23519 5.41322 3.25411L4.80273 3.33316L5.2436 3.7183C5.33102 3.79736 5.37212 3.90817 5.35195 4.01898L5.24659 4.56561L5.79281 4.30682C5.84512 4.28317 5.9034 4.26966 5.96467 4.26966ZM7.17789 5.52133C7.11664 5.52133 7.05838 5.5085 7.0061 5.48148L5.96418 4.98845L4.92225 5.48148C4.79752 5.54227 4.64516 5.53214 4.53163 5.45785C4.41511 5.38153 4.35984 5.25253 4.38299 5.12556L4.58092 4.08073L3.74066 3.33983C3.63908 3.25001 3.60099 3.1156 3.64506 2.99403C3.68838 2.86976 3.80489 2.77994 3.9483 2.7617L5.10898 2.60906L5.62882 1.65609C5.7543 1.42714 6.17406 1.42714 6.29954 1.65609L6.81938 2.60906L7.98006 2.7617C8.10852 2.65364 8.30122 2.6354 8.44687 2.72185C8.59326 2.80898 8.65152 2.97782 8.59027 3.12573C8.52903 3.27364 8.35948 3.36077 8.1877 3.33983L7.34743 4.08073L7.54536 5.12556C7.56628 5.22619 7.53416 5.32614 7.46395 5.40246C7.39374 5.47946 7.28843 5.52133 7.17789 5.52133Z" fill="#151921"/>
</svg>
