<svg width="12" height="18" viewBox="0 0 12 18" fill="none" xmlns="http://www.w3.org/2000/svg">
<path d="M7.82646 8.33573L7.67191 7.83494C7.70282 7.81644 7.73373 7.79782 7.76767 7.77615H7.76781C8.67885 7.14539 9.22019 6.10559 9.2144 4.99735V3.26939C9.21371 2.53099 8.92006 1.82294 8.3979 1.30074C7.87573 0.77854 7.16782 0.484905 6.42925 0.484375H5.49585C4.75731 0.484927 4.0494 0.778579 3.5272 1.30074C3.005 1.8229 2.71136 2.53095 2.71069 3.26939V4.99735C2.70476 6.10644 3.24748 7.14663 4.16046 7.77615C4.18986 7.79795 4.2209 7.81755 4.2532 7.83494L4.09864 8.33573C3.57606 8.36402 3.0634 8.48987 2.58705 8.70666C2.57725 8.70942 2.56787 8.71356 2.55931 8.71894C1.82434 9.05785 1.20185 9.60002 0.765249 10.2814C0.328647 10.9629 0.0963743 11.7549 0.0957031 12.5643V16.9999C0.0961171 17.1705 0.234251 17.3085 0.404811 17.309H11.5203C11.6909 17.3085 11.829 17.1705 11.8295 16.9999V12.5643C11.8282 11.4816 11.413 10.4404 10.6687 9.65425C9.92446 8.86795 8.90755 8.39616 7.82652 8.33571L7.82646 8.33573ZM3.32902 3.26953C3.32916 2.69491 3.55754 2.14392 3.96395 1.73752C4.37021 1.33126 4.92123 1.10288 5.49596 1.10274H6.4295H6.42936C7.00413 1.10287 7.55512 1.33126 7.96138 1.73752C8.36777 2.14392 8.59616 2.69494 8.5963 3.26953V3.56015C7.99935 4.11736 7.17744 4.36592 6.37182 4.23273C5.56605 4.09957 4.86782 3.59975 4.48198 2.88011C4.42872 2.77924 4.32411 2.71618 4.21 2.71631H4.17605C4.04923 2.73135 3.94408 2.82188 3.91013 2.94497C3.81133 3.29727 3.60889 3.61176 3.32905 3.8476L3.32902 3.26953ZM3.32902 4.9975V4.5864C3.71871 4.37265 4.04343 4.0576 4.26878 3.67455C4.77646 4.30602 5.50204 4.72471 6.30296 4.84821C7.10375 4.97185 7.92177 4.79135 8.5963 4.34219V4.99753C8.5963 5.89642 8.16079 6.7397 7.4279 7.26024C7.34207 7.3164 7.25334 7.36802 7.16199 7.4148C6.40717 7.80325 5.51103 7.80215 4.75716 7.41162C4.67989 7.37147 4.5964 7.3251 4.50063 7.26328C3.76623 6.74235 3.32962 5.89797 3.32906 4.99753L3.32902 4.9975ZM2.69233 13.7606C2.83198 13.7599 2.95825 13.8437 3.01193 13.9726C3.06574 14.1016 3.03635 14.2502 2.93755 14.3489C2.83874 14.4477 2.69012 14.4771 2.56125 14.4234C2.43236 14.3696 2.3486 14.2433 2.34915 14.1037C2.35025 13.9146 2.50329 13.7616 2.69234 13.7606L2.69233 13.7606ZM11.2114 16.6909H6.27198V10.9447L7.41872 9.80101C7.53919 9.67971 7.53877 9.48389 7.41789 9.36303C7.29701 9.24216 7.10119 9.24173 6.97991 9.3622L5.96289 10.3823L4.94587 9.3622C4.82458 9.24173 4.62876 9.24214 4.50789 9.36303C4.38703 9.48391 4.3866 9.67972 4.50706 9.80101L5.6538 10.9447V16.6909H0.714431V12.5644C0.715811 11.3323 1.34508 10.1858 2.38362 9.52274V13.1981C2.09245 13.2967 1.86573 13.5279 1.77314 13.821C1.68054 14.1141 1.73312 14.4337 1.91472 14.6817C2.09646 14.9295 2.38541 15.0761 2.69272 15.0761C3.00002 15.0761 3.28899 14.9295 3.47061 14.6817C3.65235 14.4337 3.70492 14.1141 3.61233 13.821C3.51974 13.5279 3.29301 13.2966 3.00185 13.1981V9.20444C3.42411 9.03802 3.87399 8.95205 4.32784 8.95095C4.46418 8.95053 4.58437 8.86167 4.62466 8.73154L4.81634 8.11332C5.55516 8.39359 6.37099 8.39359 7.10981 8.11332L7.30149 8.73154C7.34178 8.86167 7.46198 8.95053 7.59831 8.95095C7.93599 8.95233 8.27199 9.00021 8.59671 9.09322V12.1936C8.22882 12.2655 7.89735 12.4629 7.6589 12.7521C7.42031 13.0414 7.28977 13.4044 7.2892 13.7792V14.7591C7.2892 14.9298 7.42748 15.0682 7.59831 15.0682C7.76901 15.0682 7.90742 14.9298 7.90742 14.7591V13.7792C7.90742 13.4225 8.09772 13.093 8.40655 12.9145C8.71552 12.7362 9.09613 12.7362 9.40495 12.9145C9.71392 13.093 9.90423 13.4225 9.90423 13.7792V14.7591C9.90423 14.9298 10.0426 15.0682 10.2133 15.0682C10.384 15.0682 10.5224 14.9298 10.5224 14.7591V13.7792C10.5219 13.4044 10.3912 13.0414 10.1527 12.7521C9.91429 12.4629 9.58282 12.2654 9.21493 12.1936V9.33733C9.81467 9.63664 10.3192 10.0971 10.6719 10.6672C11.0246 11.2373 11.2116 11.8942 11.2117 12.5645L11.2114 16.6909Z" fill="#151921"/>
</svg>
