<svg width="18" height="17" viewBox="0 0 18 17" fill="none" xmlns="http://www.w3.org/2000/svg">
<path d="M14.2227 6.13997V7.3587V9.29101V9.73795C14.2227 10.0328 14.4818 10.3145 14.786 10.3013C15.0921 10.2882 15.3494 10.0534 15.3494 9.73795V8.51922V6.58691V6.13997C15.3494 5.84514 15.0902 5.56346 14.786 5.57662C14.4818 5.58976 14.2227 5.82449 14.2227 6.13997Z" fill="#151921"/>
<path d="M12.8956 8.5017H14.1143H16.0466H16.4936C16.7884 8.5017 17.0701 8.24256 17.0569 7.93835C17.0438 7.63226 16.809 7.375 16.4936 7.375H15.2748H13.3425H12.8956C12.6008 7.375 12.3191 7.63415 12.3322 7.93835C12.3473 8.24445 12.5801 8.5017 12.8956 8.5017Z" fill="#151921"/>
<path d="M11.2474 4.40727C11.2474 4.57251 11.2361 4.73775 11.2155 4.90112C11.223 4.85042 11.2286 4.8016 11.2361 4.7509C11.1911 5.07762 11.1047 5.39496 10.977 5.69914C10.9958 5.65408 11.0146 5.60901 11.0334 5.56395C10.9395 5.78364 10.8249 5.99582 10.6916 6.19297C10.6597 6.23991 10.6259 6.28686 10.5921 6.3338C10.5677 6.3676 10.502 6.43895 10.6203 6.29812C10.5996 6.32253 10.5789 6.34882 10.5583 6.37511C10.4851 6.46336 10.4081 6.54786 10.3273 6.6286C10.2466 6.70935 10.1621 6.78633 10.0738 6.85956C10.0588 6.87271 10.0175 6.91965 9.99685 6.92153C10.0213 6.91965 10.1208 6.82764 10.0325 6.89336C9.98558 6.92716 9.94052 6.96096 9.8917 6.99288C9.69266 7.1262 9.48235 7.24074 9.26267 7.33463C9.30774 7.31585 9.3528 7.29707 9.39787 7.2783C9.09367 7.40598 8.77633 7.49236 8.44962 7.53742C8.50032 7.52991 8.54914 7.52428 8.59984 7.51677C8.27124 7.55996 7.93888 7.55996 7.61029 7.51677C7.66099 7.52428 7.70981 7.52991 7.76051 7.53742C7.43379 7.49236 7.11644 7.40598 6.81227 7.2783C6.85733 7.29707 6.9024 7.31585 6.94746 7.33463C6.72777 7.24074 6.51559 7.1262 6.31844 6.99288C6.27149 6.96096 6.22455 6.92716 6.17761 6.89336C6.14381 6.86895 6.07245 6.80323 6.21328 6.92153C6.18887 6.90088 6.16258 6.88022 6.1363 6.85956C6.04804 6.78633 5.96355 6.70935 5.8828 6.6286C5.80206 6.54786 5.72507 6.46336 5.65184 6.37511C5.6387 6.36009 5.59176 6.31878 5.58988 6.29812C5.59176 6.32253 5.68376 6.42205 5.61804 6.3338C5.58424 6.28686 5.55044 6.24179 5.51853 6.19297C5.38521 5.99393 5.27066 5.78362 5.17678 5.56395L5.23311 5.69914C5.10542 5.39495 5.01905 5.0776 4.97398 4.7509C4.9815 4.8016 4.98713 4.85042 4.99464 4.90112C4.95145 4.57251 4.95145 4.24016 4.99464 3.91157C4.98713 3.96227 4.9815 4.01108 4.97398 4.06178C5.01905 3.73506 5.10542 3.41772 5.23311 3.11354L5.17678 3.24874C5.27067 3.02904 5.38521 2.81686 5.51853 2.61971C5.55045 2.57277 5.58425 2.52582 5.61804 2.47888C5.64245 2.44508 5.70817 2.37373 5.58988 2.51456C5.61053 2.49015 5.63119 2.46386 5.65184 2.43757C5.72507 2.34932 5.80206 2.26482 5.8828 2.18408C5.96355 2.10333 6.04804 2.02635 6.1363 1.95312C6.15132 1.93997 6.19263 1.89303 6.21328 1.89115C6.18887 1.89303 6.08935 1.98504 6.17761 1.91932C6.22455 1.88552 6.26961 1.85172 6.31844 1.8198C6.51748 1.68648 6.72778 1.57194 6.94746 1.47805L6.81227 1.53439C7.11646 1.4067 7.43381 1.32032 7.76051 1.27526C7.70981 1.28277 7.66099 1.2884 7.61029 1.29591C7.93889 1.25273 8.27125 1.25273 8.59984 1.29591C8.54914 1.2884 8.50032 1.28277 8.44962 1.27526C8.77635 1.32032 9.09369 1.4067 9.39787 1.53439L9.26267 1.47805C9.48236 1.57194 9.69454 1.68648 9.8917 1.8198C9.93864 1.85172 9.98558 1.88552 10.0325 1.91932C10.0663 1.94373 10.1377 2.00945 9.99685 1.89115C10.0213 1.91181 10.0475 1.93246 10.0738 1.95312C10.1621 2.02635 10.2466 2.10333 10.3273 2.18408C10.4081 2.26482 10.4851 2.34932 10.5583 2.43757C10.5714 2.45259 10.6184 2.4939 10.6203 2.51456C10.6184 2.49015 10.5264 2.39063 10.5921 2.47888C10.6259 2.52582 10.6597 2.57089 10.6916 2.61971C10.8249 2.81875 10.9395 3.02906 11.0334 3.24874C11.0146 3.20367 10.9958 3.15861 10.977 3.11354C11.1047 3.41773 11.1911 3.73508 11.2361 4.06178C11.2286 4.01108 11.223 3.96227 11.2155 3.91157C11.2361 4.07681 11.2474 4.24205 11.2474 4.4073C11.2493 4.7021 11.5065 4.98376 11.8107 4.97061C12.1149 4.95747 12.3759 4.72275 12.374 4.4073C12.3703 3.54541 12.1112 2.67229 11.6079 1.97003C11.0859 1.23961 10.378 0.69505 9.53493 0.385241C7.89943 -0.217519 5.94275 0.313888 4.83886 1.66211C4.26052 2.36812 3.91689 3.20748 3.84554 4.12005C3.77982 4.9838 3.99951 5.88136 4.45204 6.62119C4.88769 7.3366 5.54298 7.93936 6.30911 8.2811C6.74661 8.47639 7.18601 8.59656 7.66107 8.65289C8.09857 8.70546 8.5436 8.67354 8.97547 8.58904C10.6542 8.25669 12.0474 6.82585 12.3103 5.13043C12.3479 4.89196 12.3741 4.65162 12.3741 4.40938C12.376 4.11458 12.115 3.83292 11.8108 3.84607C11.5048 3.85922 11.2494 4.09206 11.2475 4.40753L11.2474 4.40727Z" fill="#151921"/>
<path d="M14.215 11.9098V14.6583C14.215 14.8198 14.2225 14.985 14.2037 15.1465C14.2112 15.0958 14.2169 15.047 14.2244 14.9963C14.2075 15.1221 14.1756 15.2422 14.1286 15.3605L14.185 15.2253C14.1493 15.3079 14.108 15.3887 14.0592 15.4656C14.0573 15.4694 14.0216 15.5276 14.0179 15.5257C14.0197 15.5257 14.1211 15.4018 14.0535 15.4788C14.0235 15.5126 13.9953 15.5464 13.9634 15.5783C13.9353 15.6065 13.9052 15.6346 13.8733 15.6609C13.8339 15.6928 13.7719 15.7191 13.9108 15.6327C13.8902 15.6459 13.8714 15.6609 13.8508 15.674C13.7757 15.7247 13.6949 15.766 13.6105 15.7998L13.7456 15.7435C13.6273 15.7904 13.5072 15.8224 13.3814 15.8393C13.4321 15.8317 13.4809 15.8261 13.5316 15.8186C13.3908 15.8355 13.2462 15.8299 13.1035 15.8299H12.3544H9.82362H6.75024H4.10867C3.69749 15.8299 3.28446 15.8317 2.87331 15.8299C2.80948 15.8299 2.74752 15.8261 2.68369 15.8186C2.73438 15.8261 2.78319 15.8317 2.83389 15.8393C2.7081 15.8224 2.58794 15.7904 2.46967 15.7435L2.60485 15.7998C2.52224 15.7642 2.44151 15.7229 2.36453 15.674C2.36078 15.6722 2.30258 15.6365 2.30446 15.6327C2.30446 15.6346 2.42837 15.736 2.35139 15.6684C2.3176 15.6384 2.2838 15.6102 2.25189 15.5783C2.22373 15.5501 2.19557 15.5201 2.16928 15.4882C2.13737 15.4487 2.11108 15.3868 2.19744 15.5257C2.1843 15.5051 2.16928 15.4863 2.15614 15.4656C2.10545 15.3905 2.06414 15.3098 2.03035 15.2253L2.08667 15.3605C2.03974 15.2422 2.00782 15.1221 1.99092 14.9963C1.99843 15.047 2.00406 15.0958 2.01157 15.1465C1.9928 14.9925 2.00031 14.8367 2.00031 14.6828V13.8623V12.1181C2.00031 11.8459 2.00594 11.5737 2.03973 11.3015C2.03222 11.3521 2.02659 11.401 2.01908 11.4517C2.07353 11.0518 2.18054 10.6594 2.33637 10.2876C2.3176 10.3327 2.29882 10.3778 2.28005 10.4228C2.36829 10.2163 2.47155 10.0135 2.58795 9.82203C2.64803 9.7244 2.70999 9.62865 2.77758 9.53665C2.80574 9.49723 2.92965 9.3489 2.80386 9.49723C2.83953 9.45592 2.87145 9.41087 2.90712 9.36956C3.04793 9.20246 3.20188 9.04476 3.36523 8.90019C3.40653 8.86452 3.44784 8.82885 3.48914 8.79317C3.50979 8.77628 3.53232 8.75938 3.55298 8.74061C3.568 8.72934 3.58114 8.71808 3.59616 8.70681C3.57175 8.72559 3.54922 8.74249 3.52482 8.76126C3.6093 8.6824 3.72007 8.61857 3.81582 8.55662C4.06365 8.39703 4.18756 8.04969 4.01859 7.78685C3.859 7.54091 3.51166 7.41323 3.24882 7.58409C2.54666 8.03842 1.9515 8.65236 1.53847 9.38271C1.11792 10.1262 0.890754 10.9692 0.873863 11.8234C0.858843 12.5988 0.873863 13.3761 0.873863 14.1514C0.873863 14.4237 0.871985 14.694 0.873863 14.9662C0.881373 15.8637 1.50469 16.6935 2.38898 16.9038C2.61615 16.9582 2.83768 16.962 3.06673 16.962H3.75764H6.2002H9.24917H11.9415H13.3176C13.8978 16.962 14.4911 16.7254 14.8628 16.2692C15.1613 15.9012 15.3397 15.4713 15.349 14.9925C15.3509 14.9118 15.349 14.8292 15.349 14.7485V12.1294V11.9116C15.349 11.6169 15.09 11.3352 14.7858 11.3484C14.4742 11.3596 14.2151 11.5943 14.2151 11.9098L14.215 11.9098Z" fill="#151921"/>
</svg>
