<svg width="16" height="18" viewBox="0 0 16 18" fill="none" xmlns="http://www.w3.org/2000/svg">
<path fill-rule="evenodd" clip-rule="evenodd" d="M3.64526 12.7754H3.31195C3.12829 12.7754 2.97864 12.9107 2.97864 13.0768C2.97864 13.2429 3.12829 13.3782 3.31195 13.3782H3.64526C3.82891 13.3782 3.97857 13.2429 3.97857 13.0768C3.97857 12.9107 3.82891 12.7754 3.64526 12.7754ZM3.64526 11.2734H3.31195C3.12829 11.2734 2.97864 11.4088 2.97864 11.5748C2.97864 11.7409 3.12829 11.8762 3.31195 11.8762H3.64526C3.82891 11.8762 3.97857 11.7409 3.97857 11.5748C3.97857 11.4088 3.82891 11.2734 3.64526 11.2734ZM3.64526 9.76953H3.31195C3.12829 9.76953 2.97864 9.90486 2.97864 10.0709C2.97864 10.237 3.12829 10.3723 3.31195 10.3723H3.64526C3.82891 10.3723 3.97857 10.237 3.97857 10.0709C3.97857 9.90486 3.82891 9.76953 3.64526 9.76953ZM9.62348 12.7754H4.97111C4.788 12.7754 4.63879 12.9103 4.63879 13.0759C4.63879 13.2415 4.788 13.3764 4.97111 13.3764H9.62348C9.80659 13.3764 9.95579 13.2415 9.95579 13.0759C9.95579 12.9103 9.80659 12.7754 9.62348 12.7754ZM4.97105 11.8743H8.95818C9.14125 11.8743 9.29044 11.7394 9.29044 11.5739C9.29044 11.4083 9.14125 11.2734 8.95818 11.2734H4.97105C4.78798 11.2734 4.63879 11.4083 4.63879 11.5739C4.63879 11.7394 4.78798 11.8743 4.97105 11.8743ZM9.62348 9.76953H4.97111C4.788 9.76953 4.63879 9.90445 4.63879 10.07C4.63879 10.2356 4.788 10.3705 4.97111 10.3705H9.62348C9.80659 10.3705 9.95579 10.2356 9.95579 10.07C9.95579 9.90445 9.80659 9.76953 9.62348 9.76953ZM5.30286 5.27003H6.16765C6.35045 5.27003 6.50001 5.13479 6.50001 4.9695V4.1875H7.42929V4.9695C7.42929 5.13479 7.57885 5.27003 7.76165 5.27003H8.62644V6.11034H7.76165C7.57885 6.11034 7.42929 6.24558 7.42929 6.41087V7.19287H6.50001V6.41087C6.50001 6.24558 6.35045 6.11034 6.16765 6.11034H5.30286V5.27003ZM4.97105 6.71H5.8356V7.49176C5.8356 7.65731 5.98345 7.79221 6.16786 7.79221H7.76137C7.94578 7.79221 8.09364 7.65731 8.09364 7.49176V6.71H8.95818C9.14125 6.71 9.29044 6.5763 9.29044 6.40955V4.9686C9.29044 4.80185 9.14125 4.66815 8.95818 4.66815H8.09364V3.88639C8.09364 3.72084 7.94578 3.58594 7.76137 3.58594H6.16786C5.98345 3.58594 5.8356 3.72084 5.8356 3.88639V4.66815H4.97105C4.78798 4.66815 4.63879 4.80185 4.63879 4.9686V6.40955C4.63879 6.5763 4.78798 6.71 4.97105 6.71Z" fill="#151921"/>
<path fill-rule="evenodd" clip-rule="evenodd" d="M12.9471 13.0757C12.0291 13.0757 11.2853 12.4031 11.2853 11.573C11.2853 10.7429 12.0291 10.0703 12.9471 10.0703C13.865 10.0703 14.6089 10.7429 14.6089 11.573C14.6089 12.4031 13.865 13.0757 12.9471 13.0757ZM12.6129 15.5989C12.6129 16.096 12.1664 16.5 11.6163 16.5H2.31504C1.76494 16.5 1.31848 16.096 1.31848 15.5989V2.6824C1.31848 2.18496 1.76494 1.78125 2.31504 1.78125H3.84377C3.8554 1.82 3.87101 1.85845 3.88895 1.89509C3.90988 1.93264 3.93313 1.96899 3.95904 2.00293C4.15636 2.24714 4.47294 2.38892 4.80645 2.38202H9.1249C9.45974 2.38802 9.77764 2.24594 9.97496 2.00053C10.0045 1.96418 10.0294 1.92453 10.0487 1.88338C10.0657 1.85034 10.0786 1.81639 10.0876 1.78125H11.6163C12.1664 1.78125 12.6129 2.18496 12.6129 2.6824V9.48907C12.587 9.48547 12.5597 9.48547 12.5338 9.48907C12.5026 9.48907 12.4727 9.49508 12.4428 9.50439C12.3793 9.5161 12.3156 9.53142 12.2548 9.54885C12.186 9.56777 12.1172 9.59 12.0511 9.61463C11.9159 9.6687 11.7864 9.73328 11.6631 9.80717C11.5502 9.87596 11.4449 9.95376 11.3476 10.0379C11.3087 10.0712 11.2712 10.1064 11.2373 10.1439L11.1944 10.186C11.1542 10.2271 11.1167 10.2707 11.0818 10.3151C11.0479 10.3539 11.018 10.3938 10.9881 10.435L10.9416 10.5101C10.922 10.5389 10.9038 10.5698 10.8885 10.6002C10.8573 10.6543 10.8274 10.7095 10.8028 10.7657C10.7872 10.7951 10.7755 10.8243 10.7662 10.8561C10.7496 10.8913 10.7353 10.9288 10.726 10.9664C10.7157 10.9886 10.7094 11.012 10.7068 11.0357C10.6925 11.0754 10.6822 11.115 10.6769 11.1565C10.6626 11.2163 10.6523 11.2784 10.6457 11.3391C10.6287 11.4815 10.6287 11.6248 10.6457 11.7651C10.6523 11.8272 10.6626 11.8885 10.6769 11.9498C10.6822 11.9895 10.6925 12.0306 10.7068 12.0694C10.7094 12.0928 10.7157 12.1159 10.726 12.1384C10.7353 12.176 10.7496 12.2135 10.7662 12.2502C10.7755 12.2805 10.7872 12.3112 10.8028 12.3391C10.8274 12.3968 10.8573 12.4517 10.8885 12.5043C10.9028 12.5377 10.9207 12.568 10.9416 12.5986C10.9416 12.6221 10.9715 12.6467 10.9881 12.6701C11.0051 12.6936 11.0479 12.7512 11.0818 12.7897C11.1167 12.8356 11.1542 12.8786 11.1944 12.9188L11.2373 12.9612C11.2712 12.9987 11.3087 13.0339 11.3476 13.0663C11.4449 13.1513 11.5502 13.2285 11.6631 13.2979C11.7864 13.373 11.9159 13.4364 12.0511 13.4902C12.1172 13.5148 12.186 13.5373 12.2548 13.5557C12.3182 13.5749 12.382 13.589 12.4428 13.6019C12.4727 13.6049 12.5039 13.6049 12.5338 13.6019C12.5597 13.604 12.587 13.604 12.6129 13.6019V15.5989ZM4.47473 1.08473C4.47473 0.988577 4.61097 0.882812 4.80701 0.882812H9.12667C9.32271 0.882812 9.45895 0.988577 9.45895 1.08473V1.5823C9.45762 1.61175 9.44732 1.63999 9.42904 1.66463C9.35495 1.74545 9.24363 1.79022 9.12667 1.78421H4.80701C4.69271 1.79112 4.58106 1.74666 4.50862 1.66673C4.48769 1.64209 4.47606 1.61295 4.47473 1.5823V1.08473ZM13.2791 9.49488V2.68375C13.2791 1.85399 12.5356 1.18165 11.618 1.18165H10.123V1.08311C10.0891 0.613555 9.64521 0.256956 9.12627 0.280388H4.80729C4.28835 0.256956 3.84449 0.613555 3.8106 1.08311V1.18165H2.31557C1.39795 1.18165 0.654419 1.85399 0.654419 2.68375V15.6018C0.654419 16.4316 1.39795 17.1039 2.31557 17.1039H11.618C12.5356 17.1039 13.2791 16.4316 13.2791 15.6018V13.6527C14.4147 13.495 15.2542 12.6117 15.2542 11.5732C15.2542 10.5346 14.4147 9.6508 13.2791 9.49488Z" fill="#151921"/>
<path fill-rule="evenodd" clip-rule="evenodd" d="M14.1881 10.7945C14.0581 10.6779 13.8489 10.6779 13.7193 10.7945L12.5489 11.7834L12.2164 11.4193C12.097 11.2936 11.8866 11.278 11.7476 11.3865C11.6073 11.4945 11.5916 11.6848 11.7113 11.8104L12.2789 12.4118C12.3387 12.474 12.4219 12.5128 12.5126 12.517H12.5323C12.6164 12.517 12.6972 12.4881 12.758 12.4364L14.1841 11.2338C14.2516 11.177 14.2908 11.0976 14.2918 11.0137C14.2918 10.9319 14.2542 10.8516 14.1881 10.7945Z" fill="#151921"/>
</svg>
