<svg width="18" height="18" viewBox="0 0 18 18" fill="none" xmlns="http://www.w3.org/2000/svg">
<path d="M16.5825 0.408203H13.0753C12.6533 0.408203 12.3105 0.751001 12.3105 1.17291V1.62118C12.3105 2.04309 12.6533 2.38588 13.0753 2.38588H13.1544V15.4122C13.1544 16.3615 13.9454 17.1526 14.8947 17.1526H14.9211H14.9475C15.8967 17.1526 16.6878 16.3615 16.6878 15.4122V2.38588C17.057 2.35952 17.3734 2.01672 17.3734 1.64755V1.17291C17.347 0.751001 17.0042 0.408203 16.5823 0.408203H16.5825ZM16.1342 12.0896H14.8949C14.7367 12.0896 14.6312 12.195 14.6312 12.3532C14.6312 12.5115 14.7367 12.6169 14.8949 12.6169H16.1342V13.6981H14.8949C14.7367 13.6981 14.6312 13.8035 14.6312 13.9618C14.6312 14.12 14.7367 14.2255 14.8949 14.2255H16.1342V14.5946C16.1078 15.8076 15.765 16.5723 14.8949 16.625C13.9456 16.5723 13.6819 15.7285 13.6819 14.621V10.9821H16.1342V12.0896ZM16.1342 5.60276H14.8949C14.7367 5.60276 14.6312 5.70824 14.6312 5.86645C14.6312 6.02467 14.7367 6.13014 14.8949 6.13014H16.1342V7.21128H14.8949C14.7367 7.21128 14.6312 7.31675 14.6312 7.47497C14.6312 7.63318 14.7367 7.73866 14.8949 7.73866H16.1342V8.81979H14.8949C14.7367 8.81979 14.6312 8.92527 14.6312 9.08348C14.6312 9.2417 14.7367 9.34717 14.8949 9.34717H16.1342V10.4283H13.6819V2.38558H16.1342V5.60276ZM16.8198 1.6474C16.8198 1.77924 16.7143 1.88472 16.5825 1.88472H13.0753C12.9434 1.88472 12.8379 1.77924 12.8379 1.6474V1.17276C12.8379 1.04091 12.9434 0.935434 13.0753 0.935434H16.5825C16.7143 0.935434 16.8198 1.04091 16.8198 1.17276V1.6474Z" fill="#151921"/>
<path d="M11.9435 15.4384L8.7265 11.0349L8.41007 10.613C8.27823 10.3493 8.19912 10.0593 8.19912 9.76923V2.38588C8.59466 2.35952 8.91109 2.04309 8.91109 1.64755V1.17291C8.91109 0.751001 8.56829 0.408203 8.14638 0.408203H4.63914C4.21724 0.408203 3.87444 0.751001 3.87444 1.17291V1.62118C3.87444 2.01672 4.19087 2.33315 4.58641 2.35952V9.71634C4.58641 10.0064 4.5073 10.2965 4.37545 10.5601L4.03266 11.0084L0.841846 15.4384C0.551786 15.7285 0.472679 16.1504 0.630893 16.5459C0.789108 16.9415 1.15828 17.1788 1.58018 17.1788H11.2575C11.6794 17.1788 12.0486 16.9415 12.2068 16.5459C12.365 16.1504 12.2331 15.7285 11.9431 15.4384H11.9435ZM4.40197 1.64755V1.17291C4.40197 1.04106 4.50745 0.935585 4.6393 0.935585H8.14653C8.27838 0.935585 8.38386 1.04106 8.38386 1.17291V1.62118C8.38386 1.75303 8.27838 1.8585 8.14653 1.8585H4.6393C4.50745 1.8585 4.40197 1.75303 4.40197 1.64755ZM6.43239 6.13029H7.64537V7.21143H6.43239C6.27418 7.21143 6.1687 7.3169 6.1687 7.47512C6.1687 7.63333 6.27418 7.73881 6.43239 7.73881H7.64537V8.81994H6.43239C6.27418 8.81994 6.1687 8.92542 6.1687 9.08363C6.1687 9.24185 6.27418 9.34732 6.43239 9.34732H7.64537V9.71649C7.64537 9.95381 7.67174 10.1911 7.75085 10.4285H5.00846C5.08757 10.1911 5.11394 9.95381 5.11394 9.71649V2.38588H7.67174V5.60291H6.45876C6.30055 5.60291 6.19507 5.70839 6.19507 5.8666C6.19507 6.02482 6.30055 6.13029 6.43239 6.13029ZM11.6797 16.335C11.6006 16.5196 11.4424 16.625 11.2314 16.625H1.55411C1.34316 16.625 1.18495 16.5196 1.10584 16.3086C1.02673 16.124 1.07947 15.9131 1.21131 15.7549L4.42834 11.4303L4.77114 11.0084H8.04091L8.38371 11.4303L8.88472 12.1159H7.82995C7.67174 12.1159 7.56626 12.2214 7.56626 12.3796C7.56626 12.5378 7.67174 12.6433 7.82995 12.6433H9.28025L9.35936 12.7224L10.0713 13.6981H9.12204C8.85835 13.6981 8.7265 13.8035 8.7265 13.9618C8.7265 14.12 8.83198 14.2255 8.99019 14.2255H10.4669L11.6271 15.8076C11.7062 15.9394 11.7589 16.1504 11.6798 16.335H11.6797Z" fill="#151921"/>
</svg>
