<svg width="21" height="21" viewBox="0 0 21 21" fill="none" xmlns="http://www.w3.org/2000/svg">
<path d="M3.78559 6.30922C2.39753 6.30922 1.26184 5.17353 1.26184 3.78547C1.26184 2.39741 2.39753 1.26172 3.78559 1.26172C5.17365 1.26172 6.30934 2.39741 6.30934 3.78547C6.30934 5.17353 5.17365 6.30922 3.78559 6.30922ZM3.78559 1.89266C2.713 1.89266 1.89278 2.71288 1.89278 3.78547C1.89278 4.85806 2.713 5.67828 3.78559 5.67828C4.85818 5.67828 5.6784 4.85806 5.6784 3.78547C5.6784 2.71288 4.85818 1.89266 3.78559 1.89266Z" fill="#4F5266"/>
<path d="M3.78557 5.04767C3.4701 5.04767 3.15463 4.92148 2.90226 4.66911C2.77607 4.54292 2.77607 4.35364 2.90226 4.22745C3.02845 4.10127 3.21773 4.10127 3.34391 4.22745C3.59629 4.47983 3.97485 4.47983 4.22723 4.22745C4.35341 4.10127 4.5427 4.10127 4.66888 4.22745C4.79507 4.35364 4.79507 4.54292 4.66888 4.66911C4.41651 4.92148 4.10104 5.04767 3.78557 5.04767Z" fill="#4F5266"/>
<path d="M3.02848 3.4698C3.20271 3.4698 3.34395 3.32856 3.34395 3.15434C3.34395 2.98011 3.20271 2.83887 3.02848 2.83887C2.85425 2.83887 2.71301 2.98011 2.71301 3.15434C2.71301 3.32856 2.85425 3.4698 3.02848 3.4698Z" fill="#4F5266"/>
<path d="M4.60587 3.4698C4.7801 3.4698 4.92134 3.32856 4.92134 3.15434C4.92134 2.98011 4.7801 2.83887 4.60587 2.83887C4.43165 2.83887 4.29041 2.98011 4.29041 3.15434C4.29041 3.32856 4.43165 3.4698 4.60587 3.4698Z" fill="#4F5266"/>
<path d="M3.78559 12.6188C2.39753 12.6188 1.26184 11.4831 1.26184 10.095C1.26184 8.70698 2.39753 7.57129 3.78559 7.57129C5.17365 7.57129 6.30934 8.70698 6.30934 10.095C6.30934 11.4831 5.17365 12.6188 3.78559 12.6188ZM3.78559 8.20223C2.713 8.20223 1.89278 9.02245 1.89278 10.095C1.89278 11.1676 2.713 11.9879 3.78559 11.9879C4.85818 11.9879 5.6784 11.1676 5.6784 10.095C5.6784 9.02245 4.85818 8.20223 3.78559 8.20223Z" fill="#4F5266"/>
<path d="M4.47965 11.0411H3.09159C2.90231 11.0411 2.77612 10.9149 2.77612 10.7256C2.77612 10.5363 2.90231 10.4102 3.09159 10.4102H4.41656C4.60584 10.4102 4.73203 10.5363 4.73203 10.7256C4.73203 10.9149 4.60584 11.0411 4.47965 11.0411Z" fill="#4F5266"/>
<path d="M3.02848 9.77938C3.20271 9.77938 3.34395 9.63813 3.34395 9.46391C3.34395 9.28968 3.20271 9.14844 3.02848 9.14844C2.85425 9.14844 2.71301 9.28968 2.71301 9.46391C2.71301 9.63813 2.85425 9.77938 3.02848 9.77938Z" fill="#4F5266"/>
<path d="M4.60587 9.77938C4.7801 9.77938 4.92134 9.63813 4.92134 9.46391C4.92134 9.28968 4.7801 9.14844 4.60587 9.14844C4.43165 9.14844 4.29041 9.28968 4.29041 9.46391C4.29041 9.63813 4.43165 9.77938 4.60587 9.77938Z" fill="#4F5266"/>
<path d="M3.78559 18.9284C2.39753 18.9284 1.26184 17.7927 1.26184 16.4046C1.26184 15.0165 2.39753 13.8809 3.78559 13.8809C5.17365 13.8809 6.30934 15.0165 6.30934 16.4046C6.30934 17.7927 5.17365 18.9284 3.78559 18.9284ZM3.78559 14.5118C2.713 14.5118 1.89278 15.332 1.89278 16.4046C1.89278 17.4772 2.713 18.2974 3.78559 18.2974C4.85818 18.2974 5.6784 17.4772 5.6784 16.4046C5.6784 15.332 4.85818 14.5118 3.78559 14.5118Z" fill="#4F5266"/>
<path d="M4.4796 17.6661C4.41651 17.6661 4.29032 17.6661 4.22723 17.603C3.97485 17.3506 3.59629 17.3506 3.34391 17.603C3.21773 17.7292 3.02845 17.7292 2.90226 17.603C2.77607 17.4768 2.77607 17.2875 2.90226 17.1613C3.34391 16.7197 4.22723 16.7197 4.66888 17.1613C4.79507 17.2875 4.79507 17.4768 4.66888 17.603C4.60579 17.6661 4.5427 17.6661 4.4796 17.6661Z" fill="#4F5266"/>
<path d="M3.02848 16.0889C3.20271 16.0889 3.34395 15.9477 3.34395 15.7735C3.34395 15.5992 3.20271 15.458 3.02848 15.458C2.85425 15.458 2.71301 15.5992 2.71301 15.7735C2.71301 15.9477 2.85425 16.0889 3.02848 16.0889Z" fill="#4F5266"/>
<path d="M4.60587 16.0889C4.7801 16.0889 4.92134 15.9477 4.92134 15.7735C4.92134 15.5992 4.7801 15.458 4.60587 15.458C4.43165 15.458 4.29041 15.5992 4.29041 15.7735C4.29041 15.9477 4.43165 16.0889 4.60587 16.0889Z" fill="#4F5266"/>
<path d="M11.0414 5.6782H7.88676C7.69748 5.6782 7.57129 5.55202 7.57129 5.36273V2.20805C7.57129 2.01877 7.69748 1.89258 7.88676 1.89258H11.0414C11.2307 1.89258 11.3569 2.01877 11.3569 2.20805V5.36273C11.3569 5.55202 11.2307 5.6782 11.0414 5.6782ZM8.20223 5.04727H10.726V2.52352H8.20223V5.04727Z" fill="#4F5266"/>
<path d="M9.71648 4.73248C9.65338 4.73248 9.5272 4.73248 9.4641 4.66938L8.58079 3.78607C8.4546 3.65988 8.4546 3.4706 8.58079 3.34441C8.70698 3.21823 8.89626 3.21823 9.02245 3.34441L9.71648 4.03845L11.7355 2.01945C11.8617 1.89326 12.0509 1.89326 12.1771 2.01945C12.3033 2.14563 12.3033 2.33491 12.1771 2.4611L9.96885 4.66938C9.90576 4.66938 9.84266 4.73248 9.71648 4.73248ZM11.0414 11.9883H7.88676C7.69748 11.9883 7.57129 11.8621 7.57129 11.6728V8.5181C7.57129 8.32882 7.69748 8.20263 7.88676 8.20263H11.0414C11.2307 8.20263 11.3569 8.32882 11.3569 8.5181V11.6728C11.3569 11.8621 11.2307 11.9883 11.0414 11.9883ZM8.20223 11.3573H10.726V8.83357H8.20223V11.3573ZM11.0414 18.2976H7.88676C7.69748 18.2976 7.57129 18.1714 7.57129 17.9822V14.8275C7.57129 14.6382 7.69748 14.512 7.88676 14.512H11.0414C11.2307 14.512 11.3569 14.6382 11.3569 14.8275V17.9822C11.3569 18.1714 11.2307 18.2976 11.0414 18.2976ZM8.20223 17.6667H10.726V15.1429H8.20223V17.6667ZM18.6127 15.7739H12.9343C12.745 15.7739 12.6188 15.6477 12.6188 15.4584C12.6188 15.2691 12.745 15.1429 12.9343 15.1429H18.6127C18.802 15.1429 18.9282 15.2691 18.9282 15.4584C18.9282 15.6477 18.802 15.7739 18.6127 15.7739ZM16.7199 17.0358H12.9343C12.745 17.0358 12.6188 16.9096 12.6188 16.7203C12.6188 16.531 12.745 16.4048 12.9343 16.4048H16.7199C16.9092 16.4048 17.0354 16.531 17.0354 16.7203C17.0354 16.9096 16.9092 17.0358 16.7199 17.0358ZM18.6127 9.46451H12.9343C12.745 9.46451 12.6188 9.33832 12.6188 9.14904C12.6188 8.95976 12.745 8.83357 12.9343 8.83357H18.6127C18.802 8.83357 18.9282 8.95976 18.9282 9.14904C18.9282 9.33832 18.802 9.46451 18.6127 9.46451ZM16.7199 10.7264H12.9343C12.745 10.7264 12.6188 10.6002 12.6188 10.4109C12.6188 10.2216 12.745 10.0954 12.9343 10.0954H16.7199C16.9092 10.0954 17.0354 10.2216 17.0354 10.4109C17.0354 10.6002 16.9092 10.7264 16.7199 10.7264ZM18.6127 3.15513H12.9343C12.745 3.15513 12.6188 3.02895 12.6188 2.83966C12.6188 2.65038 12.745 2.5242 12.9343 2.5242H18.6127C18.802 2.5242 18.9282 2.65038 18.9282 2.83966C18.9282 3.02895 18.802 3.15513 18.6127 3.15513ZM16.7199 4.41701H12.9343C12.745 4.41701 12.6188 4.29082 12.6188 4.10154C12.6188 3.91226 12.745 3.78607 12.9343 3.78607H16.7199C16.9092 3.78607 17.0354 3.91226 17.0354 4.10154C17.0354 4.29082 16.9092 4.41701 16.7199 4.41701Z" fill="#4F5266"/>
</svg>
