<svg width="16" height="18" viewBox="0 0 16 18" fill="none" xmlns="http://www.w3.org/2000/svg">
<path d="M13.4666 12.2138V12.5503C13.6524 12.5503 13.803 12.3996 13.803 12.2138H13.4666ZM7.57227 12.2138H7.23582C7.23582 12.3996 7.38645 12.5503 7.57227 12.5503V12.2138ZM2.5625 17.0958H2.22605C2.22605 17.2816 2.37668 17.4322 2.5625 17.4322V17.0958ZM15.3276 17.0958V17.4322C15.5134 17.4322 15.664 17.2816 15.664 17.0958H15.3276ZM15.3276 1.11328H15.664C15.664 0.927466 15.5134 0.776833 15.3276 0.776833V1.11328ZM2.5625 1.11328V0.776833C2.37668 0.776833 2.22605 0.927466 2.22605 1.11328H2.5625ZM13.803 12.2138C13.803 11.2217 13.387 10.4597 12.7564 9.95284C12.1343 9.45279 11.3193 9.21238 10.5194 9.21238C9.71953 9.21238 8.90459 9.45279 8.28247 9.95284C7.65189 10.4597 7.23582 11.2217 7.23582 12.2138H7.90871C7.90871 11.4293 8.22944 10.8588 8.70404 10.4773C9.1871 10.089 9.84574 9.88528 10.5194 9.88528C11.1931 9.88528 11.8518 10.089 12.3348 10.4773C12.8094 10.8588 13.1301 11.4293 13.1301 12.2138H13.803ZM7.57227 12.5503H13.4666V11.8774H7.57227V12.5503ZM12.1465 6.86681C12.1465 7.63219 11.4479 8.30734 10.5179 8.30734V8.98023C11.7533 8.98023 12.8194 8.06676 12.8194 6.86681H12.1465ZM10.5179 8.30734C9.58517 8.30734 8.88918 7.6325 8.88918 6.86681H8.21629C8.21629 8.06645 9.27908 8.98023 10.5179 8.98023V8.30734ZM8.88918 6.86681C8.88918 6.10191 9.58528 5.42629 10.5179 5.42629V4.7534C9.27897 4.7534 8.21629 5.66817 8.21629 6.86681H8.88918ZM10.5179 5.42629C11.4478 5.42629 12.1465 6.10222 12.1465 6.86681H12.8194C12.8194 5.66786 11.7535 4.7534 10.5179 4.7534V5.42629ZM2.5625 17.4322H15.3276V16.7593H2.5625V17.4322ZM15.664 17.0958V1.11328H14.9911V17.0958H15.664ZM15.3276 0.776833H2.5625V1.44973H15.3276V0.776833ZM2.22605 1.11328V17.0958H2.89895V1.11328H2.22605Z" fill="#151921"/>
<path d="M5.50854 1.11328V17.0958" stroke="#151921" stroke-width="0.672897"/>
<path d="M0.599609 3.77734V3.4409C0.413794 3.4409 0.263161 3.59153 0.263161 3.77734H0.599609ZM0.599609 5.55585H0.263161C0.263161 5.74167 0.413794 5.8923 0.599609 5.8923L0.599609 5.55585ZM0.59961 8.2168V7.88035C0.413795 7.88035 0.263162 8.03098 0.263162 8.2168H0.59961ZM0.59961 9.99531H0.263162C0.263162 10.1811 0.413795 10.3318 0.59961 10.3318V9.99531ZM0.599609 12.6562V12.3198C0.413794 12.3198 0.263161 12.4704 0.263161 12.6562H0.599609ZM0.599609 14.4348H0.263161C0.263161 14.6206 0.413794 14.7712 0.599609 14.7712L0.599609 14.4348ZM2.56643 3.4409H0.599609V4.11379H2.56643V3.4409ZM0.263161 3.77734V5.55585H0.936058V3.77734H0.263161ZM0.599609 5.8923H2.56643V5.2194H0.599609V5.8923ZM2.56643 7.88035H0.59961V8.55325H2.56643V7.88035ZM0.263162 8.2168V9.99531H0.936059V8.2168H0.263162ZM0.59961 10.3318H2.56643V9.65886H0.59961V10.3318ZM2.56643 12.3198H0.599609V12.9927H2.56643V12.3198ZM0.263161 12.6562V14.4348H0.936058V12.6562H0.263161ZM0.599609 14.7712H2.56643V14.0983H0.599609V14.7712Z" fill="#151921"/>
</svg>
